<svg xmlns="http://www.w3.org/2000/svg" width="840.877" height="164.657" viewBox="0 0 840.877 164.657">
  <g id="Grupo_9131" data-name="Grupo 9131" transform="translate(-312.269 -1893.514)">
    <path id="Trazado_19476" data-name="Trazado 19476" d="M1174.547,2029.628c1.419-6.955,4.392-16.857,10.046-30.951l1.727-7.97a34.045,34.045,0,0,1,8.661-16.951q6.422-6.612,20.96-12.484,13.956-5.434,18.946-9.651a18.5,18.5,0,0,0,6.344-10.464,12.239,12.239,0,0,0-3.272-11.869q-4.787-4.867-14.784-7.035-17.439-3.777-42.046,1.942l-4.219-14.682H524.063l-18.488,132.661H1172.5a21.757,21.757,0,0,1,.4-7.476,25.4,25.4,0,0,1,1.649-5.07" transform="translate(-123)" fill="#f8ca9f"/>
    <path id="Trazado_19477" data-name="Trazado 19477" d="M1186.137,2042.173H448.463l85.851-132.66h720.372l-52.285,95.836Z" transform="translate(-123)" fill="#f8ca9f"/>
    <path id="Trazado_19478" data-name="Trazado 19478" d="M706.906,1937.642v.721a2.878,2.878,0,0,1-.47,1.652,5.728,5.728,0,0,1-1.607,1.444,5.933,5.933,0,0,0-1.45,1.192,1.779,1.779,0,0,0-.3,1.045,1.121,1.121,0,0,0,.458.918,2.246,2.246,0,0,0,1.4.362,6.275,6.275,0,0,0,1.782-.284q.948-.285,1.961-.694l1.076,2.158a10.7,10.7,0,0,1-2.336.884,9.637,9.637,0,0,1-2.419.337,6.192,6.192,0,0,1-3.643-.941,3.012,3.012,0,0,1-1.323-2.594,3.224,3.224,0,0,1,.511-1.825,7.517,7.517,0,0,1,2.019-1.8,6.338,6.338,0,0,0,1.282-1.046,1.529,1.529,0,0,0,.279-.957v-.575Zm.337-3.341a1.564,1.564,0,0,1-.475,1.24,2.012,2.012,0,0,1-1.38.42,1.959,1.959,0,0,1-1.355-.43,1.8,1.8,0,0,1,.011-2.456,1.95,1.95,0,0,1,1.344-.433,2,2,0,0,1,1.371.429,1.557,1.557,0,0,1,.484,1.23" transform="translate(-123)" fill="#040505"/>
    <path id="Trazado_19479" data-name="Trazado 19479" d="M725.619,1936.4a8.472,8.472,0,0,1-.964,4.225,5.725,5.725,0,0,1-2.831,2.495l3.711,3.838h-4.186l-2.825-3.2h-.243a7.736,7.736,0,0,1-5.434-12.818,7.435,7.435,0,0,1,5.456-1.88,7.323,7.323,0,0,1,5.434,1.9,7.4,7.4,0,0,1,1.882,5.448m-11.249,0a5.643,5.643,0,0,0,.98,3.6,3.549,3.549,0,0,0,2.931,1.21q3.914,0,3.912-4.815t-3.89-4.823a3.567,3.567,0,0,0-2.942,1.216,5.607,5.607,0,0,0-.991,3.607" transform="translate(-123)" fill="#040505"/>
    <path id="Trazado_19480" data-name="Trazado 19480" d="M736.911,1943.559l-.433-1.4h-.168a3.328,3.328,0,0,1-1.465,1.176,5.345,5.345,0,0,1-2.162.415,4.309,4.309,0,0,1-3.131-1.03,3.956,3.956,0,0,1-1.054-2.964v-7.119h3.216v6.378a2.878,2.878,0,0,0,.453,1.771,1.7,1.7,0,0,0,1.444.591,2.233,2.233,0,0,0,1.95-.835,4.858,4.858,0,0,0,.6-2.768v-5.137h3.216v10.918Z" transform="translate(-123)" fill="#040505"/>
    <path id="Trazado_19481" data-name="Trazado 19481" d="M742.615,1929.818q0-1.453,1.75-1.455t1.75,1.455a1.361,1.361,0,0,1-.438,1.079,1.935,1.935,0,0,1-1.312.386q-1.75,0-1.75-1.465m3.353,13.741h-3.216v-10.918h3.216Z" transform="translate(-123)" fill="#040505"/>
    <path id="Trazado_19482" data-name="Trazado 19482" d="M754.676,1943.754a6.38,6.38,0,0,1-4.45-1.455,5.281,5.281,0,0,1-1.6-4.121,5.781,5.781,0,0,1,1.481-4.243,5.5,5.5,0,0,1,4.1-1.5,5.436,5.436,0,0,1,3.89,1.318,4.778,4.778,0,0,1,1.391,3.642v1.446h-7.6a2.753,2.753,0,0,0,.812,1.983,2.991,2.991,0,0,0,2.129.713,9.561,9.561,0,0,0,2.014-.2,10.568,10.568,0,0,0,1.982-.655v2.305a7.872,7.872,0,0,1-1.8.58,12.147,12.147,0,0,1-2.34.191m-.454-9.2a2.122,2.122,0,0,0-1.6.6,2.658,2.658,0,0,0-.664,1.7h4.513a2.375,2.375,0,0,0-.623-1.7,2.194,2.194,0,0,0-1.624-.6m-1.855-3.116v-.263a27.862,27.862,0,0,0,2.478-2.939h3.605v.2q-.547.508-1.871,1.509t-2.071,1.488Z" transform="translate(-123)" fill="#040505"/>
    <path id="Trazado_19483" data-name="Trazado 19483" d="M772.978,1943.559h-3.216v-6.377a2.888,2.888,0,0,0-.453-1.772,1.706,1.706,0,0,0-1.444-.591,2.236,2.236,0,0,0-1.95.835,4.848,4.848,0,0,0-.6,2.768v5.137H762.1v-10.918h2.456l.433,1.4h.179a3.334,3.334,0,0,1,1.481-1.2,5.4,5.4,0,0,1,2.145-.4,4.323,4.323,0,0,1,3.122,1.029,3.954,3.954,0,0,1,1.064,2.974Z" transform="translate(-123)" fill="#040505"/>
    <rect id="Rectángulo_3427" data-name="Rectángulo 3427" width="3.215" height="15.195" transform="translate(658.898 1928.363)" fill="#040505"/>
    <path id="Trazado_19484" data-name="Trazado 19484" d="M799.2,1938.08a5.605,5.605,0,0,1-1.518,4.171,5.744,5.744,0,0,1-4.228,1.5,6.286,6.286,0,0,1-2.994-.69,4.751,4.751,0,0,1-1.992-1.976,6.228,6.228,0,0,1-.7-3.009,5.57,5.57,0,0,1,1.507-4.159,5.787,5.787,0,0,1,4.239-1.485,6.322,6.322,0,0,1,2.994.683,4.728,4.728,0,0,1,1.992,1.964,6.175,6.175,0,0,1,.7,3m-8.15,0a4.308,4.308,0,0,0,.575,2.451,2.109,2.109,0,0,0,1.871.83,2.077,2.077,0,0,0,1.851-.825,4.368,4.368,0,0,0,.563-2.456,4.241,4.241,0,0,0-.569-2.432,2.549,2.549,0,0,0-3.722,0,4.243,4.243,0,0,0-.569,2.436" transform="translate(-123)" fill="#040505"/>
    <path id="Trazado_19485" data-name="Trazado 19485" d="M818.344,1943.559h-3.216v-6.377q0-2.362-1.9-2.363a2.223,2.223,0,0,0-1.95.849,4.864,4.864,0,0,0-.6,2.754v5.137h-3.215v-15.195h3.215v3.095q0,.363-.073,1.7l-.074.879h.168a3.818,3.818,0,0,1,3.416-1.6,4.376,4.376,0,0,1,3.153,1.034,3.931,3.931,0,0,1,1.075,2.969Z" transform="translate(-123)" fill="#040505"/>
    <path id="Trazado_19486" data-name="Trazado 19486" d="M829.14,1943.56l-.622-1.486h-.084a4.676,4.676,0,0,1-1.671,1.315,5.785,5.785,0,0,1-2.24.366,3.794,3.794,0,0,1-2.673-.9,3.3,3.3,0,0,1-.975-2.557,2.814,2.814,0,0,1,1.312-2.565,8.122,8.122,0,0,1,3.959-.913l2.046-.057v-.48q0-1.657-1.835-1.66a8.929,8.929,0,0,0-3.321.791l-1.065-2.012a10.219,10.219,0,0,1,4.513-.986,5.941,5.941,0,0,1,3.637.957,3.417,3.417,0,0,1,1.265,2.91v7.277Zm-.948-5.06-1.244.039a4.237,4.237,0,0,0-2.088.47,1.436,1.436,0,0,0-.686,1.307q0,1.26,1.561,1.26a2.58,2.58,0,0,0,1.787-.6,2.013,2.013,0,0,0,.67-1.582Z" transform="translate(-123)" fill="#040505"/>
    <path id="Trazado_19487" data-name="Trazado 19487" d="M840.169,1929.818q0-1.453,1.75-1.455t1.75,1.455a1.361,1.361,0,0,1-.438,1.079,1.935,1.935,0,0,1-1.312.386q-1.75,0-1.75-1.465m3.352,13.741H840.3v-10.918h3.216Z" transform="translate(-123)" fill="#040505"/>
    <path id="Trazado_19488" data-name="Trazado 19488" d="M857.775,1943.559h-3.216v-6.377a2.888,2.888,0,0,0-.453-1.772,1.706,1.706,0,0,0-1.444-.591,2.236,2.236,0,0,0-1.95.835,4.848,4.848,0,0,0-.6,2.768v5.137H846.9v-10.918h2.456l.433,1.4h.179a3.334,3.334,0,0,1,1.481-1.2,5.4,5.4,0,0,1,2.145-.4,4.323,4.323,0,0,1,3.122,1.029,3.954,3.954,0,0,1,1.064,2.974Z" transform="translate(-123)" fill="#040505"/>
    <path id="Trazado_19489" data-name="Trazado 19489" d="M863.89,1943.559l-4.491-10.918h3.363l2.277,6.221a10.319,10.319,0,0,1,.474,2.236h.064a9.1,9.1,0,0,1,.474-2.236l2.267-6.221h3.363l-4.491,10.918Z" transform="translate(-123)" fill="#040505"/>
    <path id="Trazado_19490" data-name="Trazado 19490" d="M878.7,1943.754a6.372,6.372,0,0,1-4.449-1.455,5.284,5.284,0,0,1-1.6-4.121,5.78,5.78,0,0,1,1.482-4.242,5.5,5.5,0,0,1,4.1-1.5,5.43,5.43,0,0,1,3.89,1.317,4.778,4.778,0,0,1,1.392,3.643v1.445h-7.6a2.753,2.753,0,0,0,.812,1.983,2.991,2.991,0,0,0,2.13.712,9.5,9.5,0,0,0,2.013-.2,10.476,10.476,0,0,0,1.983-.654v2.305a7.954,7.954,0,0,1-1.8.581,12.245,12.245,0,0,1-2.341.19m-.453-9.2a2.12,2.12,0,0,0-1.6.6,2.669,2.669,0,0,0-.665,1.7h4.513a2.374,2.374,0,0,0-.622-1.7,2.19,2.19,0,0,0-1.623-.6" transform="translate(-123)" fill="#040505"/>
    <path id="Trazado_19491" data-name="Trazado 19491" d="M894.348,1940.316a2.925,2.925,0,0,1-1.26,2.56,6.6,6.6,0,0,1-3.769.879,12.69,12.69,0,0,1-2.193-.162,8.771,8.771,0,0,1-1.7-.473v-2.461a11.762,11.762,0,0,0,2.019.654,8.765,8.765,0,0,0,1.976.264q1.75,0,1.75-.938a.752.752,0,0,0-.231-.571,3.382,3.382,0,0,0-.8-.5q-.568-.279-1.518-.649a9.788,9.788,0,0,1-2-.977,2.811,2.811,0,0,1-.927-1.03,3.18,3.18,0,0,1-.29-1.432,2.541,2.541,0,0,1,1.217-2.251,6.315,6.315,0,0,1,3.453-.795,10.439,10.439,0,0,1,4.143.86l-.97,2.148q-.885-.351-1.655-.576a5.569,5.569,0,0,0-1.57-.225q-1.423,0-1.424.712a.83.83,0,0,0,.459.694,12.829,12.829,0,0,0,2.008.87,9.588,9.588,0,0,1,2.024.966,2.931,2.931,0,0,1,.949,1.036,2.988,2.988,0,0,1,.306,1.4" transform="translate(-123)" fill="#040505"/>
    <path id="Trazado_19492" data-name="Trazado 19492" d="M901.823,1941.381a7.427,7.427,0,0,0,2.024-.342v2.217a7.722,7.722,0,0,1-2.952.5,3.788,3.788,0,0,1-2.809-.9,3.744,3.744,0,0,1-.881-2.71v-5.265h-1.539v-1.26l1.771-1,.928-2.3h2.056v2.325h3.3v2.235h-3.3v5.265a1.119,1.119,0,0,0,.384.936,1.6,1.6,0,0,0,1.018.3" transform="translate(-123)" fill="#040505"/>
    <path id="Trazado_19493" data-name="Trazado 19493" d="M906.093,1929.818q0-1.453,1.75-1.455t1.75,1.455a1.361,1.361,0,0,1-.438,1.079,1.932,1.932,0,0,1-1.312.386q-1.749,0-1.75-1.465m3.352,13.741H906.23v-10.918h3.215Z" transform="translate(-123)" fill="#040505"/>
    <path id="Trazado_19494" data-name="Trazado 19494" d="M923.078,1932.642v1.512l-1.846.441a2.809,2.809,0,0,1,.506,1.64,3.222,3.222,0,0,1-1.322,2.74,6.071,6.071,0,0,1-3.675.98l-.58-.028-.474-.05a.977.977,0,0,0-.5.781q0,.645,1.771.646h2a4.839,4.839,0,0,1,2.957.77,2.668,2.668,0,0,1,1.018,2.266,3.308,3.308,0,0,1-1.724,2.97,9.553,9.553,0,0,1-4.95,1.053,7.287,7.287,0,0,1-3.768-.8,2.487,2.487,0,0,1-1.3-2.232,2.234,2.234,0,0,1,.664-1.649,3.87,3.87,0,0,1,1.95-.949,2.114,2.114,0,0,1-.864-.638,1.487,1.487,0,0,1,.02-1.984,4.486,4.486,0,0,1,1.128-.814,3.108,3.108,0,0,1-1.47-1.192,3.423,3.423,0,0,1-.543-1.933,3.3,3.3,0,0,1,1.255-2.765,5.733,5.733,0,0,1,3.584-.975,9.529,9.529,0,0,1,1.175.083c.454.054.744.094.87.122Zm-9.1,12.461a1.07,1.07,0,0,0,.638.966,3.732,3.732,0,0,0,1.787.351,6.771,6.771,0,0,0,2.709-.439q.981-.439.98-1.2a.846.846,0,0,0-.58-.848,5.06,5.06,0,0,0-1.792-.236h-1.666a2.658,2.658,0,0,0-1.48.386,1.169,1.169,0,0,0-.6,1.022m1.17-8.888a2.107,2.107,0,0,0,.437,1.406,1.648,1.648,0,0,0,1.334.519,1.613,1.613,0,0,0,1.329-.519,2.157,2.157,0,0,0,.421-1.406q0-1.972-1.75-1.973-1.77,0-1.771,1.973" transform="translate(-123)" fill="#040505"/>
    <path id="Trazado_19495" data-name="Trazado 19495" d="M932.5,1943.56l-.622-1.486H931.8a4.676,4.676,0,0,1-1.671,1.315,5.785,5.785,0,0,1-2.24.366,3.794,3.794,0,0,1-2.673-.9,3.3,3.3,0,0,1-.975-2.557,2.814,2.814,0,0,1,1.312-2.565,8.122,8.122,0,0,1,3.959-.913l2.046-.057v-.48q0-1.657-1.835-1.66a8.929,8.929,0,0,0-3.321.791l-1.065-2.012a10.219,10.219,0,0,1,4.513-.986,5.941,5.941,0,0,1,3.637.957,3.417,3.417,0,0,1,1.265,2.91v7.277Zm-.948-5.06-1.244.039a4.237,4.237,0,0,0-2.088.47,1.436,1.436,0,0,0-.686,1.307q0,1.26,1.561,1.26a2.58,2.58,0,0,0,1.787-.6,2.013,2.013,0,0,0,.67-1.582Z" transform="translate(-123)" fill="#040505"/>
    <path id="Trazado_19496" data-name="Trazado 19496" d="M941.791,1943.754a3.94,3.94,0,0,1-3.263-1.493,7.836,7.836,0,0,1,.022-8.325,4.037,4.037,0,0,1,3.326-1.5,3.95,3.95,0,0,1,3.4,1.6h.1a11.268,11.268,0,0,1-.242-2.177v-3.5h3.225v15.2h-2.466l-.622-1.416h-.137a3.769,3.769,0,0,1-3.343,1.61m1.129-2.373a2.273,2.273,0,0,0,1.808-.663,3.669,3.669,0,0,0,.627-2.257v-.321a4.207,4.207,0,0,0-.585-2.521,2.249,2.249,0,0,0-1.9-.761,1.931,1.931,0,0,0-1.672.844,4.255,4.255,0,0,0-.6,2.456,4.026,4.026,0,0,0,.6,2.417,2.017,2.017,0,0,0,1.719.806" transform="translate(-123)" fill="#040505"/>
    <path id="Trazado_19497" data-name="Trazado 19497" d="M962.434,1938.08a5.605,5.605,0,0,1-1.518,4.171,5.744,5.744,0,0,1-4.228,1.5,6.286,6.286,0,0,1-2.994-.69,4.75,4.75,0,0,1-1.992-1.976,6.227,6.227,0,0,1-.7-3.009,5.57,5.57,0,0,1,1.507-4.159,5.787,5.787,0,0,1,4.239-1.485,6.322,6.322,0,0,1,2.994.683,4.728,4.728,0,0,1,1.992,1.964,6.174,6.174,0,0,1,.7,3m-8.15,0a4.308,4.308,0,0,0,.575,2.451,2.109,2.109,0,0,0,1.871.83,2.077,2.077,0,0,0,1.851-.825,4.368,4.368,0,0,0,.563-2.456,4.24,4.24,0,0,0-.569-2.432,2.549,2.549,0,0,0-3.722,0,4.242,4.242,0,0,0-.569,2.436" transform="translate(-123)" fill="#040505"/>
    <path id="Trazado_19498" data-name="Trazado 19498" d="M978.185,1943.56l-.622-1.486h-.085a4.668,4.668,0,0,1-1.671,1.315,5.778,5.778,0,0,1-2.24.366,3.8,3.8,0,0,1-2.673-.9,3.3,3.3,0,0,1-.974-2.557,2.814,2.814,0,0,1,1.312-2.565,8.119,8.119,0,0,1,3.959-.913l2.045-.057v-.48q0-1.657-1.834-1.66a8.92,8.92,0,0,0-3.321.791l-1.066-2.012a10.222,10.222,0,0,1,4.513-.986,5.945,5.945,0,0,1,3.638.957,3.419,3.419,0,0,1,1.264,2.91v7.277Zm-.949-5.06-1.244.039a4.232,4.232,0,0,0-2.087.47,1.436,1.436,0,0,0-.686,1.307q0,1.26,1.561,1.26a2.583,2.583,0,0,0,1.787-.6,2.015,2.015,0,0,0,.669-1.582Z" transform="translate(-123)" fill="#040505"/>
    <path id="Trazado_19499" data-name="Trazado 19499" d="M994.621,1943.559h-3.215v-6.377a2.881,2.881,0,0,0-.454-1.772,1.7,1.7,0,0,0-1.444-.591,2.235,2.235,0,0,0-1.95.835,4.857,4.857,0,0,0-.6,2.768v5.137h-3.216v-10.918H986.2l.432,1.4h.179a3.337,3.337,0,0,1,1.482-1.2,5.391,5.391,0,0,1,2.144-.4,4.321,4.321,0,0,1,3.122,1.029,3.95,3.95,0,0,1,1.064,2.974Z" transform="translate(-123)" fill="#040505"/>
    <path id="Trazado_19500" data-name="Trazado 19500" d="M1002.9,1941.381a7.428,7.428,0,0,0,2.024-.342v2.217a7.719,7.719,0,0,1-2.952.5,3.788,3.788,0,0,1-2.809-.9,3.744,3.744,0,0,1-.88-2.71v-5.265h-1.539v-1.26l1.77-1,.928-2.3h2.057v2.325h3.3v2.235h-3.3v5.265a1.119,1.119,0,0,0,.384.936,1.6,1.6,0,0,0,1.017.3" transform="translate(-123)" fill="#040505"/>
    <path id="Trazado_19501" data-name="Trazado 19501" d="M1012.639,1943.754a6.372,6.372,0,0,1-4.449-1.455,5.284,5.284,0,0,1-1.6-4.121,5.78,5.78,0,0,1,1.482-4.242,5.5,5.5,0,0,1,4.1-1.5,5.43,5.43,0,0,1,3.89,1.317,4.778,4.778,0,0,1,1.392,3.643v1.445h-7.6a2.753,2.753,0,0,0,.812,1.983,2.991,2.991,0,0,0,2.13.712,9.5,9.5,0,0,0,2.013-.2,10.476,10.476,0,0,0,1.983-.654v2.305a7.955,7.955,0,0,1-1.8.581,12.245,12.245,0,0,1-2.341.19m-.453-9.2a2.119,2.119,0,0,0-1.6.6,2.669,2.669,0,0,0-.665,1.7h4.513a2.375,2.375,0,0,0-.622-1.7,2.19,2.19,0,0,0-1.623-.6" transform="translate(-123)" fill="#040505"/>
    <path id="Trazado_19502" data-name="Trazado 19502" d="M1028.285,1940.316a2.925,2.925,0,0,1-1.26,2.56,6.6,6.6,0,0,1-3.769.879,12.69,12.69,0,0,1-2.193-.162,8.771,8.771,0,0,1-1.7-.473v-2.461a11.762,11.762,0,0,0,2.019.654,8.765,8.765,0,0,0,1.976.264q1.75,0,1.75-.938a.752.752,0,0,0-.231-.571,3.382,3.382,0,0,0-.8-.5q-.569-.279-1.518-.649a9.788,9.788,0,0,1-2-.977,2.811,2.811,0,0,1-.927-1.03,3.18,3.18,0,0,1-.29-1.432,2.541,2.541,0,0,1,1.217-2.251,6.315,6.315,0,0,1,3.453-.795,10.439,10.439,0,0,1,4.143.86l-.97,2.148q-.885-.351-1.655-.576a5.568,5.568,0,0,0-1.57-.225q-1.424,0-1.424.712a.83.83,0,0,0,.459.694,12.829,12.829,0,0,0,2.008.87,9.589,9.589,0,0,1,2.024.966,2.931,2.931,0,0,1,.949,1.036,2.988,2.988,0,0,1,.306,1.4" transform="translate(-123)" fill="#040505"/>
    <path id="Trazado_19503" data-name="Trazado 19503" d="M1032.016,1938.822v-.721a3.013,3.013,0,0,1,.433-1.631,5.479,5.479,0,0,1,1.581-1.476,6.544,6.544,0,0,0,1.461-1.19,1.645,1.645,0,0,0,.352-1.027,1.082,1.082,0,0,0-.506-.966,2.563,2.563,0,0,0-1.413-.332,8.62,8.62,0,0,0-3.6.957l-1.149-2.138a10.659,10.659,0,0,1,4.987-1.222,5.592,5.592,0,0,1,3.453.968,3.07,3.07,0,0,1,1.28,2.578,3.246,3.246,0,0,1-.526,1.855,7.287,7.287,0,0,1-2,1.757,6.016,6.016,0,0,0-1.281,1.056,1.547,1.547,0,0,0-.269.946v.586Zm-.337,3.34a1.563,1.563,0,0,1,.475-1.239,2.014,2.014,0,0,1,1.38-.42,1.959,1.959,0,0,1,1.355.43,1.791,1.791,0,0,1-.005,2.446,1.924,1.924,0,0,1-1.35.443,1.988,1.988,0,0,1-1.37-.433,1.562,1.562,0,0,1-.485-1.227" transform="translate(-123)" fill="#040505"/>
    <path id="Trazado_19504" data-name="Trazado 19504" d="M646.6,1971.642v.721a2.877,2.877,0,0,1-.469,1.652,5.735,5.735,0,0,1-1.608,1.444,5.923,5.923,0,0,0-1.449,1.192,1.78,1.78,0,0,0-.3,1.045,1.122,1.122,0,0,0,.459.918,2.243,2.243,0,0,0,1.4.362,6.282,6.282,0,0,0,1.783-.284q.948-.285,1.961-.694l1.075,2.158a10.668,10.668,0,0,1-2.335.884,9.639,9.639,0,0,1-2.42.337,6.194,6.194,0,0,1-3.643-.941,3.015,3.015,0,0,1-1.323-2.594,3.224,3.224,0,0,1,.512-1.825,7.526,7.526,0,0,1,2.018-1.8,6.307,6.307,0,0,0,1.282-1.046,1.523,1.523,0,0,0,.279-.957v-.575Zm.338-3.341a1.564,1.564,0,0,1-.475,1.24,2.014,2.014,0,0,1-1.38.42,1.962,1.962,0,0,1-1.356-.43,1.8,1.8,0,0,1,.011-2.456,1.955,1.955,0,0,1,1.345-.433,2,2,0,0,1,1.37.429,1.558,1.558,0,0,1,.485,1.23" transform="translate(-123)" fill="#040505"/>
    <path id="Trazado_19505" data-name="Trazado 19505" d="M657.871,1965.6a3.427,3.427,0,0,0-2.857,1.284,5.648,5.648,0,0,0-1.012,3.579q0,4.778,3.869,4.776a13.1,13.1,0,0,0,3.933-.752v2.539a11.7,11.7,0,0,1-4.239.732,6.736,6.736,0,0,1-5.145-1.889,7.613,7.613,0,0,1-1.781-5.425,8.316,8.316,0,0,1,.875-3.9,6.049,6.049,0,0,1,2.514-2.568,7.906,7.906,0,0,1,3.843-.894,11.05,11.05,0,0,1,4.513,1.006l-1.055,2.461a18.266,18.266,0,0,0-1.739-.664,5.593,5.593,0,0,0-1.719-.283" transform="translate(-123)" fill="#040505"/>
    <path id="Trazado_19506" data-name="Trazado 19506" d="M675.541,1972.081a5.6,5.6,0,0,1-1.519,4.17,5.747,5.747,0,0,1-4.228,1.5,6.292,6.292,0,0,1-2.994-.688,4.744,4.744,0,0,1-1.992-1.978,6.223,6.223,0,0,1-.7-3.007,5.571,5.571,0,0,1,1.508-4.161,5.785,5.785,0,0,1,4.238-1.484,6.323,6.323,0,0,1,2.994.684,4.727,4.727,0,0,1,1.992,1.963,6.176,6.176,0,0,1,.7,3m-8.151,0a4.318,4.318,0,0,0,.575,2.451,2.111,2.111,0,0,0,1.871.83,2.082,2.082,0,0,0,1.851-.825,4.37,4.37,0,0,0,.564-2.456,4.235,4.235,0,0,0-.57-2.432,2.545,2.545,0,0,0-3.721-.005,4.243,4.243,0,0,0-.57,2.437m.675-6.642v-.263a27.872,27.872,0,0,0,2.478-2.939h3.606v.2q-.549.508-1.872,1.509t-2.071,1.488Z" transform="translate(-123)" fill="#040505"/>
    <path id="Trazado_19507" data-name="Trazado 19507" d="M688.751,1977.559h-3.216v-6.377a3.019,3.019,0,0,0-.427-1.772,1.546,1.546,0,0,0-1.344-.591,1.993,1.993,0,0,0-1.792.84,5.157,5.157,0,0,0-.559,2.763v5.137H678.2v-10.918h2.457l.432,1.4h.18a3.185,3.185,0,0,1,1.37-1.177,4.748,4.748,0,0,1,2.055-.424q2.648,0,3.585,1.6h.285a3.107,3.107,0,0,1,1.4-1.182,4.971,4.971,0,0,1,2.082-.419,4.313,4.313,0,0,1,3.031.951,3.985,3.985,0,0,1,1.029,3.052v7.119h-3.227v-6.377a3.026,3.026,0,0,0-.427-1.772,1.546,1.546,0,0,0-1.344-.591,2.066,2.066,0,0,0-1.766.781,4.173,4.173,0,0,0-.585,2.48Z" transform="translate(-123)" fill="#040505"/>
    <path id="Trazado_19508" data-name="Trazado 19508" d="M710.11,1972.08a5.609,5.609,0,0,1-1.517,4.171,5.748,5.748,0,0,1-4.229,1.5,6.291,6.291,0,0,1-2.994-.69,4.75,4.75,0,0,1-1.992-1.976,6.239,6.239,0,0,1-.7-3.009,5.571,5.571,0,0,1,1.508-4.159,5.782,5.782,0,0,1,4.238-1.485,6.32,6.32,0,0,1,2.994.683,4.725,4.725,0,0,1,1.993,1.964,6.174,6.174,0,0,1,.7,3m-8.149,0a4.308,4.308,0,0,0,.574,2.451,2.111,2.111,0,0,0,1.872.83,2.075,2.075,0,0,0,1.85-.825,4.368,4.368,0,0,0,.564-2.456,4.24,4.24,0,0,0-.569-2.432,2.549,2.549,0,0,0-3.722,0,4.235,4.235,0,0,0-.569,2.436" transform="translate(-123)" fill="#040505"/>
    <path id="Trazado_19509" data-name="Trazado 19509" d="M726.6,1974.316a2.925,2.925,0,0,1-1.26,2.56,6.6,6.6,0,0,1-3.769.879,12.689,12.689,0,0,1-2.193-.162,8.772,8.772,0,0,1-1.7-.473v-2.461a11.764,11.764,0,0,0,2.019.654,8.766,8.766,0,0,0,1.976.264q1.75,0,1.75-.938a.752.752,0,0,0-.231-.571,3.381,3.381,0,0,0-.8-.5q-.569-.279-1.518-.649a9.789,9.789,0,0,1-2-.977,2.811,2.811,0,0,1-.927-1.03,3.18,3.18,0,0,1-.29-1.432,2.541,2.541,0,0,1,1.217-2.251,6.315,6.315,0,0,1,3.453-.795,10.439,10.439,0,0,1,4.143.86l-.97,2.148q-.885-.351-1.655-.576a5.569,5.569,0,0,0-1.57-.225q-1.423,0-1.424.712a.83.83,0,0,0,.459.694,12.824,12.824,0,0,0,2.008.87,9.587,9.587,0,0,1,2.024.966,2.931,2.931,0,0,1,.949,1.036,2.989,2.989,0,0,1,.306,1.4" transform="translate(-123)" fill="#040505"/>
    <path id="Trazado_19510" data-name="Trazado 19510" d="M734.443,1977.754a6.372,6.372,0,0,1-4.449-1.455,5.284,5.284,0,0,1-1.6-4.121,5.78,5.78,0,0,1,1.482-4.242,5.5,5.5,0,0,1,4.1-1.5,5.43,5.43,0,0,1,3.89,1.317,4.778,4.778,0,0,1,1.392,3.643v1.445h-7.6a2.753,2.753,0,0,0,.812,1.983,2.991,2.991,0,0,0,2.13.712,9.5,9.5,0,0,0,2.013-.2,10.476,10.476,0,0,0,1.983-.654v2.305a7.954,7.954,0,0,1-1.8.581,12.245,12.245,0,0,1-2.341.19m-.453-9.2a2.119,2.119,0,0,0-1.6.6,2.669,2.669,0,0,0-.665,1.7h4.513a2.374,2.374,0,0,0-.622-1.7,2.19,2.19,0,0,0-1.623-.6" transform="translate(-123)" fill="#040505"/>
    <path id="Trazado_19511" data-name="Trazado 19511" d="M758.354,1977.559h-3.216v-6.377q0-2.362-1.9-2.363a2.223,2.223,0,0,0-1.95.849,4.864,4.864,0,0,0-.6,2.754v5.137h-3.215v-15.195h3.215v3.095q0,.363-.073,1.7l-.074.879h.168a3.817,3.817,0,0,1,3.416-1.6,4.376,4.376,0,0,1,3.153,1.034,3.931,3.931,0,0,1,1.075,2.969Z" transform="translate(-123)" fill="#040505"/>
    <path id="Trazado_19512" data-name="Trazado 19512" d="M769.15,1977.56l-.622-1.486h-.084a4.676,4.676,0,0,1-1.671,1.315,5.785,5.785,0,0,1-2.24.366,3.794,3.794,0,0,1-2.673-.9,3.3,3.3,0,0,1-.975-2.557,2.814,2.814,0,0,1,1.312-2.565,8.122,8.122,0,0,1,3.959-.913l2.046-.057v-.48q0-1.657-1.835-1.66a8.929,8.929,0,0,0-3.321.791l-1.065-2.012a10.219,10.219,0,0,1,4.513-.986,5.941,5.941,0,0,1,3.637.957,3.417,3.417,0,0,1,1.265,2.91v7.277Zm-.948-5.06-1.244.039a4.237,4.237,0,0,0-2.088.47,1.436,1.436,0,0,0-.686,1.307q0,1.26,1.561,1.26a2.58,2.58,0,0,0,1.787-.6,2.013,2.013,0,0,0,.67-1.582Z" transform="translate(-123)" fill="#040505"/>
    <path id="Trazado_19513" data-name="Trazado 19513" d="M787.8,1977.56l-.622-1.486h-.084a4.676,4.676,0,0,1-1.671,1.315,5.785,5.785,0,0,1-2.24.366,3.793,3.793,0,0,1-2.673-.9,3.3,3.3,0,0,1-.975-2.557,2.814,2.814,0,0,1,1.312-2.565,8.122,8.122,0,0,1,3.959-.913l2.046-.057v-.48q0-1.657-1.835-1.66a8.929,8.929,0,0,0-3.321.791l-1.065-2.012a10.219,10.219,0,0,1,4.513-.986,5.941,5.941,0,0,1,3.637.957,3.417,3.417,0,0,1,1.265,2.91v7.277Zm-.948-5.06-1.244.039a4.237,4.237,0,0,0-2.088.47,1.436,1.436,0,0,0-.686,1.307q0,1.26,1.561,1.26a2.58,2.58,0,0,0,1.787-.6,2.013,2.013,0,0,0,.67-1.582Z" transform="translate(-123)" fill="#040505"/>
    <path id="Trazado_19514" data-name="Trazado 19514" d="M799.915,1966.436a3.915,3.915,0,0,1,3.268,1.509,6.55,6.55,0,0,1,1.181,4.136,6.44,6.44,0,0,1-1.217,4.189,4.471,4.471,0,0,1-6.575.087h-.22l-.538,1.2h-2.456v-15.195h3.214v3.534q0,.675-.126,2.159h.126a3.808,3.808,0,0,1,3.343-1.621m-1.033,2.382a2.106,2.106,0,0,0-1.74.68,3.681,3.681,0,0,0-.57,2.241v.322a4.327,4.327,0,0,0,.565,2.52,2.076,2.076,0,0,0,1.787.761,1.825,1.825,0,0,0,1.576-.844,4.3,4.3,0,0,0,.585-2.456,4.074,4.074,0,0,0-.591-2.417,1.891,1.891,0,0,0-1.612-.807" transform="translate(-123)" fill="#040505"/>
    <path id="Trazado_19515" data-name="Trazado 19515" d="M817.732,1972.08a5.605,5.605,0,0,1-1.518,4.171,5.744,5.744,0,0,1-4.228,1.5,6.286,6.286,0,0,1-2.994-.69,4.75,4.75,0,0,1-1.992-1.976,6.227,6.227,0,0,1-.7-3.009,5.57,5.57,0,0,1,1.507-4.159,5.787,5.787,0,0,1,4.239-1.485,6.322,6.322,0,0,1,2.994.683,4.728,4.728,0,0,1,1.992,1.964,6.175,6.175,0,0,1,.7,3m-8.15,0a4.308,4.308,0,0,0,.575,2.451,2.109,2.109,0,0,0,1.871.83,2.077,2.077,0,0,0,1.851-.825,4.368,4.368,0,0,0,.563-2.456,4.24,4.24,0,0,0-.569-2.432,2.549,2.549,0,0,0-3.722,0,4.242,4.242,0,0,0-.569,2.436" transform="translate(-123)" fill="#040505"/>
    <path id="Trazado_19516" data-name="Trazado 19516" d="M826.968,1966.436a5.546,5.546,0,0,1,1.086.088l-.244,2.793a3.91,3.91,0,0,0-.948-.1,3.579,3.579,0,0,0-2.4.733,2.546,2.546,0,0,0-.86,2.05v5.557h-3.216v-10.918h2.435l.476,1.836h.157a4.248,4.248,0,0,1,1.482-1.479,3.861,3.861,0,0,1,2.03-.562" transform="translate(-123)" fill="#040505"/>
    <path id="Trazado_19517" data-name="Trazado 19517" d="M833.925,1977.754a3.941,3.941,0,0,1-3.263-1.493,7.844,7.844,0,0,1,.021-8.325,4.04,4.04,0,0,1,3.327-1.5,3.945,3.945,0,0,1,3.394,1.6h.106a11.346,11.346,0,0,1-.242-2.177v-3.5h3.225v15.2h-2.467l-.622-1.416h-.136a3.769,3.769,0,0,1-3.343,1.61m1.129-2.373a2.274,2.274,0,0,0,1.808-.663,3.668,3.668,0,0,0,.628-2.257v-.321a4.206,4.206,0,0,0-.586-2.521,2.25,2.25,0,0,0-1.9-.761,1.932,1.932,0,0,0-1.671.844,4.247,4.247,0,0,0-.595,2.456,4.034,4.034,0,0,0,.6,2.417,2.02,2.02,0,0,0,1.72.806" transform="translate(-123)" fill="#040505"/>
    <path id="Trazado_19518" data-name="Trazado 19518" d="M851.342,1977.56l-.622-1.486h-.085a4.668,4.668,0,0,1-1.671,1.315,5.778,5.778,0,0,1-2.24.366,3.8,3.8,0,0,1-2.673-.9,3.3,3.3,0,0,1-.974-2.557,2.814,2.814,0,0,1,1.312-2.565,8.119,8.119,0,0,1,3.959-.913l2.045-.057v-.48q0-1.657-1.834-1.66a8.92,8.92,0,0,0-3.321.791l-1.066-2.012a10.222,10.222,0,0,1,4.513-.986,5.945,5.945,0,0,1,3.638.957,3.419,3.419,0,0,1,1.264,2.91v7.277Zm-.949-5.06-1.244.039a4.232,4.232,0,0,0-2.087.47,1.436,1.436,0,0,0-.686,1.307q0,1.26,1.561,1.26a2.583,2.583,0,0,0,1.787-.6,2.015,2.015,0,0,0,.669-1.582Z" transform="translate(-123)" fill="#040505"/>
    <path id="Trazado_19519" data-name="Trazado 19519" d="M860.63,1977.754a3.938,3.938,0,0,1-3.263-1.493,7.839,7.839,0,0,1,.021-8.325,4.038,4.038,0,0,1,3.326-1.5,3.947,3.947,0,0,1,3.4,1.6h.1a11.346,11.346,0,0,1-.242-2.177v-3.5H867.2v15.2h-2.467l-.622-1.416h-.137a3.766,3.766,0,0,1-3.342,1.61m1.128-2.373a2.276,2.276,0,0,0,1.809-.663,3.668,3.668,0,0,0,.627-2.257v-.321a4.214,4.214,0,0,0-.585-2.521,2.251,2.251,0,0,0-1.9-.761,1.929,1.929,0,0,0-1.671.844,4.247,4.247,0,0,0-.595,2.456,4.026,4.026,0,0,0,.6,2.417,2.018,2.018,0,0,0,1.719.806" transform="translate(-123)" fill="#040505"/>
    <path id="Trazado_19520" data-name="Trazado 19520" d="M881.273,1972.08a5.609,5.609,0,0,1-1.517,4.171,5.748,5.748,0,0,1-4.229,1.5,6.291,6.291,0,0,1-2.994-.69,4.75,4.75,0,0,1-1.992-1.976,6.239,6.239,0,0,1-.7-3.009,5.571,5.571,0,0,1,1.508-4.159,5.782,5.782,0,0,1,4.238-1.485,6.32,6.32,0,0,1,2.994.683,4.725,4.725,0,0,1,1.993,1.964,6.175,6.175,0,0,1,.7,3m-8.149,0a4.308,4.308,0,0,0,.574,2.451,2.111,2.111,0,0,0,1.872.83,2.075,2.075,0,0,0,1.85-.825,4.367,4.367,0,0,0,.564-2.456,4.24,4.24,0,0,0-.569-2.432,2.549,2.549,0,0,0-3.722,0,4.235,4.235,0,0,0-.569,2.436" transform="translate(-123)" fill="#040505"/>
    <path id="Trazado_19521" data-name="Trazado 19521" d="M894.874,1977.754a6.373,6.373,0,0,1-4.449-1.455,5.284,5.284,0,0,1-1.6-4.121,5.78,5.78,0,0,1,1.482-4.242,5.5,5.5,0,0,1,4.1-1.5,5.43,5.43,0,0,1,3.89,1.317,4.778,4.778,0,0,1,1.392,3.643v1.445h-7.6a2.753,2.753,0,0,0,.812,1.983,2.991,2.991,0,0,0,2.13.712,9.5,9.5,0,0,0,2.013-.2,10.475,10.475,0,0,0,1.983-.654v2.305a7.954,7.954,0,0,1-1.8.581,12.246,12.246,0,0,1-2.341.19m-.453-9.2a2.12,2.12,0,0,0-1.6.6,2.669,2.669,0,0,0-.665,1.7h4.513a2.375,2.375,0,0,0-.622-1.7,2.19,2.19,0,0,0-1.623-.6" transform="translate(-123)" fill="#040505"/>
    <path id="Trazado_19522" data-name="Trazado 19522" d="M913.175,1977.559H909.96v-6.377a2.881,2.881,0,0,0-.454-1.772,1.7,1.7,0,0,0-1.444-.591,2.235,2.235,0,0,0-1.95.835,4.857,4.857,0,0,0-.6,2.768v5.137h-3.216v-10.918h2.457l.432,1.4h.179a3.337,3.337,0,0,1,1.482-1.2,5.392,5.392,0,0,1,2.144-.4,4.321,4.321,0,0,1,3.122,1.029,3.95,3.95,0,0,1,1.064,2.974Z" transform="translate(-123)" fill="#040505"/>
    <path id="Trazado_19523" data-name="Trazado 19523" d="M932.807,1972.08a5.605,5.605,0,0,1-1.518,4.171,5.744,5.744,0,0,1-4.228,1.5,6.286,6.286,0,0,1-2.994-.69,4.75,4.75,0,0,1-1.992-1.976,6.227,6.227,0,0,1-.7-3.009,5.57,5.57,0,0,1,1.507-4.159,5.787,5.787,0,0,1,4.239-1.485,6.322,6.322,0,0,1,2.994.683,4.729,4.729,0,0,1,1.992,1.964,6.175,6.175,0,0,1,.7,3m-8.15,0a4.308,4.308,0,0,0,.575,2.451,2.109,2.109,0,0,0,1.871.83,2.077,2.077,0,0,0,1.851-.825,4.368,4.368,0,0,0,.563-2.456,4.24,4.24,0,0,0-.569-2.432,2.549,2.549,0,0,0-3.722,0,4.242,4.242,0,0,0-.569,2.436" transform="translate(-123)" fill="#040505"/>
    <path id="Trazado_19524" data-name="Trazado 19524" d="M940.429,1975.381a7.427,7.427,0,0,0,2.024-.342v2.217a7.722,7.722,0,0,1-2.952.5,3.788,3.788,0,0,1-2.809-.9,3.744,3.744,0,0,1-.881-2.71v-5.265h-1.539v-1.26l1.771-1,.928-2.3h2.056v2.325h3.3v2.235h-3.3v5.265a1.119,1.119,0,0,0,.384.936,1.6,1.6,0,0,0,1.018.3" transform="translate(-123)" fill="#040505"/>
    <path id="Trazado_19525" data-name="Trazado 19525" d="M951.415,1966.436a5.545,5.545,0,0,1,1.086.088l-.242,2.793a3.912,3.912,0,0,0-.949-.1,3.582,3.582,0,0,0-2.4.733,2.549,2.549,0,0,0-.859,2.05v5.557h-3.215v-10.918h2.434l.475,1.836h.158a4.239,4.239,0,0,1,1.482-1.479,3.86,3.86,0,0,1,2.029-.562" transform="translate(-123)" fill="#040505"/>
    <path id="Trazado_19526" data-name="Trazado 19526" d="M965.352,1972.08a5.609,5.609,0,0,1-1.517,4.171,5.748,5.748,0,0,1-4.229,1.5,6.291,6.291,0,0,1-2.994-.69,4.75,4.75,0,0,1-1.992-1.976,6.239,6.239,0,0,1-.7-3.009,5.571,5.571,0,0,1,1.508-4.159,5.782,5.782,0,0,1,4.238-1.485,6.32,6.32,0,0,1,2.994.683,4.725,4.725,0,0,1,1.993,1.964,6.175,6.175,0,0,1,.7,3m-8.149,0a4.308,4.308,0,0,0,.574,2.451,2.111,2.111,0,0,0,1.872.83,2.075,2.075,0,0,0,1.85-.825,4.368,4.368,0,0,0,.564-2.456,4.24,4.24,0,0,0-.569-2.432,2.549,2.549,0,0,0-3.722,0,4.235,4.235,0,0,0-.569,2.436" transform="translate(-123)" fill="#040505"/>
    <path id="Trazado_19527" data-name="Trazado 19527" d="M976.232,1974.316a2.925,2.925,0,0,1-1.26,2.56,6.6,6.6,0,0,1-3.768.879,12.7,12.7,0,0,1-2.194-.162,8.793,8.793,0,0,1-1.7-.473v-2.461a11.822,11.822,0,0,0,2.019.654,8.781,8.781,0,0,0,1.977.264q1.749,0,1.75-.938a.749.749,0,0,0-.232-.571,3.372,3.372,0,0,0-.8-.5q-.57-.279-1.519-.649a9.843,9.843,0,0,1-2-.977,2.821,2.821,0,0,1-.927-1.03,3.18,3.18,0,0,1-.29-1.432,2.541,2.541,0,0,1,1.217-2.251,6.318,6.318,0,0,1,3.453-.795,10.444,10.444,0,0,1,4.144.86l-.97,2.148q-.887-.351-1.655-.576a5.576,5.576,0,0,0-1.571-.225q-1.423,0-1.423.712a.828.828,0,0,0,.458.694,12.8,12.8,0,0,0,2.009.87,9.588,9.588,0,0,1,2.024.966,2.929,2.929,0,0,1,.948,1.036,2.976,2.976,0,0,1,.306,1.4" transform="translate(-123)" fill="#040505"/>
    <path id="Trazado_19528" data-name="Trazado 19528" d="M989.136,1977.754q-5.5,0-5.5-5.6a5.7,5.7,0,0,1,1.5-4.253,5.879,5.879,0,0,1,4.291-1.468,8.73,8.73,0,0,1,3.669.742l-.949,2.3q-.759-.284-1.412-.463a4.878,4.878,0,0,0-1.308-.181q-2.51,0-2.51,3.3,0,3.2,2.51,3.2a6.08,6.08,0,0,0,1.719-.231,6.454,6.454,0,0,0,1.581-.716v2.547a5.413,5.413,0,0,1-1.576.635,9.557,9.557,0,0,1-2.009.176" transform="translate(-123)" fill="#040505"/>
    <path id="Trazado_19529" data-name="Trazado 19529" d="M1006.163,1972.08a5.605,5.605,0,0,1-1.518,4.171,5.744,5.744,0,0,1-4.228,1.5,6.286,6.286,0,0,1-2.994-.69,4.75,4.75,0,0,1-1.992-1.976,6.227,6.227,0,0,1-.7-3.009,5.57,5.57,0,0,1,1.507-4.159,5.787,5.787,0,0,1,4.239-1.485,6.322,6.322,0,0,1,2.994.683,4.728,4.728,0,0,1,1.992,1.964,6.174,6.174,0,0,1,.7,3m-8.15,0a4.308,4.308,0,0,0,.575,2.451,2.109,2.109,0,0,0,1.871.83,2.077,2.077,0,0,0,1.851-.825,4.368,4.368,0,0,0,.563-2.456,4.24,4.24,0,0,0-.569-2.432,2.549,2.549,0,0,0-3.722,0,4.243,4.243,0,0,0-.569,2.436" transform="translate(-123)" fill="#040505"/>
    <path id="Trazado_19530" data-name="Trazado 19530" d="M1019.7,1977.559h-3.215v-6.377a2.881,2.881,0,0,0-.454-1.772,1.7,1.7,0,0,0-1.444-.591,2.235,2.235,0,0,0-1.95.835,4.857,4.857,0,0,0-.6,2.768v5.137h-3.216v-10.918h2.457l.432,1.4h.179a3.337,3.337,0,0,1,1.482-1.2,5.391,5.391,0,0,1,2.144-.4,4.321,4.321,0,0,1,3.122,1.029,3.95,3.95,0,0,1,1.064,2.974Z" transform="translate(-123)" fill="#040505"/>
    <path id="Trazado_19531" data-name="Trazado 19531" d="M1027.976,1975.381a7.427,7.427,0,0,0,2.024-.342v2.217a7.719,7.719,0,0,1-2.952.5,3.788,3.788,0,0,1-2.809-.9,3.743,3.743,0,0,1-.88-2.71v-5.265h-1.539v-1.26l1.77-1,.928-2.3h2.057v2.325h3.3v2.235h-3.3v5.265a1.119,1.119,0,0,0,.384.936,1.6,1.6,0,0,0,1.017.3" transform="translate(-123)" fill="#040505"/>
    <path id="Trazado_19532" data-name="Trazado 19532" d="M1037.718,1977.754a6.372,6.372,0,0,1-4.449-1.455,5.284,5.284,0,0,1-1.6-4.121,5.781,5.781,0,0,1,1.482-4.242,5.5,5.5,0,0,1,4.1-1.5,5.43,5.43,0,0,1,3.89,1.317,4.778,4.778,0,0,1,1.392,3.643v1.445h-7.6a2.753,2.753,0,0,0,.812,1.983,2.991,2.991,0,0,0,2.13.712,9.5,9.5,0,0,0,2.013-.2,10.479,10.479,0,0,0,1.983-.654v2.305a7.956,7.956,0,0,1-1.8.581,12.244,12.244,0,0,1-2.341.19m-.453-9.2a2.12,2.12,0,0,0-1.6.6,2.669,2.669,0,0,0-.665,1.7h4.513a2.375,2.375,0,0,0-.622-1.7,2.189,2.189,0,0,0-1.623-.6" transform="translate(-123)" fill="#040505"/>
    <path id="Trazado_19533" data-name="Trazado 19533" d="M1047.554,1971.982l-3.8-5.342h3.648l2.288,3.478,2.308-3.478h3.649l-3.838,5.342,4.016,5.576h-3.658l-2.477-3.739-2.489,3.739h-3.647Z" transform="translate(-123)" fill="#040505"/>
    <path id="Trazado_19534" data-name="Trazado 19534" d="M1062.589,1975.381a7.427,7.427,0,0,0,2.024-.342v2.217a7.719,7.719,0,0,1-2.952.5,3.788,3.788,0,0,1-2.809-.9,3.743,3.743,0,0,1-.88-2.71v-5.265h-1.539v-1.26l1.77-1,.928-2.3h2.057v2.325h3.3v2.235h-3.3v5.265a1.119,1.119,0,0,0,.384.936,1.6,1.6,0,0,0,1.017.3" transform="translate(-123)" fill="#040505"/>
    <path id="Trazado_19535" data-name="Trazado 19535" d="M1077.707,1972.08a5.605,5.605,0,0,1-1.518,4.171,5.744,5.744,0,0,1-4.228,1.5,6.286,6.286,0,0,1-2.994-.69,4.75,4.75,0,0,1-1.992-1.976,6.228,6.228,0,0,1-.7-3.009,5.57,5.57,0,0,1,1.507-4.159,5.787,5.787,0,0,1,4.239-1.485,6.322,6.322,0,0,1,2.994.683,4.728,4.728,0,0,1,1.992,1.964,6.175,6.175,0,0,1,.7,3m-8.15,0a4.308,4.308,0,0,0,.575,2.451,2.109,2.109,0,0,0,1.871.83,2.077,2.077,0,0,0,1.851-.825,4.368,4.368,0,0,0,.563-2.456,4.24,4.24,0,0,0-.569-2.432,2.549,2.549,0,0,0-3.722,0,4.242,4.242,0,0,0-.569,2.436" transform="translate(-123)" fill="#040505"/>
    <path id="Trazado_19536" data-name="Trazado 19536" d="M1088.588,1974.316a2.925,2.925,0,0,1-1.26,2.56,6.6,6.6,0,0,1-3.769.879,12.69,12.69,0,0,1-2.193-.162,8.772,8.772,0,0,1-1.7-.473v-2.461a11.765,11.765,0,0,0,2.019.654,8.765,8.765,0,0,0,1.976.264q1.751,0,1.75-.938a.752.752,0,0,0-.231-.571,3.382,3.382,0,0,0-.8-.5q-.569-.279-1.518-.649a9.79,9.79,0,0,1-2-.977,2.81,2.81,0,0,1-.927-1.03,3.18,3.18,0,0,1-.29-1.432,2.541,2.541,0,0,1,1.217-2.251,6.315,6.315,0,0,1,3.453-.795,10.44,10.44,0,0,1,4.143.86l-.97,2.148q-.885-.351-1.655-.576a5.57,5.57,0,0,0-1.57-.225q-1.423,0-1.424.712a.83.83,0,0,0,.459.694,12.828,12.828,0,0,0,2.008.87,9.586,9.586,0,0,1,2.024.966,2.931,2.931,0,0,1,.949,1.036,2.988,2.988,0,0,1,.306,1.4" transform="translate(-123)" fill="#040505"/>
    <path id="Trazado_19537" data-name="Trazado 19537" d="M1092.319,1972.822v-.721a3.013,3.013,0,0,1,.433-1.631,5.479,5.479,0,0,1,1.581-1.476,6.541,6.541,0,0,0,1.461-1.19,1.644,1.644,0,0,0,.352-1.027,1.082,1.082,0,0,0-.506-.966,2.563,2.563,0,0,0-1.413-.332,8.62,8.62,0,0,0-3.605.957l-1.149-2.138a10.659,10.659,0,0,1,4.987-1.222,5.592,5.592,0,0,1,3.453.968,3.07,3.07,0,0,1,1.28,2.578,3.246,3.246,0,0,1-.526,1.855,7.287,7.287,0,0,1-2,1.757,6.016,6.016,0,0,0-1.281,1.056,1.547,1.547,0,0,0-.269.946v.586Zm-.337,3.34a1.563,1.563,0,0,1,.475-1.239,2.014,2.014,0,0,1,1.38-.42,1.959,1.959,0,0,1,1.355.43,1.791,1.791,0,0,1-.005,2.446,1.924,1.924,0,0,1-1.35.443,1.988,1.988,0,0,1-1.37-.433,1.562,1.562,0,0,1-.485-1.227" transform="translate(-123)" fill="#040505"/>
    <path id="Trazado_19538" data-name="Trazado 19538" d="M612.81,2005.642v.721a2.877,2.877,0,0,1-.469,1.652,5.736,5.736,0,0,1-1.608,1.444,5.922,5.922,0,0,0-1.449,1.192,1.78,1.78,0,0,0-.3,1.045,1.122,1.122,0,0,0,.459.918,2.243,2.243,0,0,0,1.4.362,6.282,6.282,0,0,0,1.783-.284q.948-.285,1.961-.694l1.075,2.158a10.666,10.666,0,0,1-2.335.884,9.639,9.639,0,0,1-2.42.337,6.2,6.2,0,0,1-3.643-.941,3.015,3.015,0,0,1-1.323-2.594,3.224,3.224,0,0,1,.512-1.825,7.526,7.526,0,0,1,2.018-1.8,6.308,6.308,0,0,0,1.282-1.046,1.522,1.522,0,0,0,.279-.957v-.575Zm.338-3.341a1.564,1.564,0,0,1-.475,1.24,2.014,2.014,0,0,1-1.38.42,1.962,1.962,0,0,1-1.356-.43,1.8,1.8,0,0,1,.011-2.456,1.955,1.955,0,0,1,1.345-.433,2,2,0,0,1,1.37.429,1.558,1.558,0,0,1,.485,1.23" transform="translate(-123)" fill="#040505"/>
    <path id="Trazado_19539" data-name="Trazado 19539" d="M631.524,2004.4a8.461,8.461,0,0,1-.965,4.225,5.725,5.725,0,0,1-2.831,2.495l3.711,3.838h-4.185l-2.826-3.2h-.242a7.736,7.736,0,0,1-5.434-12.818,7.435,7.435,0,0,1,5.455-1.88,7.326,7.326,0,0,1,5.435,1.9,7.4,7.4,0,0,1,1.882,5.448m-11.249,0a5.637,5.637,0,0,0,.98,3.6,3.548,3.548,0,0,0,2.931,1.21q3.912,0,3.911-4.815t-3.89-4.823a3.57,3.57,0,0,0-2.942,1.216,5.613,5.613,0,0,0-.99,3.607" transform="translate(-123)" fill="#040505"/>
    <path id="Trazado_19540" data-name="Trazado 19540" d="M642.815,2011.559l-.432-1.4h-.169a3.328,3.328,0,0,1-1.465,1.176,5.339,5.339,0,0,1-2.162.415,4.307,4.307,0,0,1-3.13-1.03,3.953,3.953,0,0,1-1.055-2.964v-7.119h3.216v6.378a2.885,2.885,0,0,0,.453,1.771,1.706,1.706,0,0,0,1.444.591,2.235,2.235,0,0,0,1.951-.835,4.858,4.858,0,0,0,.6-2.768v-5.137h3.216v10.918Z" transform="translate(-123)" fill="#040505"/>
    <path id="Trazado_19541" data-name="Trazado 19541" d="M653.991,2011.754a6.38,6.38,0,0,1-4.45-1.455,5.281,5.281,0,0,1-1.6-4.121,5.781,5.781,0,0,1,1.481-4.243,5.5,5.5,0,0,1,4.1-1.5,5.436,5.436,0,0,1,3.89,1.318,4.778,4.778,0,0,1,1.391,3.642v1.446h-7.6a2.753,2.753,0,0,0,.812,1.983,2.991,2.991,0,0,0,2.129.713,9.561,9.561,0,0,0,2.014-.2,10.568,10.568,0,0,0,1.982-.655v2.305a7.872,7.872,0,0,1-1.8.58,12.147,12.147,0,0,1-2.34.191m-.454-9.2a2.122,2.122,0,0,0-1.6.6,2.658,2.658,0,0,0-.664,1.7h4.513a2.375,2.375,0,0,0-.623-1.7,2.194,2.194,0,0,0-1.624-.6m-1.855-3.116v-.263a27.862,27.862,0,0,0,2.478-2.939h3.605v.2q-.547.508-1.871,1.509t-2.071,1.488Z" transform="translate(-123)" fill="#040505"/>
    <path id="Trazado_19542" data-name="Trazado 19542" d="M670.755,2011.754a3.938,3.938,0,0,1-3.263-1.493,7.839,7.839,0,0,1,.021-8.325,4.038,4.038,0,0,1,3.326-1.5,3.947,3.947,0,0,1,3.4,1.6h.1a11.346,11.346,0,0,1-.242-2.177v-3.5h3.226v15.2h-2.467l-.622-1.416H674.1a3.766,3.766,0,0,1-3.342,1.61m1.128-2.373a2.276,2.276,0,0,0,1.809-.663,3.668,3.668,0,0,0,.627-2.257v-.321a4.214,4.214,0,0,0-.585-2.521,2.251,2.251,0,0,0-1.9-.761,1.929,1.929,0,0,0-1.671.844,4.247,4.247,0,0,0-.595,2.456,4.026,4.026,0,0,0,.6,2.417,2.018,2.018,0,0,0,1.719.806" transform="translate(-123)" fill="#040505"/>
    <path id="Trazado_19543" data-name="Trazado 19543" d="M680.549,1997.818q0-1.453,1.75-1.455t1.75,1.455a1.361,1.361,0,0,1-.438,1.079,1.932,1.932,0,0,1-1.312.386q-1.749,0-1.75-1.465m3.352,13.741h-3.215v-10.918H683.9Z" transform="translate(-123)" fill="#040505"/>
    <path id="Trazado_19544" data-name="Trazado 19544" d="M693.791,2002.877h-2.783v8.683h-3.216v-8.683H686.02v-1.436l1.772-.8v-.8a3.427,3.427,0,0,1,.991-2.726,4.79,4.79,0,0,1,3.173-.858,8.829,8.829,0,0,1,2.963.459l-.822,2.186a6.5,6.5,0,0,0-1.792-.283,1.207,1.207,0,0,0-.992.376,1.475,1.475,0,0,0-.3.962v.685h2.783Z" transform="translate(-123)" fill="#040505"/>
    <path id="Trazado_19545" data-name="Trazado 19545" d="M700.97,2011.754a6.372,6.372,0,0,1-4.449-1.455,5.284,5.284,0,0,1-1.6-4.121,5.78,5.78,0,0,1,1.482-4.242,5.5,5.5,0,0,1,4.1-1.5,5.43,5.43,0,0,1,3.89,1.317,4.778,4.778,0,0,1,1.392,3.643v1.445h-7.6a2.753,2.753,0,0,0,.812,1.983,2.991,2.991,0,0,0,2.13.712,9.5,9.5,0,0,0,2.013-.2,10.476,10.476,0,0,0,1.983-.654v2.305a7.954,7.954,0,0,1-1.8.581,12.245,12.245,0,0,1-2.341.19m-.453-9.2a2.12,2.12,0,0,0-1.6.6,2.669,2.669,0,0,0-.665,1.7h4.513a2.375,2.375,0,0,0-.622-1.7,2.19,2.19,0,0,0-1.623-.6" transform="translate(-123)" fill="#040505"/>
    <path id="Trazado_19546" data-name="Trazado 19546" d="M714.971,2000.436a5.546,5.546,0,0,1,1.086.088l-.243,2.793a3.91,3.91,0,0,0-.948-.1,3.58,3.58,0,0,0-2.4.733,2.546,2.546,0,0,0-.859,2.05v5.557h-3.216v-10.918h2.435l.475,1.836h.158a4.239,4.239,0,0,1,1.482-1.479,3.854,3.854,0,0,1,2.029-.562" transform="translate(-123)" fill="#040505"/>
    <path id="Trazado_19547" data-name="Trazado 19547" d="M723.532,2011.754a6.372,6.372,0,0,1-4.449-1.455,5.284,5.284,0,0,1-1.6-4.121,5.78,5.78,0,0,1,1.482-4.242,5.5,5.5,0,0,1,4.1-1.5,5.43,5.43,0,0,1,3.89,1.317,4.778,4.778,0,0,1,1.392,3.643v1.445h-7.6a2.753,2.753,0,0,0,.812,1.983,2.991,2.991,0,0,0,2.13.712,9.5,9.5,0,0,0,2.013-.2,10.476,10.476,0,0,0,1.983-.654v2.305a7.955,7.955,0,0,1-1.8.581,12.245,12.245,0,0,1-2.341.19m-.453-9.2a2.119,2.119,0,0,0-1.6.6,2.669,2.669,0,0,0-.665,1.7h4.513a2.375,2.375,0,0,0-.622-1.7,2.19,2.19,0,0,0-1.623-.6" transform="translate(-123)" fill="#040505"/>
    <path id="Trazado_19548" data-name="Trazado 19548" d="M741.834,2011.559h-3.215v-6.377a2.881,2.881,0,0,0-.454-1.772,1.7,1.7,0,0,0-1.444-.591,2.235,2.235,0,0,0-1.95.835,4.857,4.857,0,0,0-.6,2.768v5.137h-3.216v-10.918h2.457l.432,1.4h.179a3.337,3.337,0,0,1,1.482-1.2,5.391,5.391,0,0,1,2.144-.4,4.321,4.321,0,0,1,3.122,1.029,3.95,3.95,0,0,1,1.064,2.974Z" transform="translate(-123)" fill="#040505"/>
    <path id="Trazado_19549" data-name="Trazado 19549" d="M749.931,2011.754q-5.5,0-5.5-5.6a5.7,5.7,0,0,1,1.5-4.253,5.879,5.879,0,0,1,4.291-1.468,8.723,8.723,0,0,1,3.669.742l-.948,2.3q-.759-.284-1.413-.463a4.867,4.867,0,0,0-1.308-.181q-2.51,0-2.509,3.3,0,3.2,2.509,3.2a6.075,6.075,0,0,0,1.719-.231,6.443,6.443,0,0,0,1.582-.716v2.547a5.413,5.413,0,0,1-1.576.635,9.563,9.563,0,0,1-2.009.176" transform="translate(-123)" fill="#040505"/>
    <path id="Trazado_19550" data-name="Trazado 19550" d="M756.109,1997.818q0-1.453,1.75-1.455t1.75,1.455a1.36,1.36,0,0,1-.437,1.079,1.935,1.935,0,0,1-1.313.386q-1.749,0-1.75-1.465m3.353,13.741h-3.215v-10.918h3.215Z" transform="translate(-123)" fill="#040505"/>
    <path id="Trazado_19551" data-name="Trazado 19551" d="M770.321,2011.56l-.622-1.486h-.084a4.676,4.676,0,0,1-1.671,1.315,5.785,5.785,0,0,1-2.24.366,3.794,3.794,0,0,1-2.673-.9,3.3,3.3,0,0,1-.975-2.557,2.814,2.814,0,0,1,1.312-2.565,8.122,8.122,0,0,1,3.959-.913l2.046-.057v-.48q0-1.657-1.835-1.66a8.929,8.929,0,0,0-3.321.791l-1.065-2.012a10.219,10.219,0,0,1,4.513-.986,5.941,5.941,0,0,1,3.637.957,3.417,3.417,0,0,1,1.265,2.91v7.277Zm-.948-5.06-1.244.039a4.237,4.237,0,0,0-2.088.47,1.436,1.436,0,0,0-.686,1.307q0,1.26,1.561,1.26a2.58,2.58,0,0,0,1.787-.6,2.013,2.013,0,0,0,.67-1.582Z" transform="translate(-123)" fill="#040505"/>
    <path id="Trazado_19552" data-name="Trazado 19552" d="M792.366,2011.559h-3.215v-6.377q0-2.362-1.9-2.363a2.223,2.223,0,0,0-1.95.849,4.874,4.874,0,0,0-.6,2.754v5.137h-3.216v-15.195H784.7v3.095q0,.363-.074,1.7l-.074.879h.168a3.82,3.82,0,0,1,3.416-1.6,4.376,4.376,0,0,1,3.153,1.034,3.931,3.931,0,0,1,1.075,2.969Z" transform="translate(-123)" fill="#040505"/>
    <path id="Trazado_19553" data-name="Trazado 19553" d="M803.163,2011.56l-.622-1.486h-.085a4.668,4.668,0,0,1-1.671,1.315,5.778,5.778,0,0,1-2.24.366,3.8,3.8,0,0,1-2.673-.9,3.3,3.3,0,0,1-.974-2.557,2.814,2.814,0,0,1,1.312-2.565,8.119,8.119,0,0,1,3.959-.913l2.045-.057v-.48q0-1.657-1.834-1.66a8.92,8.92,0,0,0-3.321.791l-1.066-2.012a10.222,10.222,0,0,1,4.513-.986,5.945,5.945,0,0,1,3.638.957,3.419,3.419,0,0,1,1.264,2.91v7.277Zm-.949-5.06-1.244.039a4.232,4.232,0,0,0-2.087.47,1.436,1.436,0,0,0-.686,1.307q0,1.26,1.561,1.26a2.583,2.583,0,0,0,1.787-.6,2.015,2.015,0,0,0,.669-1.582Z" transform="translate(-123)" fill="#040505"/>
    <path id="Trazado_19554" data-name="Trazado 19554" d="M813.505,2011.754q-5.5,0-5.5-5.6a5.7,5.7,0,0,1,1.5-4.253,5.879,5.879,0,0,1,4.291-1.468,8.729,8.729,0,0,1,3.669.742l-.949,2.3q-.759-.284-1.412-.463a4.878,4.878,0,0,0-1.308-.181q-2.509,0-2.51,3.3,0,3.2,2.51,3.2a6.079,6.079,0,0,0,1.719-.231,6.454,6.454,0,0,0,1.581-.716v2.547a5.414,5.414,0,0,1-1.576.635,9.556,9.556,0,0,1-2.009.176" transform="translate(-123)" fill="#040505"/>
    <path id="Trazado_19555" data-name="Trazado 19555" d="M825.155,2011.754a6.373,6.373,0,0,1-4.449-1.455,5.284,5.284,0,0,1-1.6-4.121,5.78,5.78,0,0,1,1.482-4.242,5.5,5.5,0,0,1,4.1-1.5,5.43,5.43,0,0,1,3.89,1.317,4.778,4.778,0,0,1,1.392,3.643v1.445h-7.6a2.753,2.753,0,0,0,.812,1.983,2.991,2.991,0,0,0,2.13.712,9.5,9.5,0,0,0,2.013-.2,10.476,10.476,0,0,0,1.983-.654v2.305a7.954,7.954,0,0,1-1.8.581,12.244,12.244,0,0,1-2.341.19m-.453-9.2a2.12,2.12,0,0,0-1.6.6,2.669,2.669,0,0,0-.665,1.7h4.513a2.375,2.375,0,0,0-.622-1.7,2.19,2.19,0,0,0-1.623-.6" transform="translate(-123)" fill="#040505"/>
    <path id="Trazado_19556" data-name="Trazado 19556" d="M838.049,1997.818q0-1.453,1.75-1.455t1.75,1.455a1.361,1.361,0,0,1-.438,1.079,1.932,1.932,0,0,1-1.312.386q-1.749,0-1.75-1.465m3.352,13.741h-3.215v-10.918H841.4Z" transform="translate(-123)" fill="#040505"/>
    <path id="Trazado_19557" data-name="Trazado 19557" d="M855.655,2011.559H852.44v-6.377a2.881,2.881,0,0,0-.454-1.772,1.7,1.7,0,0,0-1.444-.591,2.236,2.236,0,0,0-1.95.835,4.857,4.857,0,0,0-.6,2.768v5.137h-3.216v-10.918h2.457l.432,1.4h.179a3.337,3.337,0,0,1,1.482-1.2,5.391,5.391,0,0,1,2.144-.4,4.321,4.321,0,0,1,3.122,1.029,3.95,3.95,0,0,1,1.064,2.974Z" transform="translate(-123)" fill="#040505"/>
    <path id="Trazado_19558" data-name="Trazado 19558" d="M861.77,2011.559l-4.491-10.918h3.363l2.277,6.221a10.382,10.382,0,0,1,.475,2.236h.063a9.191,9.191,0,0,1,.474-2.236l2.268-6.221h3.362l-4.491,10.918Z" transform="translate(-123)" fill="#040505"/>
    <path id="Trazado_19559" data-name="Trazado 19559" d="M876.583,2011.754a6.373,6.373,0,0,1-4.449-1.455,5.284,5.284,0,0,1-1.6-4.121,5.78,5.78,0,0,1,1.482-4.242,5.5,5.5,0,0,1,4.1-1.5,5.43,5.43,0,0,1,3.89,1.317,4.778,4.778,0,0,1,1.392,3.643v1.445h-7.6a2.75,2.75,0,0,0,.813,1.983,2.99,2.99,0,0,0,2.129.712,9.489,9.489,0,0,0,2.013-.2,10.452,10.452,0,0,0,1.983-.654v2.305a7.938,7.938,0,0,1-1.8.581,12.245,12.245,0,0,1-2.341.19m-.453-9.2a2.123,2.123,0,0,0-1.6.6,2.664,2.664,0,0,0-.664,1.7h4.513a2.379,2.379,0,0,0-.622-1.7,2.194,2.194,0,0,0-1.624-.6" transform="translate(-123)" fill="#040505"/>
    <path id="Trazado_19560" data-name="Trazado 19560" d="M892.228,2008.316a2.925,2.925,0,0,1-1.26,2.56,6.6,6.6,0,0,1-3.768.879,12.7,12.7,0,0,1-2.194-.162,8.791,8.791,0,0,1-1.7-.473v-2.461a11.82,11.82,0,0,0,2.019.654,8.781,8.781,0,0,0,1.977.264q1.749,0,1.75-.938a.749.749,0,0,0-.232-.571,3.37,3.37,0,0,0-.8-.5q-.57-.279-1.519-.649a9.842,9.842,0,0,1-2-.977,2.82,2.82,0,0,1-.927-1.03,3.18,3.18,0,0,1-.29-1.432,2.541,2.541,0,0,1,1.217-2.251,6.317,6.317,0,0,1,3.453-.795,10.444,10.444,0,0,1,4.144.86l-.97,2.148q-.887-.351-1.655-.576a5.576,5.576,0,0,0-1.571-.225q-1.424,0-1.423.712a.829.829,0,0,0,.458.694,12.809,12.809,0,0,0,2.009.87,9.589,9.589,0,0,1,2.024.966,2.927,2.927,0,0,1,.948,1.036,2.976,2.976,0,0,1,.306,1.4" transform="translate(-123)" fill="#040505"/>
    <path id="Trazado_19561" data-name="Trazado 19561" d="M899.7,2009.381a7.427,7.427,0,0,0,2.024-.342v2.217a7.719,7.719,0,0,1-2.952.5,3.788,3.788,0,0,1-2.809-.9,3.744,3.744,0,0,1-.88-2.71v-5.265h-1.539v-1.26l1.77-1,.928-2.3H898.3v2.325h3.3v2.235h-3.3v5.265a1.119,1.119,0,0,0,.384.936,1.6,1.6,0,0,0,1.017.3" transform="translate(-123)" fill="#040505"/>
    <path id="Trazado_19562" data-name="Trazado 19562" d="M903.973,1997.818q0-1.453,1.75-1.455t1.75,1.455a1.36,1.36,0,0,1-.437,1.079,1.938,1.938,0,0,1-1.313.386q-1.75,0-1.75-1.465m3.353,13.741H904.11v-10.918h3.216Z" transform="translate(-123)" fill="#040505"/>
    <path id="Trazado_19563" data-name="Trazado 19563" d="M920.958,2000.642v1.512l-1.845.441a2.816,2.816,0,0,1,.506,1.64,3.223,3.223,0,0,1-1.323,2.74,6.066,6.066,0,0,1-3.674.98l-.58-.028-.475-.05a.978.978,0,0,0-.495.781q0,.645,1.77.646h2a4.841,4.841,0,0,1,2.957.77,2.671,2.671,0,0,1,1.018,2.266,3.31,3.31,0,0,1-1.724,2.97,9.556,9.556,0,0,1-4.95,1.053,7.291,7.291,0,0,1-3.769-.8,2.487,2.487,0,0,1-1.3-2.232,2.238,2.238,0,0,1,.664-1.649,3.874,3.874,0,0,1,1.95-.949,2.121,2.121,0,0,1-.864-.638,1.485,1.485,0,0,1,.021-1.984,4.467,4.467,0,0,1,1.128-.814,3.1,3.1,0,0,1-1.47-1.192,3.415,3.415,0,0,1-.543-1.933,3.3,3.3,0,0,1,1.255-2.765,5.728,5.728,0,0,1,3.583-.975,9.545,9.545,0,0,1,1.176.083c.453.054.743.094.87.122Zm-9.1,12.461a1.072,1.072,0,0,0,.638.966,3.738,3.738,0,0,0,1.787.351,6.78,6.78,0,0,0,2.71-.439q.979-.439.98-1.2a.846.846,0,0,0-.58-.848,5.068,5.068,0,0,0-1.792-.236h-1.666a2.661,2.661,0,0,0-1.481.386,1.169,1.169,0,0,0-.6,1.022m1.17-8.888a2.1,2.1,0,0,0,.438,1.406,1.645,1.645,0,0,0,1.333.519,1.612,1.612,0,0,0,1.329-.519,2.157,2.157,0,0,0,.421-1.406q0-1.972-1.75-1.973-1.77,0-1.771,1.973" transform="translate(-123)" fill="#040505"/>
    <path id="Trazado_19564" data-name="Trazado 19564" d="M930.383,2011.56l-.622-1.486h-.085a4.668,4.668,0,0,1-1.671,1.315,5.778,5.778,0,0,1-2.24.366,3.8,3.8,0,0,1-2.673-.9,3.3,3.3,0,0,1-.974-2.557,2.814,2.814,0,0,1,1.312-2.565,8.119,8.119,0,0,1,3.959-.913l2.045-.057v-.48q0-1.657-1.834-1.66a8.92,8.92,0,0,0-3.321.791l-1.066-2.012a10.222,10.222,0,0,1,4.513-.986,5.945,5.945,0,0,1,3.638.957,3.419,3.419,0,0,1,1.264,2.91v7.277Zm-.949-5.06-1.244.039a4.232,4.232,0,0,0-2.087.47,1.436,1.436,0,0,0-.686,1.307q0,1.26,1.561,1.26a2.583,2.583,0,0,0,1.787-.6,2.015,2.015,0,0,0,.669-1.582Z" transform="translate(-123)" fill="#040505"/>
    <path id="Trazado_19565" data-name="Trazado 19565" d="M942.518,2000.436a5.546,5.546,0,0,1,1.086.088l-.243,2.793a3.91,3.91,0,0,0-.948-.1,3.58,3.58,0,0,0-2.4.733,2.546,2.546,0,0,0-.859,2.05v5.557h-3.216v-10.918h2.435l.475,1.836h.158a4.239,4.239,0,0,1,1.482-1.479,3.854,3.854,0,0,1,2.029-.562" transform="translate(-123)" fill="#040505"/>
    <path id="Trazado_19566" data-name="Trazado 19566" d="M959.576,2008.316a2.925,2.925,0,0,1-1.26,2.56,6.6,6.6,0,0,1-3.768.879,12.7,12.7,0,0,1-2.194-.162,8.793,8.793,0,0,1-1.7-.473v-2.461a11.821,11.821,0,0,0,2.019.654,8.78,8.78,0,0,0,1.977.264q1.749,0,1.75-.938a.749.749,0,0,0-.232-.571,3.372,3.372,0,0,0-.8-.5q-.57-.279-1.519-.649a9.84,9.84,0,0,1-2-.977,2.82,2.82,0,0,1-.927-1.03,3.18,3.18,0,0,1-.29-1.432,2.541,2.541,0,0,1,1.217-2.251,6.317,6.317,0,0,1,3.453-.795,10.444,10.444,0,0,1,4.144.86l-.97,2.148q-.887-.351-1.655-.576a5.576,5.576,0,0,0-1.571-.225q-1.424,0-1.423.712a.828.828,0,0,0,.458.694,12.8,12.8,0,0,0,2.009.87,9.588,9.588,0,0,1,2.024.966,2.929,2.929,0,0,1,.948,1.036,2.976,2.976,0,0,1,.306,1.4" transform="translate(-123)" fill="#040505"/>
    <path id="Trazado_19567" data-name="Trazado 19567" d="M972.8,2006.08a5.609,5.609,0,0,1-1.517,4.171,5.748,5.748,0,0,1-4.229,1.5,6.291,6.291,0,0,1-2.994-.69,4.75,4.75,0,0,1-1.992-1.976,6.238,6.238,0,0,1-.7-3.009,5.571,5.571,0,0,1,1.508-4.159,5.783,5.783,0,0,1,4.238-1.485,6.319,6.319,0,0,1,2.994.683,4.725,4.725,0,0,1,1.993,1.964,6.175,6.175,0,0,1,.7,3m-8.149,0a4.308,4.308,0,0,0,.574,2.451,2.111,2.111,0,0,0,1.872.83,2.075,2.075,0,0,0,1.85-.825,4.368,4.368,0,0,0,.564-2.456,4.24,4.24,0,0,0-.569-2.432,2.549,2.549,0,0,0-3.722,0,4.235,4.235,0,0,0-.569,2.436" transform="translate(-123)" fill="#040505"/>
    <path id="Trazado_19568" data-name="Trazado 19568" d="M982.011,2000.436a3.915,3.915,0,0,1,3.268,1.509,6.55,6.55,0,0,1,1.181,4.136,6.44,6.44,0,0,1-1.217,4.189,4.471,4.471,0,0,1-6.575.087h-.22l-.538,1.2h-2.456v-15.195h3.214v3.534q0,.675-.126,2.159h.126a3.808,3.808,0,0,1,3.343-1.621m-1.033,2.382a2.107,2.107,0,0,0-1.74.68,3.681,3.681,0,0,0-.57,2.241v.322a4.327,4.327,0,0,0,.565,2.52,2.076,2.076,0,0,0,1.787.761,1.825,1.825,0,0,0,1.576-.844,4.3,4.3,0,0,0,.585-2.456,4.074,4.074,0,0,0-.591-2.417,1.891,1.891,0,0,0-1.612-.807" transform="translate(-123)" fill="#040505"/>
    <path id="Trazado_19569" data-name="Trazado 19569" d="M995.7,2000.436a5.545,5.545,0,0,1,1.086.088l-.243,2.793a3.91,3.91,0,0,0-.948-.1,3.58,3.58,0,0,0-2.4.733,2.546,2.546,0,0,0-.859,2.05v5.557h-3.216v-10.918h2.435l.475,1.836h.158a4.239,4.239,0,0,1,1.482-1.479,3.855,3.855,0,0,1,2.029-.562" transform="translate(-123)" fill="#040505"/>
    <path id="Trazado_19570" data-name="Trazado 19570" d="M1004.256,2011.754a6.372,6.372,0,0,1-4.449-1.455,5.288,5.288,0,0,1-1.6-4.121,5.781,5.781,0,0,1,1.483-4.242,5.5,5.5,0,0,1,4.095-1.5,5.429,5.429,0,0,1,3.89,1.317,4.775,4.775,0,0,1,1.393,3.643v1.445h-7.6a2.749,2.749,0,0,0,.811,1.983,2.993,2.993,0,0,0,2.13.712,9.489,9.489,0,0,0,2.013-.2,10.484,10.484,0,0,0,1.984-.654v2.305a7.946,7.946,0,0,1-1.8.581,12.238,12.238,0,0,1-2.341.19m-.452-9.2a2.117,2.117,0,0,0-1.6.6,2.664,2.664,0,0,0-.665,1.7h4.513a2.383,2.383,0,0,0-.622-1.7,2.193,2.193,0,0,0-1.623-.6" transform="translate(-123)" fill="#040505"/>
    <path id="Trazado_19571" data-name="Trazado 19571" d="M1022.622,2011.754a6.373,6.373,0,0,1-4.449-1.455,5.284,5.284,0,0,1-1.6-4.121,5.78,5.78,0,0,1,1.482-4.242,5.5,5.5,0,0,1,4.1-1.5,5.43,5.43,0,0,1,3.89,1.317,4.778,4.778,0,0,1,1.392,3.643v1.445h-7.6a2.75,2.75,0,0,0,.813,1.983,2.99,2.99,0,0,0,2.129.712,9.488,9.488,0,0,0,2.013-.2,10.451,10.451,0,0,0,1.983-.654v2.305a7.938,7.938,0,0,1-1.8.581,12.245,12.245,0,0,1-2.341.19m-.453-9.2a2.123,2.123,0,0,0-1.6.6,2.664,2.664,0,0,0-.664,1.7h4.513a2.379,2.379,0,0,0-.622-1.7,2.194,2.194,0,0,0-1.624-.6" transform="translate(-123)" fill="#040505"/>
    <path id="Trazado_19572" data-name="Trazado 19572" d="M1038.267,2008.316a2.925,2.925,0,0,1-1.26,2.56,6.6,6.6,0,0,1-3.768.879,12.7,12.7,0,0,1-2.194-.162,8.791,8.791,0,0,1-1.7-.473v-2.461a11.823,11.823,0,0,0,2.019.654,8.781,8.781,0,0,0,1.977.264q1.749,0,1.75-.938a.749.749,0,0,0-.232-.571,3.374,3.374,0,0,0-.8-.5q-.57-.279-1.519-.649a9.843,9.843,0,0,1-2-.977,2.821,2.821,0,0,1-.927-1.03,3.18,3.18,0,0,1-.29-1.432,2.541,2.541,0,0,1,1.217-2.251,6.318,6.318,0,0,1,3.453-.795,10.444,10.444,0,0,1,4.144.86l-.97,2.148q-.887-.351-1.655-.576a5.576,5.576,0,0,0-1.571-.225q-1.423,0-1.423.712a.828.828,0,0,0,.458.694,12.806,12.806,0,0,0,2.009.87,9.585,9.585,0,0,1,2.024.966,2.928,2.928,0,0,1,.948,1.036,2.976,2.976,0,0,1,.306,1.4" transform="translate(-123)" fill="#040505"/>
    <path id="Trazado_19573" data-name="Trazado 19573" d="M1045.742,2009.381a7.427,7.427,0,0,0,2.024-.342v2.217a7.719,7.719,0,0,1-2.952.5,3.788,3.788,0,0,1-2.809-.9,3.743,3.743,0,0,1-.88-2.71v-5.265h-1.539v-1.26l1.77-1,.928-2.3h2.057v2.325h3.3v2.235h-3.3v5.265a1.119,1.119,0,0,0,.384.936,1.6,1.6,0,0,0,1.017.3" transform="translate(-123)" fill="#040505"/>
    <path id="Trazado_19574" data-name="Trazado 19574" d="M1055.484,2011.754a6.372,6.372,0,0,1-4.449-1.455,5.284,5.284,0,0,1-1.6-4.121,5.781,5.781,0,0,1,1.482-4.242,5.5,5.5,0,0,1,4.1-1.5,5.43,5.43,0,0,1,3.89,1.317,4.778,4.778,0,0,1,1.392,3.643v1.445h-7.6a2.753,2.753,0,0,0,.812,1.983,2.991,2.991,0,0,0,2.13.712,9.5,9.5,0,0,0,2.013-.2,10.479,10.479,0,0,0,1.983-.654v2.305a7.956,7.956,0,0,1-1.8.581,12.244,12.244,0,0,1-2.341.19m-.453-9.2a2.12,2.12,0,0,0-1.6.6,2.669,2.669,0,0,0-.665,1.7h4.513a2.375,2.375,0,0,0-.622-1.7,2.19,2.19,0,0,0-1.623-.6" transform="translate(-123)" fill="#040505"/>
    <path id="Trazado_19575" data-name="Trazado 19575" d="M1073.48,2009.381a7.427,7.427,0,0,0,2.024-.342v2.217a7.719,7.719,0,0,1-2.952.5,3.788,3.788,0,0,1-2.809-.9,3.743,3.743,0,0,1-.88-2.71v-5.265h-1.539v-1.26l1.77-1,.928-2.3h2.057v2.325h3.3v2.235h-3.3v5.265a1.119,1.119,0,0,0,.384.936,1.6,1.6,0,0,0,1.017.3" transform="translate(-123)" fill="#040505"/>
    <path id="Trazado_19576" data-name="Trazado 19576" d="M1083.222,2011.754a6.373,6.373,0,0,1-4.449-1.455,5.284,5.284,0,0,1-1.6-4.121,5.781,5.781,0,0,1,1.482-4.242,5.5,5.5,0,0,1,4.1-1.5,5.43,5.43,0,0,1,3.89,1.317,4.777,4.777,0,0,1,1.392,3.643v1.445h-7.6a2.753,2.753,0,0,0,.812,1.983,2.991,2.991,0,0,0,2.13.712,9.5,9.5,0,0,0,2.013-.2,10.475,10.475,0,0,0,1.983-.654v2.305a7.953,7.953,0,0,1-1.8.581,12.245,12.245,0,0,1-2.341.19m-.453-9.2a2.12,2.12,0,0,0-1.6.6,2.669,2.669,0,0,0-.665,1.7h4.513a2.375,2.375,0,0,0-.622-1.7,2.19,2.19,0,0,0-1.623-.6" transform="translate(-123)" fill="#040505"/>
    <path id="Trazado_19577" data-name="Trazado 19577" d="M1101.2,2011.559h-3.216v-6.377a3.019,3.019,0,0,0-.427-1.772,1.546,1.546,0,0,0-1.344-.591,1.993,1.993,0,0,0-1.792.84,5.157,5.157,0,0,0-.559,2.763v5.137h-3.216v-10.918h2.457l.432,1.4h.18a3.185,3.185,0,0,1,1.37-1.177,4.747,4.747,0,0,1,2.055-.424q2.648,0,3.585,1.6h.285a3.106,3.106,0,0,1,1.4-1.182,4.971,4.971,0,0,1,2.082-.419,4.312,4.312,0,0,1,3.031.951,3.985,3.985,0,0,1,1.029,3.052v7.119h-3.227v-6.377a3.026,3.026,0,0,0-.427-1.772,1.546,1.546,0,0,0-1.344-.591,2.066,2.066,0,0,0-1.766.781,4.173,4.173,0,0,0-.585,2.48Z" transform="translate(-123)" fill="#040505"/>
    <path id="Trazado_19578" data-name="Trazado 19578" d="M1119.332,2011.56l-.623-1.486h-.084a4.679,4.679,0,0,1-1.672,1.315,5.773,5.773,0,0,1-2.239.366,3.8,3.8,0,0,1-2.673-.9,3.3,3.3,0,0,1-.974-2.557,2.814,2.814,0,0,1,1.312-2.565,8.119,8.119,0,0,1,3.959-.913l2.045-.057v-.48q0-1.657-1.835-1.66a8.92,8.92,0,0,0-3.32.791l-1.067-2.012a10.23,10.23,0,0,1,4.514-.986,5.947,5.947,0,0,1,3.638.957,3.419,3.419,0,0,1,1.264,2.91v7.277Zm-.949-5.06-1.244.039a4.23,4.23,0,0,0-2.087.47,1.435,1.435,0,0,0-.687,1.307q0,1.26,1.562,1.26a2.585,2.585,0,0,0,1.787-.6,2.019,2.019,0,0,0,.669-1.582Z" transform="translate(-123)" fill="#040505"/>
    <path id="Trazado_19579" data-name="Trazado 19579" d="M1126.11,2006.822v-.721a3.013,3.013,0,0,1,.433-1.631,5.479,5.479,0,0,1,1.581-1.476,6.541,6.541,0,0,0,1.461-1.19,1.645,1.645,0,0,0,.352-1.027,1.082,1.082,0,0,0-.506-.966,2.563,2.563,0,0,0-1.413-.332,8.62,8.62,0,0,0-3.6.957l-1.149-2.138a10.659,10.659,0,0,1,4.987-1.222,5.592,5.592,0,0,1,3.453.968,3.07,3.07,0,0,1,1.28,2.578,3.246,3.246,0,0,1-.526,1.855,7.287,7.287,0,0,1-2,1.757,6.016,6.016,0,0,0-1.281,1.056,1.547,1.547,0,0,0-.269.946v.586Zm-.337,3.34a1.563,1.563,0,0,1,.475-1.239,2.014,2.014,0,0,1,1.38-.42,1.959,1.959,0,0,1,1.355.43,1.791,1.791,0,0,1-.005,2.446,1.924,1.924,0,0,1-1.35.443,1.988,1.988,0,0,1-1.37-.433,1.562,1.562,0,0,1-.485-1.227" transform="translate(-123)" fill="#040505"/>
    <path id="Trazado_19580" data-name="Trazado 19580" d="M1172.9,2034.7q1.959-9.045,8.193-12.543t16.231-1.332q9.651,2.089,13.915,7.974t2.35,14.715q-1.844,8.508-8.25,12.249t-15.943,1.677q-9.766-2.116-14.075-8.067T1172.9,2034.7m11.7-36.022,1.727-7.969a34.064,34.064,0,0,1,8.66-16.952q6.422-6.61,20.96-12.483,13.958-5.433,18.946-9.651a18.494,18.494,0,0,0,6.344-10.464,12.236,12.236,0,0,0-3.272-11.869q-4.787-4.867-14.784-7.035-17.439-3.777-42.046,1.943l-7.563-26.329a120.411,120.411,0,0,1,57.9-1.551q23.947,5.187,35.766,18.908t7.965,31.487q-2.565,11.847-10.242,19.2t-26.286,14.6q-12.819,5.229-16.645,8.57t-5.227,9.8l-1.4,6.461Z" transform="translate(-123)" fill="#0f68a1"/>
    <path id="Trazado_19581" data-name="Trazado 19581" d="M538.517,1916.987q-1.959,9.046-8.193,12.543t-16.23,1.332q-9.651-2.09-13.914-7.973t-2.352-14.715q1.844-8.508,8.25-12.249t15.944-1.677q9.765,2.115,14.075,8.066t2.42,14.673m-11.694,36.022-1.728,7.97a34.064,34.064,0,0,1-8.66,16.951q-6.422,6.61-20.961,12.483-13.955,5.432-18.945,9.651a18.5,18.5,0,0,0-6.344,10.463,12.242,12.242,0,0,0,3.271,11.87q4.787,4.869,14.785,7.036,17.438,3.774,42.045-1.944l7.564,26.328a120.388,120.388,0,0,1-57.9,1.551q-23.952-5.187-35.767-18.907t-7.966-31.486q2.564-11.85,10.242-19.2t26.286-14.6q12.817-5.227,16.645-8.569t5.227-9.805l1.4-6.462Z" transform="translate(-123)" fill="#0f68a1"/>
  </g>
</svg>
