<svg xmlns="http://www.w3.org/2000/svg" xmlns:xlink="http://www.w3.org/1999/xlink" width="491.011" height="568.494" viewBox="0 0 491.011 568.494">
  <defs>
    <clipPath id="clip-path">
      <path id="Trazado_19875" data-name="Trazado 19875" d="M1132.959,6049.135q.21,1.268,1.481,7.416a69.046,69.046,0,0,1,1.271,7.891q.585,9.321-5.085,14.351a36.814,36.814,0,0,0-10.168,8.58,41.886,41.886,0,0,0-6.993,11.439,2.992,2.992,0,0,1-3.228,2.437,8.749,8.749,0,0,1-4.237-1.378q-18.591-9.636-44.542-10.644a45.3,45.3,0,0,1-15.413-2.912,30.466,30.466,0,0,1-12.764-8.793,34.866,34.866,0,0,0-8-19.437q-1.428,1.113-3.705,7.152a10.185,10.185,0,0,1-.742,1.641q3.6,3.125,7.256,10.434-.9,2.221-6.94-.8a27.166,27.166,0,0,1-10.167-8.58,26.7,26.7,0,0,1-2.543-2.859q-1.908-2.436-2.49-2.6c-.635-.139-.971.882-1.005,3.072a10.381,10.381,0,0,1,1.325,6.886,27.965,27.965,0,0,1-2.383,6.727,63.116,63.116,0,0,0-2.862,6.776,12.247,12.247,0,0,0-.37,4.873,25.071,25.071,0,0,1,5.136.266,60.634,60.634,0,0,1,6.357,1.218,20.484,20.484,0,0,1,4.819,1.8,5.283,5.283,0,0,1,2.543,2.913q.793,1.851,2.116,4.979l.054.213c.073.106.143.209.213.316a42.8,42.8,0,0,1,2.116,7.731q.585,3.392,1.644,10.172,2.277,12.071,10.062,16.577-1.059,2.966-5.718,6.99-5.242,4.552-6.673,6.833a5.971,5.971,0,0,0-4.081.635,6.653,6.653,0,0,0-2.752,2.65,3.905,3.905,0,0,0-.266,3.228,4.635,4.635,0,0,0,3.285,2.277q5.4,1.7,11.758-4.237,4.234-4.025,5.136-4.713a13.808,13.808,0,0,1,5.668-2.756,25.992,25.992,0,0,0,6.353-4.024q1.7-1.745,3.655-4.023.109-.106.159-.16.21-.266,1.538-1.588,1.428-1.377,5.771-1.325,6.3-5.93,8.211-11.705a19.856,19.856,0,0,1,3.758-6.886,7.827,7.827,0,0,1,3.338-2.383q-.585,1.433-3.072,6.41a31.82,31.82,0,0,0-3.019,8.581,51.243,51.243,0,0,0-.582,6.143q.583,11.438,1,15.3.264,9.062-3.971,14.355a5.689,5.689,0,0,0-4.766.952,1.408,1.408,0,0,0-.186.16,5.4,5.4,0,0,0-2.25,4.13q3.125,4.184,9.056,3.285c.1-.02.21-.036.316-.053a12.182,12.182,0,0,1,1.644-1.854,15.188,15.188,0,0,1,5.056-3.285c.13-.353.243-.725.346-1.112q4.768-3.6,7.043-11.385a87.527,87.527,0,0,1,3.97-13.031q4.4-1.218,13.56-6.513a22.17,22.17,0,0,0,5.192-8.687q2.117-5.665,4.446-11.6,2.436-5.932,6.677-7.31a38.278,38.278,0,0,0,6.776-11.012q3.229-7.893,7.681-10.172,9-5.241,11.123-16.681a33.562,33.562,0,0,0-2.386-20.232q-2.017-3.82-3.909-3.82a2.447,2.447,0,0,0-1.649.748" fill="none"/>
    </clipPath>
    <linearGradient id="linear-gradient" x1="-5.171" y1="39.107" x2="-5.165" y2="39.107" gradientUnits="objectBoundingBox">
      <stop offset="0" stop-color="#252425"/>
      <stop offset="1" stop-color="#040505"/>
    </linearGradient>
  </defs>
  <g id="Grupo_9168" data-name="Grupo 9168" transform="translate(-748.642 -5722.677)">
    <path id="Trazado_19864" data-name="Trazado 19864" d="M1351.4,5773.176l.211-16.047.265-18.961h-.027c.009-.379.016-.759.027-1.138l.026-1.907-424.491,43.058-2.224,169.161q-2.938-1.244-6.037-2.277,3.082,4.64,5.958,9.427l-.98,74.7a55.58,55.58,0,0,0-10.513-5.136l3.363-256.152,445.675-45.229q-.052,3.92-.1,7.785l-.054,4.661-6.566,498.32h.026q-.073,6.7-.185,12.5-35.274-5.349-213.65-36.279-97.008-16.821-159.23-27.488a8.475,8.475,0,0,0,5.482-4.607,10.3,10.3,0,0,0,1.06-3.708c.049-.32.093-.727.132-1.218q34.077,5.84,79.231,13.638c.073.076.152.155.238.238q9.428,3.019,24.68,4.343,1.728.155,3.337.292,21.333,3.69,44.806,7.759,169.9,29.446,203.48,34.531c.009-.607.017-1.226.026-1.853q0-.325,0-.663l.212-14.8.557-42.66.423-32.387.476-36.067.292-22.933,1.325-99.648.582-43.773.583-44.964.159-13,.608-47,.159-12.181.265-19.437.212-15.624ZM923.837,6052.1l-1.457,109.155q9.028,1.506,20.205,3.389a9.752,9.752,0,0,0-2.674,7.15c0,.23,0,.459,0,.689a8.059,8.059,0,0,0-1.589-.213,7,7,0,0,0-4.9,1.484q-3.82-.639-7.415-1.245a.7.7,0,0,0,.026-.132,8.833,8.833,0,0,0,.16-1.908,9.715,9.715,0,0,0-3.178-7.784,10.117,10.117,0,0,0-7.15-2.648,11.5,11.5,0,0,0-4.051.688l1.562-119.509a84.561,84.561,0,0,1,10.46,10.884m36.146,115.51q2.031.336,4.1.688a11.589,11.589,0,0,0,2.093,5.72,9.141,9.141,0,0,0,3.548,3.071,12.47,12.47,0,0,0,.847,1.431,10.141,10.141,0,0,0,1.616,1.827q-6.561-1.119-12.684-2.171c.109-.193.214-.4.318-.609a10.338,10.338,0,0,0,1.059-3.708,18.652,18.652,0,0,0,.158-1.906,8.526,8.526,0,0,0-1.059-4.343" transform="translate(-123)" fill="#e1e7f5" fill-rule="evenodd"/>
    <path id="Trazado_19865" data-name="Trazado 19865" d="M1351.848,5738.168l-397.8,45.415v.954l-26.64-6.355,424.491-43.059-.026,1.907c-.011.38-.019.76-.028,1.138m-254.8,452.985q20.162,1.787,21.927,1.932a55.025,55.025,0,0,0,9.8-.158q5.561-.636,6.938-5.454,11.068,1.586,12.816,1.747,7.521.318,12.5-2.067.309-.716.583-1.456,1.555.282,3.125.556,38.088,6.7,68.478,11.917a61.09,61.09,0,0,0,17.425,13.029,56.381,56.381,0,0,0,36.862,5.454q4.447-.951,13.028-5.136a24.788,24.788,0,0,0,12.5.317c.293-.077.585-.155.873-.237q22.026,3.45,31.672,4.527l-.212,14.8c0,.224,0,.445,0,.661q-.015.943-.026,1.854-33.579-5.083-203.481-34.531-23.474-4.069-44.806-7.759m-36.781-23.435a5.406,5.406,0,0,0-2.251,4.131q3.125,4.184,9.056,3.282l.318-.052a8.28,8.28,0,0,0-1.641,4.4q-.205,3.519,3.045,6.8-45.154-7.8-79.232-13.637.01-.322.026-.689a11.065,11.065,0,0,0-.874-4.662,134.515,134.515,0,0,0,15.333-1.429q1.484-.318,2.649-.582,6.3-1.537,7.2-3.019l.053-.582q0-1.737-4.052-3.1,15.141,2.782,33.366,6.065a31.77,31.77,0,0,1-3.363,1.8q-3.654,1.854-2.648,5.4a8.485,8.485,0,0,0,6.039,2.011,11.567,11.567,0,0,0,6.142-1.959,11.939,11.939,0,0,0,4.185-4.819c.083-.175.162-.352.238-.53q3.156.571,6.409,1.166m-98.51-51.136a9.725,9.725,0,0,0-2.6-1.218q2.151-.078,4.475-.079a97.028,97.028,0,0,1,16.525,1.217q6.62,1.218,6.62,2.861v.212q-.371,1.218-4.926,2.224-1.005.212-1.8.424a90.992,90.992,0,0,1-14.088,1.192c-.045-.363-.107-.716-.185-1.06a47.278,47.278,0,0,0,9.137-.98q1.27-.212,2.118-.371,2.648-.634,2.86-1.641-.213-1.008-4.926-2.066a65.922,65.922,0,0,0-11.334-.795q-.959.031-1.88.08m-16.392,5.429q-.829-.212-1.509-.424a9.311,9.311,0,0,0-2.092-2.649c-.175-.151-.35-.292-.53-.422q1.435-1.167,6.144-2.014,1.476-.267,3.1-.476a11.211,11.211,0,0,0-2.145,1.43,9.127,9.127,0,0,0-2.966,4.555m-22.986,39.244,13.348-4.422c.149.238.308.478.476.715a8.943,8.943,0,0,0,4.4,3.416,1.367,1.367,0,0,0-.583,1.033v.371q.467.847,3.258,1.668a8.5,8.5,0,0,0-.689.61q-11.177-1.882-20.206-3.391m41.708,7.044q-2.073-.352-4.1-.688a8.6,8.6,0,0,0-1.006-1.483q2.439.356,5.084.61c0,.135,0,.266,0,.4,0,.392,0,.78.026,1.164" transform="translate(-123)" fill="#8c98cc" fill-rule="evenodd"/>
    <path id="Trazado_19866" data-name="Trazado 19866" d="M961.545,5979.569q-13.875-22.645-36.359-32.228l2.225-169.159,26.64,6.355-.16,10.91,397.72-38.318-.212,16.048-397.613,31.168-.1,8.9,397.532-26.8-.212,15.624L953.469,5826.43l-.16,15.73,397.428-20.656-.16,12.182-207.082,7.521-1.112,83.149a6.8,6.8,0,0,1-.212,1.589,13.246,13.246,0,0,1,2.913,2.224,12.7,12.7,0,0,1,3.815,9.374,12.859,12.859,0,0,1-4.079,9.27,13.106,13.106,0,0,1-18.59,0,12.368,12.368,0,0,1-3.707-9.27,12.984,12.984,0,0,1,3.972-9.374,13.716,13.716,0,0,1,3.073-2.276,7.127,7.127,0,0,1-.16-1.537l1.112-82.673-167.254,6.038Zm-1.086,83.813-.053,3.892a183.332,183.332,0,0,0-13.028-17.238q-11.773-13.734-23.251-20.842l.98-74.7q27.282,45.531,34.664,103.435.339,2.637.688,5.455m-38.08,97.873,1.457-109.154a187.182,187.182,0,0,1,16.18,23.939q6.106,10.636,15.412,27.672-4.926,1.278-4.925,2.834v.265l.873,8.817c-.306.119-.607.251-.9.4q-1.623.207-3.1.476-4.71.847-6.144,2.014a11.548,11.548,0,0,0-14.034.422,9.591,9.591,0,0,0-3.39,7.627,11.272,11.272,0,0,0,2.118,6.832,9.519,9.519,0,0,0,8.315,4.079q5.088,0,7.786-2.727l.582,5.877a10.427,10.427,0,0,0-5.138,2.411,9.59,9.59,0,0,0-3.388,7.626,11.4,11.4,0,0,0,1.641,6.17Zm24.469-67.685a9.717,9.717,0,0,0-3.178-7.785,10.507,10.507,0,0,0-7.256-2.6,11.108,11.108,0,0,0-7.308,2.542,9.694,9.694,0,0,0-3.39,7.627,11.2,11.2,0,0,0,2.278,6.938,9.489,9.489,0,0,0,8.155,4.026q6.834,0,9.481-5.191a12.955,12.955,0,0,0,1.112-3.654,15.423,15.423,0,0,0,.106-1.907" transform="translate(-123)" fill="#bdc4e5" fill-rule="evenodd"/>
    <path id="Trazado_19867" data-name="Trazado 19867" d="M1349.969,5880.689a59.684,59.684,0,0,0-11.255,10.354q-.877,1.062-1.668,2.092c-.1-.167-.2-.334-.292-.5a43.144,43.144,0,0,0-7.282-6.17c.432.028.863.054,1.3.08q-.794-2.224-6.939-8-6.2-5.933-19.383-.849c-.2.076-.389.155-.583.239a52.087,52.087,0,0,0-5.826-.026,40.555,40.555,0,0,0-19.966,5.772,34.1,34.1,0,0,0-13.824,16.313,36.022,36.022,0,0,0-7.255,24.892q.892,11.7,7.944,18.748a18.746,18.746,0,0,0,5.19,8.792c.162.159.329.318.5.477a47.045,47.045,0,0,0,7.918,13.188,40.954,40.954,0,0,0,17.32,12.657q12.55-.316,6.99,8.951a11.669,11.669,0,0,0-3.76,2.277,19.568,19.568,0,0,0-3.072,2.7q-2.118,2.066-4.82,4.343l-5.349,1.43a17.077,17.077,0,0,0-8.738,5.667l-5.35-19.6q-.741-2.7-3.231-2.277l-85.957,14.776q-2.436.425-1.694,3.125l8.182,29.9a22.452,22.452,0,0,0-11.573,1.138,24.346,24.346,0,0,0-14.723,14.565q-7.469,19.225-23.621,51-10.539,20.667-17.159,34.107a73.475,73.475,0,0,0-2.542-9.427q-.848-2.543-2.755-7.521l-.318-.847-.264-.9q-.318-.743-.582-1.43c-.072-.141-.142-.283-.212-.424a38.339,38.339,0,0,0,6.779-11.016q3.23-7.892,7.68-10.169,9-5.243,11.122-16.683a33.57,33.57,0,0,0-2.384-20.231q-2.913-5.509-5.561-3.072.211,1.271,1.483,7.415a69.224,69.224,0,0,1,1.27,7.891q.585,9.321-5.084,14.353a36.785,36.785,0,0,0-10.169,8.58,41.86,41.86,0,0,0-6.991,11.439,3,3,0,0,1-3.23,2.437,8.787,8.787,0,0,1-4.237-1.378q-18.59-9.639-44.541-10.645a45.319,45.319,0,0,1-15.413-2.913,30.461,30.461,0,0,1-12.763-8.792,34.859,34.859,0,0,0-8-19.436q-1.431,1.112-3.707,7.15a9.909,9.909,0,0,1-.743,1.641,1.567,1.567,0,0,1-.422.53q-4.557,4.926-9.428.529a26.826,26.826,0,0,1-2.542-2.86q-1.906-2.436-2.489-2.594-.953-.213-1.006,3.071a10.381,10.381,0,0,1,1.323,6.885,27.8,27.8,0,0,1-2.383,6.727,62.853,62.853,0,0,0-2.86,6.779,12.217,12.217,0,0,0-.37,4.872h-.106q.105.53.211,1.006.106.53.212,1.007l.053.106v.053q2.7,3.018,9.639,4.448,7.891,1.537,10.329,3.337.316.582.634,1.218l.053.212c.071.106.142.212.212.318a42.906,42.906,0,0,1,2.118,7.732q.585,3.39,1.642,10.169,2.277,12.075,10.063,16.577-1.059,2.966-5.72,6.991-5.242,4.553-6.672,6.832a5.972,5.972,0,0,0-4.08.636,6.628,6.628,0,0,0-2.752,2.648,3.911,3.911,0,0,0-.265,3.231,4.637,4.637,0,0,0,3.283,2.277q5.4,1.7,11.758-4.237,4.236-4.026,5.137-4.714a13.76,13.76,0,0,1,5.667-2.754l.423-.053,2.49,12.393q.211,1.326.371,2.49a5.427,5.427,0,0,1-2.093,1.906q-18.225-3.282-33.366-6.064a42.267,42.267,0,0,0-5.746-1.4c-.173-.03-.349-.056-.53-.08l6.144-49.756v-.53a1.742,1.742,0,0,0-.9-1.484h-.08q-1.9-1.38-7.6-2.436-.815-.146-1.668-.264a44.293,44.293,0,0,0,.449-11.6q-.369-5.508-2.594-18.219-1.749-10.646-1.483-14.194.953-17.161,5.243-28.017,6.462-16.577,22.932-29.182-31.83,5.878-42.475,34.955-.418,1.151-.795,2.357a200.761,200.761,0,0,0-5.56-26.825,128.539,128.539,0,0,0-13.691-32.333l1.722-131.85,167.253-6.038-1.112,82.675a7.109,7.109,0,0,0,.16,1.535,13.729,13.729,0,0,0-3.072,2.278,12.975,12.975,0,0,0-3.973,9.374,12.369,12.369,0,0,0,3.707,9.268,13.106,13.106,0,0,0,18.59,0,12.857,12.857,0,0,0,4.079-9.268,12.689,12.689,0,0,0-3.815-9.374,13.187,13.187,0,0,0-2.913-2.224,6.81,6.81,0,0,0,.212-1.589l1.113-83.151,207.082-7.521Zm-1.324,101.74-2.78-.821q-10.222-4.025-12.765-12.5-.369-9.958-.953-14.883a73.939,73.939,0,0,0,8.367-1.642q4.82-1.271,3.391-5.773a80.693,80.693,0,0,1-.875-10.169q2.557.993,6.2,2.013ZM1338.767,6120q-3.706-10.116-.741-17.636,4.221,1.449,9,2.648l-.477,36.067a59.34,59.34,0,0,0-7.785-21.079m-24.866,91.6a44.261,44.261,0,0,0,31.645-34.876q.311-1.625.583-3.256l-.556,42.66q-9.647-1.077-31.672-4.528m-40.569-200.726c-.04.131-.085.263-.132.4q-1.375,3.072-3.972,18.59-8.051,6.885-10.115,15.57-1.584,7.263,2.25,12.235l-30.9,5.3c-.112-.3-.217-.582-.318-.847q-2.278-6.092-7.414-6.885.316,2.383,1.482,7.362.188.71.344,1.376l-1.748.292q-.866-1.615-1.879-3.576a42.177,42.177,0,0,0-5.985-8.367q-3.6,2.754-.106,9,1.2,2.181,2.012,3.972l-2.78.477q-.8-1.228-1.722-2.7-3.229-5.456-7.414-6.885.107,4.131,3.231,10.434l.079.158-.343.053q-2.172.37-2.808-2.118l-16.895-61.6q-.687-2.49,1.483-2.86l74.942-12.869q2.171-.372,2.86,2.118Zm-8.394,52.512q-.828-1.152-1.721-2.331l1.429-.238q.3.231.662.5Zm-66.785,58.523q4.077,8.315,10.063,26.428,4.182,12.5,7.414,20.549a60.826,60.826,0,0,0,2.7,5.773q2.013,3.654,3.867,7.044.953,1.747,1.748,3.39a62.017,62.017,0,0,0,9.267,13.082q-30.39-5.217-68.478-11.917-1.569-.276-3.125-.557a32.889,32.889,0,0,0,2.012-11.042q.211-7.732-2.914-11.229a31.393,31.393,0,0,0,2.278-4.66q6.356-7.52,17.265-18.589l.954-.954q14.988-15.094,16.948-17.318m-83.494,24.416c-.133.305-.265.6-.4.9q-4.4,3.706-12.5,12.181a16.639,16.639,0,0,0-7.839,3.071,19.362,19.362,0,0,0-6.038,5.933q-2.436.476-4.182.953a12.554,12.554,0,0,0-7.892,0,16.637,16.637,0,0,0-1.722.582c.13-.354.243-.725.345-1.112q4.767-3.6,7.043-11.387a87.03,87.03,0,0,1,3.973-13.028q4.4-1.219,13.557-6.515a3,3,0,0,1,.372.159l3.655,1.589a8.648,8.648,0,0,1,1.165.53v-.053a63.083,63.083,0,0,1,10.46,6.2m-154.253-79.046.053-3.893q.287,2.375.582,4.872-.314-.5-.635-.979m107.778,69.671q.584,11.439,1.007,15.306.266,9.057-3.973,14.352a5.692,5.692,0,0,0-4.766.954,1.306,1.306,0,0,0-.185.159q-3.253-.6-6.409-1.166a9.33,9.33,0,0,0,.45-5.878q-1.007-3.231-.953-10.487v-1.853a30.713,30.713,0,0,0-1.272-8.474c.072-.071.124-.124.16-.159q.21-.264,1.536-1.589,1.43-1.377,5.772-1.324Z" transform="translate(-123)" fill="#fff" fill-rule="evenodd"/>
    <path id="Trazado_19868" data-name="Trazado 19868" d="M1009.9,6158.581q4.053,1.364,4.052,3.1l-.053.582q-.9,1.485-7.2,3.02-1.167.266-2.649.582a134.969,134.969,0,0,1-15.333,1.43,9.051,9.051,0,0,0-2.3-3.124,10.473,10.473,0,0,0-1.483-1.086,4.057,4.057,0,0,0,.4-.186l10.485-.636.715-.105q1.06-.265,1.853-.529,4.45-1.006,4.98-2.066v-.265l.265-2.2c.18.024.356.05.529.08a42.267,42.267,0,0,1,5.746,1.4m-45.838,8.156q-2.645-.253-5.084-.608c-.1-.107-.2-.212-.292-.319q2.054.053,4.264.053h1.192c-.035.289-.061.58-.08.874" transform="translate(-123)" fill="#142476" fill-rule="evenodd"/>
    <path id="Trazado_19869" data-name="Trazado 19869" d="M997.348,6108.664q.624-.133,1.139-.265,2.064-.53,2.119-1.853,0-.686-1.748-1.3a22.893,22.893,0,0,0,.662-2.622q.853.12,1.668.265,5.7,1.056,7.6,2.436h.08a1.741,1.741,0,0,1,.9,1.485v.528q-.8,1.325-6.249,2.6-1.06.265-2.384.53c-.24.036-.478.072-.715.106l-5.031.582q-6.73.636-15.174.636-4.952,0-9.348-.265a7.2,7.2,0,0,0,1.351-1.377q3.543.316,7.785.318,8.9-.265,12.552-.795,2.894-.546,4.766-.98Zm-40.675.98q-5.643-1.255-6.169-2.832v-.266q0-1.556,4.924-2.834c.161.292.319.583.477.874a8.3,8.3,0,0,0-.105,1.218,7.393,7.393,0,0,0,.873,3.84" transform="translate(-123)" fill="#fcd538" fill-rule="evenodd"/>
    <path id="Trazado_19870" data-name="Trazado 19870" d="M947.563,6162.129a12.712,12.712,0,0,1-1.827-.608q5.956-.425,8.262-5.084a10.321,10.321,0,0,0,1.06-3.708,9.454,9.454,0,0,0,.158-1.907,9.718,9.718,0,0,0-3.178-7.785,10.7,10.7,0,0,0-7.308-2.6,11.788,11.788,0,0,0-2.119.185l-.582-5.877a8.74,8.74,0,0,0,1.7-2.412,10.3,10.3,0,0,0,1.059-3.706,8.961,8.961,0,0,0,.159-1.906,10.984,10.984,0,0,0-1.086-5.138q.68.213,1.509.424a11.507,11.507,0,0,0-.423,3.072,11.232,11.232,0,0,0,2.171,6.726,9.526,9.526,0,0,0,8.315,4.184q6.992,0,9.48-5.138a11.905,11.905,0,0,0,1.059-3.707,13.178,13.178,0,0,0,.106-1.906,12.739,12.739,0,0,0-.106-1.827,90.992,90.992,0,0,0,14.088-1.192c.529-.141,1.131-.283,1.8-.424q4.555-1.006,4.926-2.224l-4.873,39.854-.026.133a10.989,10.989,0,0,0-7.177-2.384h-.027c.053-.22.079-.29.08-.212a6.976,6.976,0,0,0-2.277-5.614,8.089,8.089,0,0,0-10.434,0,7.125,7.125,0,0,0-2.489,5.614,7.826,7.826,0,0,0,1.589,4.607,7.064,7.064,0,0,0,2.066,1.96H963q-4.129,0-7.627-.239a12.658,12.658,0,0,0-4.819-1.3,12,12,0,0,0-2.993.132" transform="translate(-123)" fill="#13478d" fill-rule="evenodd"/>
    <path id="Trazado_19871" data-name="Trazado 19871" d="M998.857,6105.248q1.749.612,1.748,1.3-.052,1.323-2.118,1.853-.516.132-1.14.265a16.141,16.141,0,0,0,1.51-3.416m-33.075,17.107a9.062,9.062,0,0,0-2.887-4.9,9.569,9.569,0,0,0-1.138-.874q.919-.048,1.879-.08a65.943,65.943,0,0,1,11.335.795q4.715,1.059,4.926,2.065-.213,1.007-2.861,1.642-.846.159-2.118.371a47.345,47.345,0,0,1-9.136.98" transform="translate(-123)" fill="#12335f" fill-rule="evenodd"/>
    <path id="Trazado_19872" data-name="Trazado 19872" d="M924.128,6029.194q11.477,7.11,23.25,20.842a183,183,0,0,1,13.028,17.238c.216.322.427.648.636.98q1.362,11.3,2.86,25.316a46.951,46.951,0,0,0,1.033,4.714,10.25,10.25,0,0,0-6.223,1.906,6.638,6.638,0,0,0-2.807,4.4c-.158-.291-.316-.582-.477-.874q-9.3-17.037-15.412-27.672a187.182,187.182,0,0,0-16.18-23.939,84.432,84.432,0,0,0-10.46-10.884q-.312-.289-.635-.556-17.373-14.406-36.491-8.1-.742.264-3.125,1.324a1.683,1.683,0,0,1-1.483-.212V6032.4q20.472-16.018,41.973-8.341a55.67,55.67,0,0,1,10.513,5.136m64.587,138.1a11.1,11.1,0,0,1,.874,4.662c-.011.245-.02.474-.027.689-.039.49-.083.9-.132,1.217a10.292,10.292,0,0,1-1.059,3.708,8.472,8.472,0,0,1-5.483,4.607,13.9,13.9,0,0,1-4,.531,9.721,9.721,0,0,1-6.7-2.357,10.071,10.071,0,0,1-1.616-1.828,12.47,12.47,0,0,1-.847-1.431,9.138,9.138,0,0,1-3.548-3.07,11.583,11.583,0,0,1-2.093-5.721c-.023-.384-.031-.772-.026-1.165,0-.13,0-.261,0-.4q.029-.441.08-.874a10.489,10.489,0,0,1,.343-1.72,7.834,7.834,0,0,0,2.543.4q5.033,0,6.938-4.079.534-2.6.714-3.283h.027a10.989,10.989,0,0,1,7.177,2.384c.046.036.091.07.132.1a8.858,8.858,0,0,1,2.3,3.072c.2.107.406.221.609.344a10.621,10.621,0,0,1,1.483,1.085,9.1,9.1,0,0,1,2.3,3.124m-16.5-57.145a7.675,7.675,0,0,0,.688-1.059q.351-1.28.583-2.066a10.344,10.344,0,0,0,5.8-1.8,9.44,9.44,0,0,1-4.582-3.5,11.283,11.283,0,0,1-2.278-6.886,9.7,9.7,0,0,1,3.391-7.626,10.893,10.893,0,0,1,7.256-2.543h.37a308.258,308.258,0,0,0-2.648-45.944q.376-1.206.794-2.356,10.645-29.078,42.475-34.955-16.469,12.6-22.932,29.182-4.29,10.855-5.243,28.017-.264,3.546,1.484,14.194,2.223,12.71,2.593,18.217a44.246,44.246,0,0,1-.449,11.6,22.474,22.474,0,0,1-.662,2.623,16.029,16.029,0,0,1-1.51,3.416l-.026.025q-1.873.434-4.767.98-3.654.53-12.551.795-4.242,0-7.786-.318m-25.369-16.577a15.423,15.423,0,0,1-.106,1.907,12.955,12.955,0,0,1-1.112,3.654q-2.649,5.19-9.48,5.19a9.49,9.49,0,0,1-8.156-4.025,11.21,11.21,0,0,1-2.278-6.938,9.7,9.7,0,0,1,3.39-7.627,11.111,11.111,0,0,1,7.308-2.542,10.51,10.51,0,0,1,7.257,2.6,9.72,9.72,0,0,1,3.177,7.785m14.91,23.012a9.559,9.559,0,0,1,1.137.874,9.05,9.05,0,0,1,2.887,4.9,10.736,10.736,0,0,1,.185,1.06,12.747,12.747,0,0,1,.106,1.827,13.178,13.178,0,0,1-.106,1.906,11.924,11.924,0,0,1-1.059,3.707q-2.488,5.137-9.48,5.138a9.526,9.526,0,0,1-8.315-4.184,11.235,11.235,0,0,1-2.171-6.726,11.526,11.526,0,0,1,.423-3.073,9.129,9.129,0,0,1,2.966-4.554,11.211,11.211,0,0,1,2.145-1.43c.293-.147.594-.279.9-.4a11.614,11.614,0,0,1,4.264-.768,11.843,11.843,0,0,1,3.522.5,9.715,9.715,0,0,1,2.6,1.218m-6.383,46.712a12.3,12.3,0,0,1,2.436,1.668,11.168,11.168,0,0,1,.874.849l.292.317a8.846,8.846,0,0,1,2.065,5.826,18.3,18.3,0,0,1-.159,1.906,10.292,10.292,0,0,1-1.059,3.708c-.1.212-.209.416-.317.61q-2.607,4.526-9.163,4.528a10.476,10.476,0,0,1-4.74-1.034,14.266,14.266,0,0,0,.133-1.721,7.451,7.451,0,0,0-5.826-7.467c-.005-.231-.005-.459,0-.69a9.746,9.746,0,0,1,2.674-7.148,8.679,8.679,0,0,1,.689-.61l.026-.027a9.127,9.127,0,0,1,4.263-1.88,11.957,11.957,0,0,1,2.993-.132,12.658,12.658,0,0,1,4.819,1.3m-8.659,47.905a2.466,2.466,0,0,1-.027.318,12.938,12.938,0,0,1-1.006,3.653q-2.488,5.19-9.374,5.191a9.778,9.778,0,0,1-8.315-4.078,11.113,11.113,0,0,1-2.33-6.885,9.694,9.694,0,0,1,3.389-7.627,11.105,11.105,0,0,1,7.309-2.542,10.515,10.515,0,0,1,7.256,2.6,9.118,9.118,0,0,1,2.092,2.675,8.252,8.252,0,0,0-.345,2.305,7.253,7.253,0,0,0,1.351,4.4m-2.118,43.084a13.073,13.073,0,0,1,.132,2.041c-.035.7-.088,1.34-.159,1.9a11.042,11.042,0,0,1-1.112,3.654q-2.595,5.19-9.428,5.191a9.536,9.536,0,0,1-8.155-4.078,11.276,11.276,0,0,1-2.278-6.886,9.691,9.691,0,0,1,3.39-7.626,11.712,11.712,0,0,1,13.4-.821,7.172,7.172,0,0,0,1.431,4.422,6.3,6.3,0,0,0,2.781,2.2m-.742-132.7a10.971,10.971,0,0,1,1.086,5.138,8.944,8.944,0,0,1-.159,1.9,10.306,10.306,0,0,1-1.059,3.708,8.729,8.729,0,0,1-1.7,2.411q-2.7,2.725-7.786,2.727a9.519,9.519,0,0,1-8.315-4.079,11.275,11.275,0,0,1-2.118-6.832,9.594,9.594,0,0,1,3.39-7.627,11.544,11.544,0,0,1,14.035-.422q.269.195.529.422a9.311,9.311,0,0,1,2.092,2.649m-17.848,50.923a12.152,12.152,0,0,1-.927,3.574q-2.543,5.139-9.427,5.139a9.374,9.374,0,0,1-8.315-4.29,11.28,11.28,0,0,1-2.066-6.62,9.806,9.806,0,0,1,3.39-7.733,10.169,10.169,0,0,1,3.151-1.853,11.509,11.509,0,0,1,4.052-.689,10.109,10.109,0,0,1,7.15,2.649,9.717,9.717,0,0,1,3.178,7.784,8.819,8.819,0,0,1-.16,1.906.705.705,0,0,1-.026.133" transform="translate(-123)" fill="#6fa919" fill-rule="evenodd"/>
    <path id="Trazado_19873" data-name="Trazado 19873" d="M970.866,6111.524a9.452,9.452,0,0,1-6.117,1.853q-5.4,0-7.573-2.964a6.163,6.163,0,0,1-.5-.768,7.394,7.394,0,0,1-.873-3.84,8.448,8.448,0,0,1,.106-1.219,6.635,6.635,0,0,1,2.807-4.4,10.254,10.254,0,0,1,6.223-1.906,46.988,46.988,0,0,1-1.033-4.713q-1.5-14.021-2.861-25.317-.294-2.5-.582-4.873-.349-2.817-.688-5.454-7.382-57.9-34.664-103.435-2.875-4.787-5.958-9.428,3.1,1.032,6.037,2.278,22.485,9.581,36.359,32.227a128.57,128.57,0,0,1,13.691,32.333,200.809,200.809,0,0,1,5.56,26.826,308.251,308.251,0,0,1,2.649,45.944h-.37a10.9,10.9,0,0,0-7.257,2.542,9.7,9.7,0,0,0-3.39,7.627,11.273,11.273,0,0,0,2.278,6.886,9.43,9.43,0,0,0,4.582,3.5,10.346,10.346,0,0,1-5.8,1.8q-.232.786-.583,2.066a7.588,7.588,0,0,1-.688,1.059,7.2,7.2,0,0,1-1.351,1.377m3.813,45.654q-.18.683-.715,3.283-1.906,4.079-6.937,4.079a7.834,7.834,0,0,1-2.543-.4,6.6,6.6,0,0,1-1.27-.61,7.064,7.064,0,0,1-2.066-1.96,7.826,7.826,0,0,1-1.589-4.607,7.125,7.125,0,0,1,2.489-5.614,8.089,8.089,0,0,1,10.434,0,6.976,6.976,0,0,1,2.277,5.614c0-.078-.027-.008-.08.212m-28.943,4.343q-.624.053-1.271.052a11.579,11.579,0,0,1-3.866-.609,8.947,8.947,0,0,1-4.4-3.415c-.168-.238-.328-.478-.477-.716a11.4,11.4,0,0,1-1.641-6.17,9.588,9.588,0,0,1,3.389-7.626,10.42,10.42,0,0,1,5.137-2.411,11.788,11.788,0,0,1,2.119-.185,10.7,10.7,0,0,1,7.308,2.6,9.717,9.717,0,0,1,3.178,7.785,9.448,9.448,0,0,1-.158,1.907,10.342,10.342,0,0,1-1.06,3.708q-2.307,4.659-8.262,5.084m-.132,20.151a9.816,9.816,0,0,1-.769,2.888q-1.748,4.077-6.672,4.078a6.6,6.6,0,0,1-6.091-3.284,9.746,9.746,0,0,1-1.325-5.244,7.964,7.964,0,0,1,2.384-6.09c.1-.089.2-.178.292-.266a7,7,0,0,1,4.9-1.483,8.069,8.069,0,0,1,1.589.213,7.691,7.691,0,0,1,3.547,1.907,7.194,7.194,0,0,1,2.278,5.56,14.054,14.054,0,0,1-.132,1.721m1.112,29.527a7.253,7.253,0,0,1-1.351-4.4,8.254,8.254,0,0,1,.344-2.305,6.86,6.86,0,0,1,2.3-3.416,8.959,8.959,0,0,1,5.773-1.906,8.744,8.744,0,0,1,5.72,1.906,6.859,6.859,0,0,1,2.542,5.721q0-.475-.795,3.388-2.012,4.239-7.626,4.238-4.715,0-6.832-3.125c-.022-.032-.049-.067-.079-.106m-2.118,43.084a6.294,6.294,0,0,1-2.781-2.2,7.172,7.172,0,0,1-1.431-4.422c0-.083,0-.163,0-.237a6.936,6.936,0,0,1,2.649-5.615,8.872,8.872,0,0,1,5.72-1.907,8.451,8.451,0,0,1,5.614,1.907,6.657,6.657,0,0,1,2.542,5.615q0-.267-.794,3.548-1.961,4.025-7.468,4.025a10.368,10.368,0,0,1-4.051-.716m-12.262-33.6a7.042,7.042,0,0,1,2.224,5.612q0-.262-.847,3.55-1.854,4.025-6.673,4.024a6.959,6.959,0,0,1-6.143-2.912,7.707,7.707,0,0,1-1.377-4.662,7.194,7.194,0,0,1,2.436-5.612,8.012,8.012,0,0,1,10.38,0m9.057,63.076a18.547,18.547,0,0,0-.794,3.338q-2.013,4.078-7.627,4.077a7.753,7.753,0,0,1-6.621-2.965,6.773,6.773,0,0,1-1.641-4.45,7.35,7.35,0,0,1,2.648-5.824,8.793,8.793,0,0,1,5.773-1.96,8.584,8.584,0,0,1,5.72,1.96,7.059,7.059,0,0,1,2.542,5.824" transform="translate(-123)" fill="#508522" fill-rule="evenodd"/>
    <path id="Trazado_19874" data-name="Trazado 19874" d="M951.376,6115.628l-.873-8.817q.525,1.578,6.169,2.834a6.092,6.092,0,0,0,.5.768q2.17,2.966,7.573,2.964a9.456,9.456,0,0,0,6.117-1.852q4.4.264,9.348.264,8.444,0,15.174-.636l5.031-.582c.238-.033.475-.07.715-.106q1.325-.264,2.384-.529,5.454-1.272,6.249-2.6l-6.143,49.757-.265,2.2v.266q-.531,1.058-4.98,2.064-.794.266-1.853.53c-.233.036-.472.071-.715.106l-10.485.635a1.8,1.8,0,0,0,.873-.9v-.212q0-1.322-4.29-2.356l4.873-39.854v-.212q0-1.642-6.62-2.861a97.028,97.028,0,0,0-16.525-1.217q-2.325,0-4.475.079a11.875,11.875,0,0,0-3.522-.5,11.614,11.614,0,0,0-4.264.767" transform="translate(-123)" fill="#f09f07" fill-rule="evenodd"/>
    <g id="Grupo_8684" data-name="Grupo 8684" transform="translate(-123)">
      <g id="Grupo_8683" data-name="Grupo 8683" clip-path="url(#clip-path)">
        <rect id="Rectángulo_3523" data-name="Rectángulo 3523" width="188.927" height="185.185" transform="translate(941.061 6089.091) rotate(-34.427)" fill="url(#linear-gradient)"/>
      </g>
    </g>
    <path id="Trazado_19876" data-name="Trazado 19876" d="M1053.859,6166.552c-.078.178-.156.355-.239.53a11.944,11.944,0,0,1-4.184,4.819,11.576,11.576,0,0,1-6.144,1.959,8.479,8.479,0,0,1-6.037-2.011q-1.008-3.551,2.647-5.4a31.9,31.9,0,0,0,3.364-1.8,5.458,5.458,0,0,0,2.093-1.907c-.108-.778-.23-1.606-.373-2.49a65.456,65.456,0,0,1,5.509-8.95,16.32,16.32,0,0,1,2.86-2.966v1.854q-.054,7.255.953,10.485a9.334,9.334,0,0,1-.449,5.88m63.024-25.025q-1.773-2.277-4-4.739-5.984-6.675-1.589-17.478a10.122,10.122,0,0,1,.688-1.007,17.446,17.446,0,0,1,4.713-4.4q1.908,4.978,2.755,7.52a73.56,73.56,0,0,1,2.542,9.427q-1.023,2.106-1.959,4.025-1.74,3.633-3.152,6.647" transform="translate(-123)" fill="#272727" fill-rule="evenodd"/>
    <path id="Trazado_19877" data-name="Trazado 19877" d="M1042.074,6147.909a26.1,26.1,0,0,0,6.355-4.025q1.7-1.747,3.654-4.025a30.713,30.713,0,0,1,1.272,8.474,16.255,16.255,0,0,0-2.86,2.966,65.4,65.4,0,0,0-5.508,8.95l-2.49-12.393Zm-20.444-45.918q-.318-.635-.634-1.218-2.437-1.8-10.329-3.337-6.939-1.43-9.639-4.448v-.053l-.053-.106q-.1-.477-.212-1.007-.105-.475-.211-1.006h.106a24.988,24.988,0,0,1,5.136.265,61.486,61.486,0,0,1,6.356,1.218,20.313,20.313,0,0,1,4.82,1.8,5.268,5.268,0,0,1,2.542,2.913q.793,1.852,2.118,4.978m-.795-35.114q3.6,3.126,7.257,10.434-.9,2.224-6.938-.795a27.148,27.148,0,0,1-10.169-8.58q4.872,4.4,9.428-.529a1.567,1.567,0,0,0,.422-.53m96.047,74.651q-1.231,2.633-2.223,4.793a63.083,63.083,0,0,0-10.46-6.2v.053a8.648,8.648,0,0,0-1.165-.53l-3.655-1.589a3,3,0,0,0-.372-.159,22.151,22.151,0,0,0,5.192-8.685q2.117-5.668,4.448-11.6,2.436-5.933,6.674-7.309c.07.141.14.283.212.424q.264.688.582,1.43l.264.9.318.847a17.444,17.444,0,0,0-4.714,4.4,10.228,10.228,0,0,0-.688,1.007q-4.4,10.8,1.589,17.477,2.227,2.463,4,4.741m-48.7-4.582-8.633-.159q6.3-5.931,8.209-11.7a19.836,19.836,0,0,1,3.761-6.886,7.8,7.8,0,0,1,3.336-2.383q-.582,1.431-3.071,6.408a31.928,31.928,0,0,0-3.02,8.58,51.738,51.738,0,0,0-.582,6.144" transform="translate(-123)" fill="#040505" fill-rule="evenodd"/>
    <path id="Trazado_19878" data-name="Trazado 19878" d="M1209.937,6070.213a31.941,31.941,0,0,1,2.409,6.3,22.8,22.8,0,0,1-4.5-5.931Zm-20.867-40.171,10.672,39.06q.713,2.643,2.993,2.357,1.124,4.547,2.515,9.559a55.778,55.778,0,0,0,10.963,20.655q12.181,8.687,18.377,13.029a180.8,180.8,0,0,0,19.12,11.705q-27.274,27.7-35.379,48.248a60.739,60.739,0,0,1-2.7-5.774q-3.229-8.049-7.414-20.548-5.985-18.114-10.063-26.428-.954-2.067-4.873-11.069a81.188,81.188,0,0,0-5.137-10.91q-6.25,11.228-20.02,24.839-5.879,5.771-10.274,10.115-10.857,10.752-12.341,12.5a60.224,60.224,0,0,0-6.355,8.527q-1.43,2.138-2.728,3.813a28.416,28.416,0,0,1-3.945,4.343q-2.539-1.075-4.661-2.118a42.547,42.547,0,0,1-6.779-3.972,17.161,17.161,0,0,1-6.779-10.751c.133-.3.265-.6.4-.9q.99-2.158,2.223-4.793,1.413-3.015,3.153-6.647l1.959-4.025q6.621-13.44,17.159-34.107,16.154-31.778,23.621-51a24.346,24.346,0,0,1,14.723-14.565,22.452,22.452,0,0,1,11.573-1.138m44.038,42.82a96.86,96.86,0,0,1,10.275,12.817q7.2,10.592,9.374,13.293-.795-.159-7.679-.8-4.767-.475-6.673-2.065,2.911-5.455,0-12.075a21.351,21.351,0,0,1-5.3-11.175m-16.842-3.734,1.854-.317a9.159,9.159,0,0,1,.292,1.615l-.053,1.3c-.007.041-.015.085-.028.133a23.088,23.088,0,0,1-2.065-2.728" transform="translate(-123)" fill="#ca2849" fill-rule="evenodd"/>
    <path id="Trazado_19879" data-name="Trazado 19879" d="M1263.218,6061.051q.892,1.179,1.72,2.331-.316,1.112-3.76,18.748a106.036,106.036,0,0,1-5.03,18.431,19.518,19.518,0,0,1-3.39-1.589q-2.172-2.7-9.374-13.293a97.019,97.019,0,0,0-10.275-12.817l-1.192-4.952q-.187-.729-.371-1.4Zm-38.53,6.62.766-.132q.318,1.317.5,2.251-.562-.893-1.27-2.119m-26.534,54.234q-1.959,2.225-16.948,17.318c-.317.319-.637.635-.955.954q-10.908,11.069-17.264,18.589a35.672,35.672,0,0,1-17.478-11.387q1.484-1.748,12.34-12.5,4.4-4.343,10.275-10.115,13.768-13.613,20.02-24.839a81.376,81.376,0,0,1,5.136,10.909q3.921,9,4.874,11.07M985.326,6162.9a4.153,4.153,0,0,1-.4.185q-.3-.183-.609-.343a8.88,8.88,0,0,0-2.3-3.072c-.041-.035-.086-.07-.132-.106l.025-.133q4.292,1.036,4.29,2.357V6162a1.794,1.794,0,0,1-.873.9m-20.841,1.245a10.5,10.5,0,0,0-.344,1.721H962.95q-2.211,0-4.264-.053a11.343,11.343,0,0,0-.874-.848,12.236,12.236,0,0,0-2.436-1.668q3.5.239,7.627.239h.212a6.545,6.545,0,0,0,1.27.609m-18.748-2.622a12.823,12.823,0,0,0,1.827.609,9.135,9.135,0,0,0-4.264,1.88l-.026.027q-2.791-.823-3.257-1.668V6162a1.366,1.366,0,0,1,.582-1.033,11.589,11.589,0,0,0,3.867.609q.646,0,1.271-.053" transform="translate(-123)" fill="#9e2445" fill-rule="evenodd"/>
    <path id="Trazado_19880" data-name="Trazado 19880" d="M1288,5953.538a69.871,69.871,0,0,0,8.659,1.642q.8,3.972,2.437,12.022a15.768,15.768,0,0,1-3.231,11.546,40.957,40.957,0,0,1-17.319-12.657,47.022,47.022,0,0,1-7.918-13.188,17.2,17.2,0,0,0,5.853,3.548,12.259,12.259,0,0,0,8.844-.794,8.536,8.536,0,0,0,2.675-2.119m-80.159,117.047a22.8,22.8,0,0,0,4.5,5.931,31.96,31.96,0,0,0-2.408-6.3q-.741-1.573-1.7-3.443-.039-.081-.078-.158-3.126-6.3-3.231-10.434,4.183,1.429,7.414,6.885.927,1.474,1.722,2.7,1.267,2,2.2,3.363a23,23,0,0,0,2.065,2.728c.013-.048.021-.092.028-.133l.052-1.3a8.983,8.983,0,0,0-.292-1.615,22.984,22.984,0,0,0-1.271-3.523q-.81-1.793-2.012-3.972-3.5-6.249.106-9a42.177,42.177,0,0,1,5.985,8.367q1.013,1.961,1.879,3.576,1.044,1.95,1.882,3.416.707,1.225,1.27,2.118-.187-.935-.5-2.251-.359-1.534-.9-3.575-.157-.666-.344-1.376-1.165-4.978-1.482-7.362,5.136.793,7.414,6.885.15.4.318.847.513,1.5,1.085,3.549.184.674.372,1.4l1.191,4.952a21.351,21.351,0,0,0,5.3,11.175q2.911,6.62,0,12.076,1.905,1.589,6.672,2.064,6.885.638,7.68.8a19.487,19.487,0,0,0,3.39,1.589q1.217,5.615,9.85,7.044h.159q10.38,1.006,14.247,1.8-1.324,13.135-9.057,20.337a13.1,13.1,0,0,1-9.162.636,42.4,42.4,0,0,1-8.474-3.972,180.636,180.636,0,0,1-19.12-11.705q-6.2-4.344-18.376-13.028a55.763,55.763,0,0,1-10.964-20.656q-1.391-5.012-2.515-9.559-1.373-5.492-2.358-10.3,3.338,1.749,6.3,7.362.606,1.1,1.164,2.066m-75.364,93.477-1.006,4.5c-.634.192-1.261.376-1.881.557q-20.344,5.821-38.238,4.157c-.225-.014-.445-.031-.662-.053v-.052a14.506,14.506,0,0,1,4.449-7.68q4.5-3.973,6.62-6.091,8.1-8.473,12.5-12.181a17.161,17.161,0,0,0,6.779,10.751,42.547,42.547,0,0,0,6.779,3.972q2.123,1.043,4.661,2.118m-44.595,4.344q-1.534,3.018-2.488,3.5-1.113.636-1.695-2.542,1.747-.477,4.183-.953" transform="translate(-123)" fill="#f59a72" fill-rule="evenodd"/>
    <path id="Trazado_19881" data-name="Trazado 19881" d="M1345.865,5981.608a34.625,34.625,0,0,1-12.658,2.913q-.794.159-13.506.159a56.475,56.475,0,0,0-12.711,1.43,23.947,23.947,0,0,0-4.131,1.589q5.561-9.269-6.99-8.951a15.768,15.768,0,0,0,3.231-11.546q-1.642-8.049-2.437-12.022,2.912-.159,9.639-.159,3.547,0,8.209.159a84.5,84.5,0,0,0,17.636-.953q.582,4.924.954,14.882,2.543,8.473,12.764,12.5M1133.54,6168.564h-2.065l1.005-4.5a28.415,28.415,0,0,0,3.946-4.343q1.3-1.677,2.727-3.813a60.3,60.3,0,0,1,6.356-8.527,35.674,35.674,0,0,0,17.477,11.387,31.281,31.281,0,0,1-2.277,4.66,50.634,50.634,0,0,1-13.346,3.708q-2.639.473-9,1.033-2.181.192-4.819.4" transform="translate(-123)" fill="#e07353" fill-rule="evenodd"/>
    <path id="Trazado_19882" data-name="Trazado 19882" d="M1335.748,5894.883a21.022,21.022,0,0,0-2.383-.133A20.077,20.077,0,0,0,1313.4,5914.5a19.444,19.444,0,0,0,19.438,19.755,20.444,20.444,0,0,0,4.82-.555q-4.473-4.158-6.727-11.891a44.076,44.076,0,0,1-1.482-8.844q2.913-2.861,9.321-9.745.806-.88,1.589-1.7,1.947-2.008,3.787-3.627a37.63,37.63,0,0,1,5.667-4.211l-.583,44.965q-3.641-1.018-6.2-2.012a80.726,80.726,0,0,0,.875,10.169q1.43,4.5-3.39,5.772a73.713,73.713,0,0,1-8.367,1.642,84.441,84.441,0,0,1-17.637.953q-4.66-.159-8.209-.159a59.072,59.072,0,0,1-12.764-14.775q-.507-.807-.979-1.59c-.031-.546-.074-1.093-.133-1.641a16.052,16.052,0,0,0-.424-2.7,17.171,17.171,0,0,0-7.149-10.592,24.342,24.342,0,0,1-1.908-8.633,45.514,45.514,0,0,1,.292-4.661c.029-.052.054-.106.079-.158q11.646-25.321,46.157-23.808a43.19,43.19,0,0,1,7.282,6.171c.1.169.193.336.292.5q-.681.887-1.3,1.748m-200.037,292.589q-.018-3.042-.317-6.382-.2-2.253-.53-4.634-.5-3.774-1.324-7.892,2.638-.2,4.819-.4,6.367-.561,9-1.033a50.634,50.634,0,0,0,13.346-3.708q3.125,3.5,2.913,11.229a32.841,32.841,0,0,1-2.012,11.042q-.273.74-.583,1.457-4.978,2.385-12.5,2.065-1.746-.158-12.816-1.747" transform="translate(-123)" fill="#08263d" fill-rule="evenodd"/>
    <path id="Trazado_19883" data-name="Trazado 19883" d="M1337.047,5893.135q.789-1.03,1.667-2.092a59.684,59.684,0,0,1,11.255-10.354l-.159,13a37.686,37.686,0,0,0-5.667,4.211q-1.839,1.619-3.787,3.627-.784.818-1.589,1.7-6.408,6.885-9.319,9.746-.109-1.272-.109-2.543.054-5.137,3.55-11.228,1.234-2.1,2.858-4.316.618-.862,1.3-1.748M1068.793,6186.28q-3.249-3.286-3.045-6.806a8.28,8.28,0,0,1,1.643-4.4,11.992,11.992,0,0,1,1.64-1.854,15.187,15.187,0,0,1,5.058-3.284,16.716,16.716,0,0,1,1.722-.582,12.554,12.554,0,0,1,7.892,0q.58,3.177,1.694,2.542.951-.477,2.488-3.5a19.362,19.362,0,0,1,6.038-5.933,16.639,16.639,0,0,1,7.839-3.071q-2.118,2.118-6.62,6.091a14.51,14.51,0,0,0-4.449,7.679v.053c.217.022.437.039.662.053q17.892,1.664,38.239-4.157.93-.272,1.88-.557h2.065q.825,4.119,1.326,7.892.324,2.382.528,4.634.3,3.339.317,6.382-1.377,4.818-6.937,5.454a54.907,54.907,0,0,1-9.8.159q-1.766-.146-21.927-1.932-1.606-.139-3.337-.292-15.252-1.323-24.68-4.343c-.085-.083-.165-.162-.238-.238m235.072-308.345a46.379,46.379,0,0,0-21.291,17.08q-8.473,12.182-9.48,22.615-.179,2.051-.344,4.926-1.068.464-2.092,1.006a15.434,15.434,0,0,0-4.4,4.025,13,13,0,0,0-1.854,5.3,28.781,28.781,0,0,0-.052,7.2,19.659,19.659,0,0,0,.582,3.548q-7.05-7.044-7.945-18.748a36.022,36.022,0,0,1,7.257-24.892,34.1,34.1,0,0,1,13.823-16.313,40.555,40.555,0,0,1,19.966-5.772,52.088,52.088,0,0,1,5.826.026m-19.013,45.786c-.243-.161-.489-.32-.742-.477a13.413,13.413,0,0,0-4.82-1.907,68.482,68.482,0,0,1,3.947-10.91,44.983,44.983,0,0,0-.292,4.661,24.316,24.316,0,0,0,1.907,8.633m21.45,31.3q-6.726,0-9.64.159a69.871,69.871,0,0,1-8.659-1.642,7.73,7.73,0,0,0,1.032-1.589,23.533,23.533,0,0,0,3.523-13.293q.471.784.979,1.589a59.06,59.06,0,0,0,12.765,14.776" transform="translate(-123)" fill="#004274" fill-rule="evenodd"/>
    <path id="Trazado_19884" data-name="Trazado 19884" d="M1189.07,6030.042l-8.182-29.9q-.742-2.7,1.7-3.125l85.956-14.777q2.489-.425,3.232,2.277l5.349,19.6a23.225,23.225,0,0,0-3.787,6.752l-5.852-21.37q-.69-2.49-2.861-2.119l-74.941,12.87q-2.172.372-1.483,2.859l16.895,61.6q.638,2.489,2.808,2.119l.342-.054q.959,1.871,1.7,3.442l-2.094.371c-.37-.642-.76-1.331-1.164-2.065q-2.969-5.615-6.3-7.361.984,4.811,2.358,10.3-2.281.288-2.994-2.356Zm29.05,38.769-1.854.317q-.93-1.367-2.2-3.362l2.781-.477a23.149,23.149,0,0,1,1.271,3.522m7.334-1.271-.766.131q-.84-1.466-1.881-3.416l1.747-.291q.543,2.041.9,3.576m37.764-6.489-31.673,5.455q-.572-2.049-1.085-3.548l30.9-5.3a15.737,15.737,0,0,0,2.832,2.807l.45.344Z" transform="translate(-123)" fill="#131d42" fill-rule="evenodd"/>
    <path id="Trazado_19885" data-name="Trazado 19885" d="M1269.228,6029.856q2.595-15.516,3.972-18.588.072-.2.132-.4a23.265,23.265,0,0,1,3.788-6.752,17.075,17.075,0,0,1,8.738-5.667l5.349-1.43q7.626,1.906,12.818,9.268a23.316,23.316,0,0,1,2.488,3.866h-.317q-12.818,1.272-18.855,20.656-.682,2.263-1.536,5.057-1.287,4.2-2.966,9.586-1.306,4.138-2.834,8.978-.573,1.86-1.191,3.813c-.015.05-.032.1-.053.159q-2.848,9.48-8.05,29.341-3.338,13.291-4.713,19.86-8.634-1.43-9.851-7.044a106.037,106.037,0,0,0,5.031-18.431q3.443-17.635,3.76-18.748l.37-2.066c.064-.214.124-.426.187-.635q.363-1.351.662-2.754c.082-.379.161-.76.238-1.138q1.055-5.142,1.721-11.043.528-5.456,1.112-15.89" transform="translate(-123)" fill="#cbd6ef" fill-rule="evenodd"/>
    <path id="Trazado_19886" data-name="Trazado 19886" d="M1291.207,5997.021q2.7-2.277,4.82-4.343a19.546,19.546,0,0,1,3.072-2.7q15.94,9.428,15.782,19.7a59.563,59.563,0,0,1-.529,6.726,12.416,12.416,0,0,0-.212,1.747v2.912q-.053,2.7-2.331,15.2-2.223,12.709-2.277,15.253,0,1.271-6.831,57.092a271.146,271.146,0,0,1-7.469,33,60.435,60.435,0,0,1-22.35-10.592,1.806,1.806,0,0,1-.476-.317,2.131,2.131,0,0,1-.265-.318c-.1-.107-.213-.212-.318-.318a1.869,1.869,0,0,1-.477-.317q7.733-7.2,9.057-20.338,2.172-9.321,9.428-32.095,6.354-20.5,8.738-32.36.528-4.184,6.567-11.546,5.351-6.726,4.82-12.181a30.962,30.962,0,0,0-3.284-10.592.647.647,0,0,1-.159-.477,23.316,23.316,0,0,0-2.488-3.866q-5.193-7.362-12.818-9.268m-21.979,32.835q-.582,10.436-1.112,15.89-.667,5.9-1.721,11.043c-.077.378-.156.759-.238,1.138q-.3,1.4-.662,2.754c-.063.209-.123.421-.187.635-.24-.181-.461-.348-.662-.5-.162-.124-.312-.238-.449-.344a15.783,15.783,0,0,1-2.834-2.807q-3.833-4.971-2.25-12.234,2.064-8.687,10.115-15.572" transform="translate(-123)" fill="#5f86b8" fill-rule="evenodd"/>
    <path id="Trazado_19887" data-name="Trazado 19887" d="M1280.4,6109.4q-3.865-.793-14.246-1.8H1266q1.377-6.565,4.714-19.86,5.2-19.862,8.049-29.342c.021-.055.038-.109.053-.158q.617-1.955,1.192-3.813,1.527-4.839,2.834-8.978,1.679-5.391,2.965-9.586.855-2.795,1.536-5.057,6.039-19.384,18.855-20.656h.317a.641.641,0,0,0,.16.476,30.973,30.973,0,0,1,3.283,10.593q.529,5.455-4.82,12.181-6.036,7.362-6.567,11.546-2.383,11.863-8.738,32.36-7.256,22.773-9.428,32.094" transform="translate(-123)" fill="#93aed4" fill-rule="evenodd"/>
    <path id="Trazado_19888" data-name="Trazado 19888" d="M1347.321,6082.077q-1.725,3.48-4.634,9.215a78.873,78.873,0,0,0-4.661,11.07q-2.966,7.52.741,17.637a35.4,35.4,0,0,0,2.278,7.837q1.587,4.66.212,7.68-16.1,9.48-35.856,7.679a76.236,76.236,0,0,1-10.169-1.589,270.961,270.961,0,0,0,7.469-33q6.832-55.822,6.831-57.092.053-2.544,2.277-15.253,2.279-12.5,2.331-15.2v-2.913a12.449,12.449,0,0,1,.212-1.748,59.577,59.577,0,0,0,.53-6.726q.158-10.274-15.783-19.7a11.654,11.654,0,0,1,3.76-2.278,23.947,23.947,0,0,1,4.131-1.589,56.412,56.412,0,0,1,12.711-1.43q12.711,0,13.506-.159a34.63,34.63,0,0,0,12.658-2.913l2.78.821Z" transform="translate(-123)" fill="#245596" fill-rule="evenodd"/>
    <path id="Trazado_19889" data-name="Trazado 19889" d="M1347.029,6105.01q-4.782-1.2-9-2.648a78.818,78.818,0,0,1,4.661-11.069q2.91-5.734,4.634-9.216Z" transform="translate(-123)" fill="#de7f5a" fill-rule="evenodd"/>
    <path id="Trazado_19890" data-name="Trazado 19890" d="M1346.13,6173.464q-.272,1.632-.583,3.256A44.259,44.259,0,0,1,1313.9,6211.6c-.288.082-.58.162-.873.239a24.8,24.8,0,0,1-12.5-.319q-8.578,4.185-13.028,5.138a56.387,56.387,0,0,1-36.862-5.455,61.068,61.068,0,0,1-17.424-13.028,62.056,62.056,0,0,1-9.268-13.082q-.8-1.642-1.748-3.39-1.852-3.39-3.866-7.044,8.1-20.548,35.379-48.248a42.394,42.394,0,0,0,8.473,3.972,13.093,13.093,0,0,0,9.162-.636,1.868,1.868,0,0,0,.477.318c.1.106.213.212.318.318a2.257,2.257,0,0,0,.265.318,1.836,1.836,0,0,0,.477.317,60.431,60.431,0,0,0,22.349,10.593,76.554,76.554,0,0,0,10.169,1.589q19.755,1.8,35.856-7.68,1.377-3.02-.212-7.68a35.385,35.385,0,0,1-2.278-7.838,59.319,59.319,0,0,1,7.785,21.079Zm-16.683-260.494a44.125,44.125,0,0,0,1.481,8.844q2.253,7.734,6.728,11.89a20.4,20.4,0,0,1-4.82.556,19.441,19.441,0,0,1-19.438-19.754,20.077,20.077,0,0,1,19.967-19.755,21.266,21.266,0,0,1,2.383.132q-1.623,2.217-2.859,4.316-3.5,6.091-3.549,11.228,0,1.272.107,2.543" transform="translate(-123)" fill="#e2425b" fill-rule="evenodd"/>
    <path id="Trazado_19891" data-name="Trazado 19891" d="M1351,5802.067l-.265,19.437-397.428,20.655.16-15.73Zm.212-15.624-397.533,26.8.1-8.9,397.613-31.168Zm.4-29.314-397.719,38.318.159-10.91v-.954l397.8-45.415h.028Z" transform="translate(-123)" fill="#f4f2f9" fill-rule="evenodd"/>
    <path id="Trazado_19892" data-name="Trazado 19892" d="M1292.558,5938.656a23.53,23.53,0,0,1-3.522,13.293,7.764,7.764,0,0,1-1.032,1.59,8.552,8.552,0,0,1-2.676,2.118,12.264,12.264,0,0,1-8.844.794,17.2,17.2,0,0,1-5.853-3.548c-.173-.159-.34-.319-.5-.477a18.744,18.744,0,0,1-5.191-8.792,19.549,19.549,0,0,1-.582-3.548,28.834,28.834,0,0,1,.052-7.2,13.012,13.012,0,0,1,1.854-5.3,15.444,15.444,0,0,1,4.4-4.024q1.026-.544,2.092-1.007a33.316,33.316,0,0,1,3.522-1.377,11.421,11.421,0,0,1,3.019.158,13.426,13.426,0,0,1,4.819,1.907c.253.157.5.317.743.477a17.166,17.166,0,0,1,7.148,10.592,16.039,16.039,0,0,1,.425,2.7c.059.549.1,1.1.132,1.642M1274.842,5934a5.008,5.008,0,0,0-2.6-.953h-.053a4.021,4.021,0,0,0-3.973,3.654,10.049,10.049,0,0,0,.425,4.5,8.645,8.645,0,0,0,.476,1.113,9.556,9.556,0,0,0,3.284,4.5,5.669,5.669,0,0,0,2.436,1.111,4.648,4.648,0,0,0,1.747-.318,4.331,4.331,0,0,0,2.437-3.5,8.829,8.829,0,0,0-.422-4.979c-.108-.211-.213-.423-.321-.634a11.992,11.992,0,0,0-1.215-2.251,9.505,9.505,0,0,0-2.226-2.252" transform="translate(-123)" fill="#fee7dd" fill-rule="evenodd"/>
    <path id="Trazado_19893" data-name="Trazado 19893" d="M1283.237,5910.427a68.488,68.488,0,0,0-3.946,10.911,11.421,11.421,0,0,0-3.019-.159,33.136,33.136,0,0,0-3.521,1.377q.165-2.877.343-4.926,1.007-10.433,9.481-22.615a46.373,46.373,0,0,1,21.29-17.08q.291-.126.583-.238,13.187-5.084,19.384.848,6.144,5.772,6.938,8c-.434-.026-.866-.052-1.3-.08q-34.509-1.513-46.156,23.806c-.025.054-.051.106-.079.159" transform="translate(-123)" fill="#c3a99f" fill-rule="evenodd"/>
    <path id="Trazado_19894" data-name="Trazado 19894" d="M1274.842,5934a9.505,9.505,0,0,1,2.226,2.252,11.992,11.992,0,0,1,1.215,2.251c.108.211.213.423.321.634a8.829,8.829,0,0,1,.422,4.979,4.331,4.331,0,0,1-2.437,3.5,4.648,4.648,0,0,1-1.747.318,5.669,5.669,0,0,1-2.436-1.111,9.556,9.556,0,0,1-3.284-4.5,8.645,8.645,0,0,1-.476-1.113,10.049,10.049,0,0,1-.425-4.5,4.021,4.021,0,0,1,3.973-3.654h.053a5.008,5.008,0,0,1,2.6.953" transform="translate(-123)" fill="#e7554d" fill-rule="evenodd"/>
    <path id="Trazado_19895" data-name="Trazado 19895" d="M1207.844,6008.409l2.251,13.04,12.711-1.7,6.111,25.838,29.733-4.862-4.94-23.811,9.507-1.984-2.715-14.457-17.57,3.118s-2.077,6.8-11.387,2.835l-2.628-1.984Z" transform="translate(-123)" fill="#da9b54" fill-rule="evenodd"/>
  </g>
</svg>
