<svg xmlns="http://www.w3.org/2000/svg" width="570.002" height="111.616" viewBox="0 0 570.002 111.616">
  <g id="Grupo_9133" data-name="Grupo 9133" transform="translate(-434.392 -7541.219)">
    <path id="Trazado_19582" data-name="Trazado 19582" d="M1058.523,7633.486c.961-4.715,2.977-11.427,6.81-20.981l1.169-5.4a23.087,23.087,0,0,1,5.872-11.491q4.353-4.482,14.208-8.462,9.461-3.683,12.842-6.542a12.532,12.532,0,0,0,4.3-7.093,8.3,8.3,0,0,0-2.218-8.046q-3.246-3.3-10.022-4.768-11.821-2.561-28.5,1.316l-2.859-9.953H617.582L605.05,7641.99h452.083a14.7,14.7,0,0,1,.272-5.066,17.177,17.177,0,0,1,1.118-3.438" transform="translate(-123)" fill="#f8ca9f"/>
    <path id="Trazado_19583" data-name="Trazado 19583" d="M1066.38,7641.99H566.337l58.2-89.926h488.315l-35.443,64.964Z" transform="translate(-123)" fill="#f8ca9f"/>
    <path id="Trazado_19584" data-name="Trazado 19584" d="M810.253,7582.3v.721a2.879,2.879,0,0,1-.47,1.652,5.747,5.747,0,0,1-1.608,1.445,5.891,5.891,0,0,0-1.449,1.192,1.776,1.776,0,0,0-.3,1.044,1.121,1.121,0,0,0,.459.919,2.243,2.243,0,0,0,1.4.361,6.278,6.278,0,0,0,1.782-.283q.948-.285,1.961-.694l1.075,2.158a10.66,10.66,0,0,1-2.335.883,9.7,9.7,0,0,1-2.42.338,6.176,6.176,0,0,1-3.642-.943,3.009,3.009,0,0,1-1.323-2.593,3.221,3.221,0,0,1,.511-1.825,7.534,7.534,0,0,1,2.019-1.8,6.293,6.293,0,0,0,1.281-1.046,1.524,1.524,0,0,0,.279-.957v-.575Zm.337-3.341a1.568,1.568,0,0,1-.475,1.241,2.025,2.025,0,0,1-1.38.42,1.961,1.961,0,0,1-1.355-.43,1.8,1.8,0,0,1,.01-2.457,1.959,1.959,0,0,1,1.345-.433,2,2,0,0,1,1.37.429,1.56,1.56,0,0,1,.485,1.23" transform="translate(-123)" fill="#040505"/>
    <path id="Trazado_19585" data-name="Trazado 19585" d="M825.623,7578.4a4.216,4.216,0,0,1-1.555,3.526,7.026,7.026,0,0,1-4.423,1.22h-1.4v5.079h-3.268v-14.278H819.9a6.928,6.928,0,0,1,4.265,1.117,3.94,3.94,0,0,1,1.46,3.336m-7.38,2.266h1.076a3.791,3.791,0,0,0,2.256-.553,1.867,1.867,0,0,0,.748-1.6,1.9,1.9,0,0,0-.627-1.572,3.1,3.1,0,0,0-1.966-.508h-1.487Z" transform="translate(-123)" fill="#040505"/>
    <path id="Trazado_19586" data-name="Trazado 19586" d="M838.992,7582.742a5.607,5.607,0,0,1-1.518,4.17,5.75,5.75,0,0,1-4.228,1.5,6.287,6.287,0,0,1-2.994-.69,4.743,4.743,0,0,1-1.993-1.976,6.237,6.237,0,0,1-.7-3.008,5.573,5.573,0,0,1,1.508-4.16,5.781,5.781,0,0,1,4.238-1.485,6.325,6.325,0,0,1,2.994.684,4.719,4.719,0,0,1,1.993,1.963,6.176,6.176,0,0,1,.7,3m-8.15,0a4.311,4.311,0,0,0,.575,2.451,2.114,2.114,0,0,0,1.871.83,2.075,2.075,0,0,0,1.85-.826,4.364,4.364,0,0,0,.564-2.455,4.238,4.238,0,0,0-.569-2.432,2.549,2.549,0,0,0-3.722-.006,4.246,4.246,0,0,0-.569,2.438" transform="translate(-123)" fill="#040505"/>
    <path id="Trazado_19587" data-name="Trazado 19587" d="M848.227,7577.1a5.462,5.462,0,0,1,1.086.089l-.243,2.793a3.911,3.911,0,0,0-.948-.1,3.588,3.588,0,0,0-2.4.733,2.549,2.549,0,0,0-.859,2.051v5.556h-3.216V7577.3h2.435l.475,1.836h.158a4.249,4.249,0,0,1,1.482-1.48,3.862,3.862,0,0,1,2.029-.561" transform="translate(-123)" fill="#040505"/>
    <path id="Trazado_19588" data-name="Trazado 19588" d="M860.795,7588.416a3.938,3.938,0,0,1-3.268-1.49,7.845,7.845,0,0,1,.026-8.324,4.007,4.007,0,0,1,3.3-1.5,4.558,4.558,0,0,1,1.95.39,3.993,3.993,0,0,1,1.466,1.211h.084l.285-1.4h2.72v15.722h-3.226v-4.58a13.263,13.263,0,0,1,.137-1.64h-.137a3.334,3.334,0,0,1-1.371,1.2,4.506,4.506,0,0,1-1.971.41m1.149-2.334a2.263,2.263,0,0,0,1.792-.65,3.66,3.66,0,0,0,.622-2.27v-.361a4.2,4.2,0,0,0-.585-2.52,2.223,2.223,0,0,0-1.882-.761q-2.266,0-2.267,3.3a4.307,4.307,0,0,0,.565,2.451,1.991,1.991,0,0,0,1.755.811" transform="translate(-123)" fill="#040505"/>
    <path id="Trazado_19589" data-name="Trazado 19589" d="M879.075,7588.22l-.432-1.4h-.169a3.321,3.321,0,0,1-1.465,1.176,5.344,5.344,0,0,1-2.162.416,4.306,4.306,0,0,1-3.131-1.032,3.953,3.953,0,0,1-1.054-2.963V7577.3h3.216v6.378a2.888,2.888,0,0,0,.453,1.771,1.7,1.7,0,0,0,1.444.591,2.238,2.238,0,0,0,1.951-.835,4.868,4.868,0,0,0,.6-2.768V7577.3h3.216v10.918Z" transform="translate(-123)" fill="#040505"/>
    <path id="Trazado_19590" data-name="Trazado 19590" d="M890.252,7588.416a6.38,6.38,0,0,1-4.45-1.456,5.282,5.282,0,0,1-1.6-4.121,5.782,5.782,0,0,1,1.481-4.244,5.5,5.5,0,0,1,4.1-1.5,5.434,5.434,0,0,1,3.891,1.319,4.775,4.775,0,0,1,1.391,3.642v1.445h-7.6a2.752,2.752,0,0,0,.812,1.983,2.993,2.993,0,0,0,2.129.713,9.585,9.585,0,0,0,2.014-.205,10.666,10.666,0,0,0,1.982-.655v2.306a8.03,8.03,0,0,1-1.8.579,12.228,12.228,0,0,1-2.34.192m-.454-9.2a2.122,2.122,0,0,0-1.6.6,2.665,2.665,0,0,0-.665,1.705h4.513a2.376,2.376,0,0,0-.622-1.705,2.2,2.2,0,0,0-1.624-.6m-1.855-3.115v-.264a28.039,28.039,0,0,0,2.478-2.939h3.6v.206q-.549.505-1.872,1.507t-2.071,1.49Z" transform="translate(-123)" fill="#040505"/>
    <path id="Trazado_19591" data-name="Trazado 19591" d="M898.9,7583.484v-.722a3.013,3.013,0,0,1,.433-1.631,5.451,5.451,0,0,1,1.581-1.475,6.505,6.505,0,0,0,1.461-1.191,1.646,1.646,0,0,0,.353-1.026,1.084,1.084,0,0,0-.506-.967,2.566,2.566,0,0,0-1.413-.332,8.607,8.607,0,0,0-3.606.957l-1.149-2.138a10.659,10.659,0,0,1,4.987-1.221,5.6,5.6,0,0,1,3.453.967,3.067,3.067,0,0,1,1.28,2.578,3.24,3.24,0,0,1-.526,1.855,7.3,7.3,0,0,1-2,1.758,6.036,6.036,0,0,0-1.281,1.055,1.547,1.547,0,0,0-.269.947v.586Zm-.337,3.34a1.565,1.565,0,0,1,.475-1.24,2.016,2.016,0,0,1,1.381-.42,1.951,1.951,0,0,1,1.354.43,1.79,1.79,0,0,1-.005,2.445,1.919,1.919,0,0,1-1.349.445,1.984,1.984,0,0,1-1.371-.435,1.559,1.559,0,0,1-.485-1.225" transform="translate(-123)" fill="#040505"/>
    <path id="Trazado_19592" data-name="Trazado 19592" d="M820.88,7616.3v.721a2.878,2.878,0,0,1-.47,1.652,5.746,5.746,0,0,1-1.608,1.445,5.89,5.89,0,0,0-1.449,1.192,1.776,1.776,0,0,0-.3,1.044,1.121,1.121,0,0,0,.459.919,2.243,2.243,0,0,0,1.4.361,6.278,6.278,0,0,0,1.782-.283q.948-.285,1.961-.694l1.075,2.158a10.661,10.661,0,0,1-2.335.883,9.7,9.7,0,0,1-2.42.338,6.177,6.177,0,0,1-3.642-.943,3.009,3.009,0,0,1-1.323-2.593,3.222,3.222,0,0,1,.511-1.825,7.533,7.533,0,0,1,2.019-1.8,6.294,6.294,0,0,0,1.281-1.046,1.524,1.524,0,0,0,.279-.957v-.575Zm.337-3.341a1.568,1.568,0,0,1-.475,1.241,2.025,2.025,0,0,1-1.38.42,1.961,1.961,0,0,1-1.355-.43,1.8,1.8,0,0,1,.01-2.457,1.959,1.959,0,0,1,1.345-.433,2,2,0,0,1,1.37.429,1.56,1.56,0,0,1,.485,1.23" transform="translate(-123)" fill="#040505"/>
    <path id="Trazado_19593" data-name="Trazado 19593" d="M832.149,7610.257a3.431,3.431,0,0,0-2.857,1.284,5.647,5.647,0,0,0-1.012,3.58q0,4.776,3.869,4.775a13.087,13.087,0,0,0,3.933-.751v2.539a11.724,11.724,0,0,1-4.239.732,6.732,6.732,0,0,1-5.145-1.891,7.609,7.609,0,0,1-1.781-5.423,8.318,8.318,0,0,1,.875-3.9,6.057,6.057,0,0,1,2.514-2.569,7.919,7.919,0,0,1,3.843-.892,11.053,11.053,0,0,1,4.513,1.006l-1.055,2.461a18.035,18.035,0,0,0-1.739-.664,5.566,5.566,0,0,0-1.719-.284" transform="translate(-123)" fill="#040505"/>
    <path id="Trazado_19594" data-name="Trazado 19594" d="M849.819,7616.742a5.606,5.606,0,0,1-1.518,4.17,5.744,5.744,0,0,1-4.228,1.5,6.282,6.282,0,0,1-2.994-.69,4.746,4.746,0,0,1-1.992-1.976,6.229,6.229,0,0,1-.7-3.008,5.573,5.573,0,0,1,1.508-4.16,5.776,5.776,0,0,1,4.238-1.485,6.332,6.332,0,0,1,2.995.684,4.722,4.722,0,0,1,1.992,1.963,6.174,6.174,0,0,1,.7,3m-8.15,0a4.311,4.311,0,0,0,.575,2.451,2.113,2.113,0,0,0,1.871.83,2.077,2.077,0,0,0,1.851-.826,4.364,4.364,0,0,0,.564-2.455,4.232,4.232,0,0,0-.57-2.431,2.547,2.547,0,0,0-3.721-.007,4.235,4.235,0,0,0-.57,2.438m.675-6.641v-.264a27.915,27.915,0,0,0,2.478-2.939h3.6v.206q-.547.505-1.871,1.507t-2.071,1.49Z" transform="translate(-123)" fill="#040505"/>
    <path id="Trazado_19595" data-name="Trazado 19595" d="M863.029,7622.22h-3.215v-6.377a3.025,3.025,0,0,0-.428-1.773,1.543,1.543,0,0,0-1.344-.59,1.992,1.992,0,0,0-1.792.84,5.155,5.155,0,0,0-.559,2.763v5.137h-3.215V7611.3h2.456l.432,1.4h.18a3.184,3.184,0,0,1,1.37-1.178,4.745,4.745,0,0,1,2.056-.423q2.646,0,3.584,1.6h.285a3.089,3.089,0,0,1,1.4-1.181,4.952,4.952,0,0,1,2.083-.42,4.315,4.315,0,0,1,3.03.95,3.991,3.991,0,0,1,1.029,3.054v7.118h-3.227v-6.377a3.026,3.026,0,0,0-.427-1.773,1.544,1.544,0,0,0-1.344-.59,2.065,2.065,0,0,0-1.766.781,4.173,4.173,0,0,0-.585,2.481Z" transform="translate(-123)" fill="#040505"/>
    <path id="Trazado_19596" data-name="Trazado 19596" d="M884.389,7616.742a5.607,5.607,0,0,1-1.518,4.17,5.75,5.75,0,0,1-4.228,1.5,6.287,6.287,0,0,1-2.994-.69,4.742,4.742,0,0,1-1.993-1.976,6.237,6.237,0,0,1-.7-3.008,5.573,5.573,0,0,1,1.508-4.16,5.78,5.78,0,0,1,4.238-1.485,6.326,6.326,0,0,1,2.994.684,4.719,4.719,0,0,1,1.993,1.963,6.176,6.176,0,0,1,.7,3m-8.15,0a4.311,4.311,0,0,0,.575,2.451,2.113,2.113,0,0,0,1.871.83,2.075,2.075,0,0,0,1.85-.826,4.364,4.364,0,0,0,.564-2.455,4.239,4.239,0,0,0-.569-2.432,2.549,2.549,0,0,0-3.722-.006,4.246,4.246,0,0,0-.569,2.438" transform="translate(-123)" fill="#040505"/>
    <path id="Trazado_19597" data-name="Trazado 19597" d="M888.268,7617.484v-.722a3.013,3.013,0,0,1,.433-1.631,5.451,5.451,0,0,1,1.581-1.475,6.505,6.505,0,0,0,1.461-1.191,1.646,1.646,0,0,0,.353-1.026,1.084,1.084,0,0,0-.506-.967,2.566,2.566,0,0,0-1.413-.332,8.607,8.607,0,0,0-3.606.957l-1.149-2.138a10.658,10.658,0,0,1,4.987-1.221,5.6,5.6,0,0,1,3.453.967,3.067,3.067,0,0,1,1.28,2.578,3.24,3.24,0,0,1-.526,1.855,7.3,7.3,0,0,1-2,1.758,6.036,6.036,0,0,0-1.281,1.055,1.546,1.546,0,0,0-.269.947v.586Zm-.337,3.34a1.565,1.565,0,0,1,.475-1.24,2.016,2.016,0,0,1,1.381-.42,1.951,1.951,0,0,1,1.354.43,1.79,1.79,0,0,1-.005,2.445,1.919,1.919,0,0,1-1.349.445,1.984,1.984,0,0,1-1.371-.435,1.559,1.559,0,0,1-.485-1.225" transform="translate(-123)" fill="#040505"/>
    <path id="Trazado_19598" data-name="Trazado 19598" d="M1057.405,7636.924q1.328-6.133,5.554-8.5t11-.9q6.54,1.414,9.431,5.4t1.593,9.973q-1.25,5.768-5.591,8.3t-10.808,1.136q-6.62-1.431-9.541-5.466t-1.641-9.946m7.928-24.419,1.17-5.4a23.1,23.1,0,0,1,5.871-11.492q4.353-4.482,14.208-8.462,9.462-3.683,12.843-6.542a12.541,12.541,0,0,0,4.3-7.092,8.3,8.3,0,0,0-2.218-8.046q-3.246-3.3-10.023-4.769-11.821-2.561-28.5,1.317l-5.127-17.848a81.615,81.615,0,0,1,39.251-1.051q16.234,3.516,24.245,12.817a23.475,23.475,0,0,1,5.4,21.344,24.754,24.754,0,0,1-6.944,13.015q-5.2,4.989-17.819,9.9-8.688,3.548-11.282,5.81a11.855,11.855,0,0,0-3.543,6.646l-.948,4.38Z" transform="translate(-123)" fill="#0f68a1"/>
    <path id="Trazado_19599" data-name="Trazado 19599" d="M627.381,7557.13q-1.328,6.134-5.553,8.5t-11,.9q-6.542-1.417-9.432-5.405t-1.593-9.974q1.25-5.766,5.592-8.3t10.808-1.136q6.619,1.431,9.541,5.467t1.64,9.945m-7.928,24.419-1.17,5.4a23.082,23.082,0,0,1-5.871,11.491q-4.353,4.484-14.208,8.461-9.462,3.684-12.843,6.543a12.548,12.548,0,0,0-4.3,7.093,8.3,8.3,0,0,0,2.218,8.045q3.246,3.3,10.022,4.77,11.822,2.561,28.5-1.317l5.127,17.847a81.628,81.628,0,0,1-39.251,1.052q-16.234-3.516-24.245-12.817a23.475,23.475,0,0,1-5.4-21.345,24.763,24.763,0,0,1,6.944-13.015q5.207-4.987,17.818-9.9,8.688-3.547,11.283-5.811a11.838,11.838,0,0,0,3.542-6.646l.949-4.38Z" transform="translate(-123)" fill="#0f68a1"/>
  </g>
</svg>
