<svg xmlns="http://www.w3.org/2000/svg" width="1140.003" height="111.615" viewBox="0 0 1140.003 111.615">
  <g id="Grupo_9132" data-name="Grupo 9132" transform="translate(-149.391 -7721.577)">
    <path id="Trazado_19682" data-name="Trazado 19682" d="M1397.847,7732.42H332.581l-1.907,13.686-49.339,76.242H1351.38l11.025-24.963,18.639-34.165a21.779,21.779,0,0,0,3.381-2.254,12.545,12.545,0,0,0,4.3-7.093,8.993,8.993,0,0,0-.1-4.551Z" transform="translate(-123)" fill="#f8ca9f"/>
    <path id="Trazado_19683" data-name="Trazado 19683" d="M522.4,7762.659v.722a2.876,2.876,0,0,1-.47,1.651,5.739,5.739,0,0,1-1.608,1.445,5.915,5.915,0,0,0-1.449,1.192,1.778,1.778,0,0,0-.3,1.045,1.121,1.121,0,0,0,.459.918,2.236,2.236,0,0,0,1.4.361,6.279,6.279,0,0,0,1.782-.283q.948-.283,1.961-.694l1.075,2.158a10.66,10.66,0,0,1-2.335.884,9.678,9.678,0,0,1-2.42.337,6.184,6.184,0,0,1-3.642-.942,3.01,3.01,0,0,1-1.323-2.593,3.226,3.226,0,0,1,.511-1.826,7.55,7.55,0,0,1,2.019-1.8,6.3,6.3,0,0,0,1.281-1.045,1.524,1.524,0,0,0,.279-.957v-.576Zm.337-3.34a1.567,1.567,0,0,1-.475,1.24,2.015,2.015,0,0,1-1.38.42,1.957,1.957,0,0,1-1.355-.43,1.8,1.8,0,0,1,.01-2.456,1.962,1.962,0,0,1,1.345-.434,2,2,0,0,1,1.37.43,1.557,1.557,0,0,1,.485,1.23" transform="translate(-123)" fill="#040505"/>
    <path id="Trazado_19684" data-name="Trazado 19684" d="M533.67,7756.614a3.431,3.431,0,0,0-2.857,1.284,5.648,5.648,0,0,0-1.012,3.579q0,4.776,3.869,4.776a13.093,13.093,0,0,0,3.933-.752v2.539a11.7,11.7,0,0,1-4.239.732,6.735,6.735,0,0,1-5.145-1.889,7.616,7.616,0,0,1-1.781-5.425,8.317,8.317,0,0,1,.875-3.9,6.049,6.049,0,0,1,2.514-2.568,7.908,7.908,0,0,1,3.843-.894,11.052,11.052,0,0,1,4.513,1.006l-1.055,2.461a18.3,18.3,0,0,0-1.739-.664,5.593,5.593,0,0,0-1.719-.283" transform="translate(-123)" fill="#040505"/>
    <path id="Trazado_19685" data-name="Trazado 19685" d="M548.978,7768.577l-.432-1.4h-.169a3.328,3.328,0,0,1-1.465,1.176,5.344,5.344,0,0,1-2.162.415,4.305,4.305,0,0,1-3.131-1.03,3.957,3.957,0,0,1-1.054-2.964v-7.119h3.216v6.377a2.886,2.886,0,0,0,.453,1.772,1.7,1.7,0,0,0,1.444.591,2.238,2.238,0,0,0,1.951-.835,4.868,4.868,0,0,0,.6-2.768v-5.137h3.216v10.918Z" transform="translate(-123)" fill="#040505"/>
    <path id="Trazado_19686" data-name="Trazado 19686" d="M562.3,7768.577l-.622-1.484H561.6a4.667,4.667,0,0,1-1.67,1.313,5.784,5.784,0,0,1-2.241.366,3.792,3.792,0,0,1-2.673-.9,3.31,3.31,0,0,1-.975-2.559,2.813,2.813,0,0,1,1.313-2.563,8.079,8.079,0,0,1,3.959-.913l2.045-.059v-.478q0-1.66-1.834-1.66a8.884,8.884,0,0,0-3.322.791l-1.064-2.012a10.215,10.215,0,0,1,4.512-.986,5.939,5.939,0,0,1,3.637.957,3.413,3.413,0,0,1,1.266,2.91v7.275Zm-.949-5.058-1.244.039a4.238,4.238,0,0,0-2.087.468,1.44,1.44,0,0,0-.686,1.309q0,1.26,1.561,1.26a2.593,2.593,0,0,0,1.787-.6,2.015,2.015,0,0,0,.669-1.582Zm-3.574-7.061v-.264a27.811,27.811,0,0,0,2.478-2.939h3.605v.205q-.547.508-1.871,1.509t-2.072,1.489Z" transform="translate(-123)" fill="#040505"/>
    <path id="Trazado_19687" data-name="Trazado 19687" d="M578.74,7768.577h-3.215V7762.2a2.887,2.887,0,0,0-.454-1.772,1.7,1.7,0,0,0-1.444-.591,2.236,2.236,0,0,0-1.95.835,4.857,4.857,0,0,0-.6,2.768v5.137H567.86v-10.918h2.457l.432,1.4h.179a3.332,3.332,0,0,1,1.481-1.2,5.411,5.411,0,0,1,2.145-.4,4.323,4.323,0,0,1,3.122,1.03,3.954,3.954,0,0,1,1.064,2.974Z" transform="translate(-123)" fill="#040505"/>
    <path id="Trazado_19688" data-name="Trazado 19688" d="M587.017,7766.4a7.464,7.464,0,0,0,2.024-.342v2.217a7.723,7.723,0,0,1-2.952.5,3.784,3.784,0,0,1-2.809-.9,3.741,3.741,0,0,1-.881-2.71V7759.9H580.86v-1.26l1.771-1,.928-2.3h2.056v2.324h3.3v2.236h-3.3v5.264a1.118,1.118,0,0,0,.385.937,1.6,1.6,0,0,0,1.017.3" transform="translate(-123)" fill="#040505"/>
    <path id="Trazado_19689" data-name="Trazado 19689" d="M602.136,7763.1a5.609,5.609,0,0,1-1.518,4.171,5.749,5.749,0,0,1-4.228,1.5,6.287,6.287,0,0,1-2.994-.689,4.739,4.739,0,0,1-1.993-1.977,6.231,6.231,0,0,1-.7-3.008,5.573,5.573,0,0,1,1.508-4.16,5.786,5.786,0,0,1,4.238-1.484,6.32,6.32,0,0,1,2.994.683,4.728,4.728,0,0,1,1.993,1.964,6.17,6.17,0,0,1,.7,3m-8.15,0a4.306,4.306,0,0,0,.575,2.451,2.109,2.109,0,0,0,1.871.83,2.076,2.076,0,0,0,1.85-.825,4.368,4.368,0,0,0,.564-2.456,4.237,4.237,0,0,0-.569-2.431,2.546,2.546,0,0,0-3.722,0,4.241,4.241,0,0,0-.569,2.436" transform="translate(-123)" fill="#040505"/>
    <path id="Trazado_19690" data-name="Trazado 19690" d="M613.015,7765.334a2.925,2.925,0,0,1-1.26,2.56,6.613,6.613,0,0,1-3.769.879,12.66,12.66,0,0,1-2.193-.162,8.782,8.782,0,0,1-1.7-.473v-2.461a11.763,11.763,0,0,0,2.019.654,8.781,8.781,0,0,0,1.977.264q1.749,0,1.75-.938a.749.749,0,0,0-.232-.571,3.329,3.329,0,0,0-.8-.5q-.568-.279-1.518-.65a9.784,9.784,0,0,1-2-.976,2.812,2.812,0,0,1-.927-1.03,3.179,3.179,0,0,1-.29-1.432,2.539,2.539,0,0,1,1.217-2.25,6.307,6.307,0,0,1,3.453-.8,10.464,10.464,0,0,1,4.144.859l-.97,2.149q-.887-.351-1.655-.576a5.567,5.567,0,0,0-1.571-.225q-1.423,0-1.424.713a.829.829,0,0,0,.459.693,12.784,12.784,0,0,0,2.008.87,9.6,9.6,0,0,1,2.025.966,2.944,2.944,0,0,1,.948,1.035,2.983,2.983,0,0,1,.306,1.4" transform="translate(-123)" fill="#040505"/>
    <path id="Trazado_19691" data-name="Trazado 19691" d="M616.747,7763.84v-.721a3.018,3.018,0,0,1,.433-1.632,5.463,5.463,0,0,1,1.581-1.475,6.517,6.517,0,0,0,1.461-1.191,1.641,1.641,0,0,0,.353-1.026,1.084,1.084,0,0,0-.506-.966,2.558,2.558,0,0,0-1.413-.332,8.607,8.607,0,0,0-3.606.957l-1.149-2.139a10.67,10.67,0,0,1,4.987-1.221,5.6,5.6,0,0,1,3.453.968,3.066,3.066,0,0,1,1.28,2.578,3.24,3.24,0,0,1-.526,1.855,7.284,7.284,0,0,1-2,1.757,6,6,0,0,0-1.281,1.056,1.543,1.543,0,0,0-.269.946v.586Zm-.337,3.34a1.567,1.567,0,0,1,.475-1.24,2.016,2.016,0,0,1,1.381-.419,1.96,1.96,0,0,1,1.354.429,1.791,1.791,0,0,1-.005,2.446,1.924,1.924,0,0,1-1.349.444,1.988,1.988,0,0,1-1.371-.434,1.559,1.559,0,0,1-.485-1.226" transform="translate(-123)" fill="#040505"/>
    <path id="Trazado_19692" data-name="Trazado 19692" d="M534.272,7796.659v.722a2.876,2.876,0,0,1-.47,1.651,5.738,5.738,0,0,1-1.608,1.445,5.914,5.914,0,0,0-1.449,1.192,1.778,1.778,0,0,0-.3,1.045,1.121,1.121,0,0,0,.459.918,2.236,2.236,0,0,0,1.4.361,6.278,6.278,0,0,0,1.782-.283q.948-.283,1.961-.694l1.075,2.158a10.66,10.66,0,0,1-2.335.884,9.679,9.679,0,0,1-2.42.337,6.184,6.184,0,0,1-3.642-.942,3.01,3.01,0,0,1-1.323-2.593,3.226,3.226,0,0,1,.511-1.826,7.551,7.551,0,0,1,2.019-1.8,6.3,6.3,0,0,0,1.281-1.045,1.524,1.524,0,0,0,.279-.957v-.576Zm.337-3.34a1.567,1.567,0,0,1-.475,1.24,2.015,2.015,0,0,1-1.38.42,1.957,1.957,0,0,1-1.355-.43,1.8,1.8,0,0,1,.01-2.456,1.962,1.962,0,0,1,1.345-.434,2,2,0,0,1,1.37.43,1.557,1.557,0,0,1,.485,1.23" transform="translate(-123)" fill="#040505"/>
    <path id="Trazado_19693" data-name="Trazado 19693" d="M552.985,7795.418a8.472,8.472,0,0,1-.964,4.225,5.728,5.728,0,0,1-2.831,2.5l3.711,3.838h-4.186l-2.825-3.2h-.243a7.735,7.735,0,0,1-5.434-12.817,7.435,7.435,0,0,1,5.455-1.88,6.6,6.6,0,0,1,7.317,7.343m-11.249,0a5.637,5.637,0,0,0,.98,3.6,3.546,3.546,0,0,0,2.931,1.211q3.912,0,3.912-4.815t-3.891-4.823a3.569,3.569,0,0,0-2.941,1.216,5.607,5.607,0,0,0-.991,3.607" transform="translate(-123)" fill="#040505"/>
    <path id="Trazado_19694" data-name="Trazado 19694" d="M564.276,7802.577l-.432-1.4h-.169a3.328,3.328,0,0,1-1.465,1.176,5.344,5.344,0,0,1-2.162.415,4.305,4.305,0,0,1-3.131-1.03,3.957,3.957,0,0,1-1.054-2.964v-7.119h3.216v6.377a2.886,2.886,0,0,0,.453,1.772,1.7,1.7,0,0,0,1.444.591,2.238,2.238,0,0,0,1.951-.835,4.867,4.867,0,0,0,.6-2.768v-5.137h3.216v10.918Z" transform="translate(-123)" fill="#040505"/>
    <path id="Trazado_19695" data-name="Trazado 19695" d="M569.98,7788.836q0-1.453,1.75-1.455t1.75,1.455a1.362,1.362,0,0,1-.437,1.079,1.933,1.933,0,0,1-1.313.386q-1.749,0-1.75-1.465m3.353,13.74h-3.215v-10.918h3.215Z" transform="translate(-123)" fill="#040505"/>
    <path id="Trazado_19696" data-name="Trazado 19696" d="M582.042,7802.772a6.379,6.379,0,0,1-4.45-1.455,5.28,5.28,0,0,1-1.6-4.121,5.782,5.782,0,0,1,1.481-4.243,5.5,5.5,0,0,1,4.1-1.5,5.438,5.438,0,0,1,3.891,1.318,4.78,4.78,0,0,1,1.391,3.643v1.445h-7.6a2.75,2.75,0,0,0,.812,1.983,2.989,2.989,0,0,0,2.129.713,9.585,9.585,0,0,0,2.014-.205,10.594,10.594,0,0,0,1.982-.655V7802a7.911,7.911,0,0,1-1.8.581,12.246,12.246,0,0,1-2.34.19m-.454-9.2a2.119,2.119,0,0,0-1.6.6,2.665,2.665,0,0,0-.665,1.7h4.513a2.376,2.376,0,0,0-.622-1.7,2.194,2.194,0,0,0-1.624-.6m-1.855-3.115v-.264a27.937,27.937,0,0,0,2.478-2.939h3.6v.205q-.549.508-1.872,1.509t-2.071,1.489Z" transform="translate(-123)" fill="#040505"/>
    <path id="Trazado_19697" data-name="Trazado 19697" d="M600.344,7802.577h-3.216V7796.2a2.88,2.88,0,0,0-.454-1.772,1.7,1.7,0,0,0-1.444-.591,2.237,2.237,0,0,0-1.95.835,4.857,4.857,0,0,0-.6,2.768v5.137h-3.214v-10.918h2.456l.432,1.4h.179a3.331,3.331,0,0,1,1.481-1.2,5.411,5.411,0,0,1,2.145-.4,4.321,4.321,0,0,1,3.122,1.03,3.955,3.955,0,0,1,1.065,2.974Z" transform="translate(-123)" fill="#040505"/>
    <path id="Trazado_19698" data-name="Trazado 19698" d="M604.877,7797.84v-.721a3.018,3.018,0,0,1,.433-1.632,5.463,5.463,0,0,1,1.581-1.475,6.517,6.517,0,0,0,1.461-1.191,1.641,1.641,0,0,0,.353-1.026,1.084,1.084,0,0,0-.506-.966,2.558,2.558,0,0,0-1.413-.332,8.607,8.607,0,0,0-3.606.957l-1.149-2.139a10.67,10.67,0,0,1,4.987-1.221,5.6,5.6,0,0,1,3.453.968,3.066,3.066,0,0,1,1.28,2.578,3.24,3.24,0,0,1-.526,1.855,7.284,7.284,0,0,1-2,1.757,6,6,0,0,0-1.281,1.056,1.543,1.543,0,0,0-.269.946v.586Zm-.337,3.34a1.567,1.567,0,0,1,.475-1.24,2.016,2.016,0,0,1,1.381-.419,1.96,1.96,0,0,1,1.354.429,1.791,1.791,0,0,1-.005,2.446,1.924,1.924,0,0,1-1.349.444,1.988,1.988,0,0,1-1.371-.434,1.559,1.559,0,0,1-.485-1.226" transform="translate(-123)" fill="#040505"/>
    <path id="Trazado_19699" data-name="Trazado 19699" d="M342.38,7737.487q-1.328,6.133-5.553,8.5t-11,.9q-6.541-1.416-9.432-5.405t-1.594-9.975q1.251-5.766,5.593-8.3t10.808-1.137q6.619,1.433,9.54,5.467t1.641,9.946m-7.928,24.419-1.17,5.4a23.093,23.093,0,0,1-5.871,11.492q-4.353,4.482-14.209,8.461-9.461,3.684-12.842,6.542a12.551,12.551,0,0,0-4.3,7.093,8.3,8.3,0,0,0,2.218,8.046q3.246,3.3,10.022,4.77,11.821,2.559,28.5-1.318l5.127,17.847a81.616,81.616,0,0,1-39.251,1.052q-16.234-3.516-24.245-12.817a23.472,23.472,0,0,1-5.4-21.344,24.763,24.763,0,0,1,6.944-13.016q5.206-4.988,17.818-9.9,8.688-3.546,11.283-5.81a11.845,11.845,0,0,0,3.542-6.647l.949-4.379Z" transform="translate(-123)" fill="#0f68a1"/>
    <path id="Trazado_19700" data-name="Trazado 19700" d="M1024.734,7762.659v.722a2.876,2.876,0,0,1-.469,1.651,5.738,5.738,0,0,1-1.608,1.445,5.914,5.914,0,0,0-1.449,1.192,1.778,1.778,0,0,0-.3,1.045,1.121,1.121,0,0,0,.459.918,2.235,2.235,0,0,0,1.4.361,6.28,6.28,0,0,0,1.783-.283q.948-.283,1.961-.694l1.075,2.158a10.662,10.662,0,0,1-2.335.884,9.678,9.678,0,0,1-2.42.337,6.187,6.187,0,0,1-3.643-.942,3.012,3.012,0,0,1-1.323-2.593,3.226,3.226,0,0,1,.512-1.826,7.559,7.559,0,0,1,2.018-1.8,6.315,6.315,0,0,0,1.282-1.045,1.524,1.524,0,0,0,.279-.957v-.576Zm.338-3.34a1.567,1.567,0,0,1-.475,1.24,2.016,2.016,0,0,1-1.38.42,1.961,1.961,0,0,1-1.356-.43,1.8,1.8,0,0,1,.011-2.456,1.961,1.961,0,0,1,1.345-.434,2,2,0,0,1,1.37.43,1.557,1.557,0,0,1,.485,1.23" transform="translate(-123)" fill="#040505"/>
    <path id="Trazado_19701" data-name="Trazado 19701" d="M1036.005,7756.614a3.43,3.43,0,0,0-2.857,1.284,5.648,5.648,0,0,0-1.012,3.579q0,4.776,3.869,4.776a13.1,13.1,0,0,0,3.933-.752v2.539a11.7,11.7,0,0,1-4.239.732,6.735,6.735,0,0,1-5.145-1.889,7.612,7.612,0,0,1-1.781-5.425,8.317,8.317,0,0,1,.875-3.9,6.049,6.049,0,0,1,2.514-2.568,7.909,7.909,0,0,1,3.843-.894,11.052,11.052,0,0,1,4.513,1.006l-1.055,2.461a18.3,18.3,0,0,0-1.739-.664,5.593,5.593,0,0,0-1.719-.283" transform="translate(-123)" fill="#040505"/>
    <path id="Trazado_19702" data-name="Trazado 19702" d="M1053.674,7763.1a5.606,5.606,0,0,1-1.518,4.171,5.748,5.748,0,0,1-4.228,1.5,6.287,6.287,0,0,1-2.994-.689,4.742,4.742,0,0,1-1.992-1.977,6.22,6.22,0,0,1-.7-3.008,5.572,5.572,0,0,1,1.507-4.16,5.787,5.787,0,0,1,4.239-1.484,6.322,6.322,0,0,1,2.994.683,4.731,4.731,0,0,1,1.992,1.964,6.17,6.17,0,0,1,.7,3m-8.15,0a4.305,4.305,0,0,0,.575,2.451,2.109,2.109,0,0,0,1.871.83,2.078,2.078,0,0,0,1.851-.825,4.369,4.369,0,0,0,.563-2.456,4.237,4.237,0,0,0-.569-2.431,2.546,2.546,0,0,0-3.722,0,4.241,4.241,0,0,0-.569,2.436" transform="translate(-123)" fill="#040505"/>
    <path id="Trazado_19703" data-name="Trazado 19703" d="M1067.211,7768.577H1064V7762.2a2.88,2.88,0,0,0-.454-1.772,1.7,1.7,0,0,0-1.444-.591,2.236,2.236,0,0,0-1.95.835,4.858,4.858,0,0,0-.6,2.768v5.137h-3.216v-10.918h2.457l.432,1.4h.179a3.334,3.334,0,0,1,1.482-1.2,5.406,5.406,0,0,1,2.144-.4,4.321,4.321,0,0,1,3.122,1.03,3.95,3.95,0,0,1,1.064,2.974Z" transform="translate(-123)" fill="#040505"/>
    <path id="Trazado_19704" data-name="Trazado 19704" d="M1079.863,7768.772a3.94,3.94,0,0,1-3.269-1.489,7.853,7.853,0,0,1,.026-8.325,4.009,4.009,0,0,1,3.306-1.5,4.553,4.553,0,0,1,1.95.39,3.984,3.984,0,0,1,1.465,1.211h.085l.284-1.4h2.721v15.722H1083.2v-4.58a13.471,13.471,0,0,1,.137-1.64h-.137a3.325,3.325,0,0,1-1.37,1.2,4.506,4.506,0,0,1-1.971.41m1.149-2.334a2.265,2.265,0,0,0,1.792-.649,3.662,3.662,0,0,0,.622-2.271v-.361a4.2,4.2,0,0,0-.585-2.52,2.223,2.223,0,0,0-1.882-.761q-2.266,0-2.267,3.3a4.314,4.314,0,0,0,.564,2.451,1.992,1.992,0,0,0,1.756.811" transform="translate(-123)" fill="#040505"/>
    <path id="Trazado_19705" data-name="Trazado 19705" d="M1098.144,7768.577l-.433-1.4h-.168a3.328,3.328,0,0,1-1.465,1.176,5.347,5.347,0,0,1-2.162.415,4.305,4.305,0,0,1-3.131-1.03,3.957,3.957,0,0,1-1.054-2.964v-7.119h3.216v6.377a2.879,2.879,0,0,0,.453,1.772,1.7,1.7,0,0,0,1.444.591,2.235,2.235,0,0,0,1.95-.835,4.858,4.858,0,0,0,.6-2.768v-5.137h3.216v10.918Z" transform="translate(-123)" fill="#040505"/>
    <path id="Trazado_19706" data-name="Trazado 19706" d="M1109.32,7768.772a6.379,6.379,0,0,1-4.45-1.455,5.28,5.28,0,0,1-1.6-4.121,5.782,5.782,0,0,1,1.481-4.243,5.5,5.5,0,0,1,4.1-1.5,5.438,5.438,0,0,1,3.891,1.318,4.78,4.78,0,0,1,1.391,3.643v1.445h-7.6a2.753,2.753,0,0,0,.811,1.983,2.991,2.991,0,0,0,2.13.713,9.584,9.584,0,0,0,2.014-.205,10.591,10.591,0,0,0,1.982-.655V7768a7.928,7.928,0,0,1-1.8.581,12.246,12.246,0,0,1-2.34.19m-.454-9.2a2.119,2.119,0,0,0-1.6.6,2.665,2.665,0,0,0-.665,1.7h4.513a2.376,2.376,0,0,0-.622-1.7,2.194,2.194,0,0,0-1.624-.6m-1.855-3.115v-.264a28.061,28.061,0,0,0,2.478-2.939h3.6v.205q-.549.508-1.872,1.509t-2.071,1.489Z" transform="translate(-123)" fill="#040505"/>
    <path id="Trazado_19707" data-name="Trazado 19707" d="M1128.866,7759.9h-2.783v8.682h-3.215V7759.9H1121.1v-1.436l1.772-.8v-.8a3.429,3.429,0,0,1,.99-2.725,4.8,4.8,0,0,1,3.174-.859,8.856,8.856,0,0,1,2.963.459l-.822,2.187a6.464,6.464,0,0,0-1.793-.283,1.211,1.211,0,0,0-.992.376,1.48,1.48,0,0,0-.3.962v.684h2.783Z" transform="translate(-123)" fill="#040505"/>
    <path id="Trazado_19708" data-name="Trazado 19708" d="M1137.29,7757.454a5.546,5.546,0,0,1,1.086.088l-.242,2.793a3.918,3.918,0,0,0-.949-.1,3.58,3.58,0,0,0-2.4.733,2.548,2.548,0,0,0-.859,2.05v5.557h-3.215v-10.918h2.434l.475,1.836h.158a4.246,4.246,0,0,1,1.482-1.479,3.86,3.86,0,0,1,2.029-.562" transform="translate(-123)" fill="#040505"/>
    <path id="Trazado_19709" data-name="Trazado 19709" d="M1145.85,7768.772a6.377,6.377,0,0,1-4.449-1.455,5.284,5.284,0,0,1-1.6-4.121,5.783,5.783,0,0,1,1.482-4.243,5.5,5.5,0,0,1,4.1-1.5,5.431,5.431,0,0,1,3.89,1.318,4.777,4.777,0,0,1,1.392,3.643v1.445h-7.6a2.75,2.75,0,0,0,.813,1.983,2.99,2.99,0,0,0,2.129.712,9.5,9.5,0,0,0,2.013-.205,10.522,10.522,0,0,0,1.983-.654V7768a7.974,7.974,0,0,1-1.8.581,12.257,12.257,0,0,1-2.341.19m-.453-9.2a2.123,2.123,0,0,0-1.6.6,2.663,2.663,0,0,0-.664,1.7h4.513a2.378,2.378,0,0,0-.622-1.7,2.194,2.194,0,0,0-1.624-.6" transform="translate(-123)" fill="#040505"/>
    <path id="Trazado_19710" data-name="Trazado 19710" d="M1158.059,7768.772q-5.5,0-5.5-5.6a5.7,5.7,0,0,1,1.5-4.253,5.875,5.875,0,0,1,4.291-1.469,8.728,8.728,0,0,1,3.669.742l-.948,2.305q-.759-.283-1.413-.464a4.9,4.9,0,0,0-1.308-.181q-2.509,0-2.509,3.3,0,3.2,2.509,3.2a6.1,6.1,0,0,0,1.719-.23,6.412,6.412,0,0,0,1.582-.717v2.548a5.417,5.417,0,0,1-1.576.635,9.581,9.581,0,0,1-2.009.176" transform="translate(-123)" fill="#040505"/>
    <path id="Trazado_19711" data-name="Trazado 19711" d="M1172.724,7768.577l-.433-1.4h-.168a3.328,3.328,0,0,1-1.465,1.176,5.347,5.347,0,0,1-2.162.415,4.305,4.305,0,0,1-3.131-1.03,3.957,3.957,0,0,1-1.054-2.964v-7.119h3.216v6.377a2.879,2.879,0,0,0,.453,1.772,1.7,1.7,0,0,0,1.444.591,2.235,2.235,0,0,0,1.95-.835,4.858,4.858,0,0,0,.6-2.768v-5.137h3.216v10.918Z" transform="translate(-123)" fill="#040505"/>
    <path id="Trazado_19712" data-name="Trazado 19712" d="M1183.9,7768.772a6.377,6.377,0,0,1-4.449-1.455,5.284,5.284,0,0,1-1.6-4.121,5.783,5.783,0,0,1,1.482-4.243,5.5,5.5,0,0,1,4.1-1.5,5.431,5.431,0,0,1,3.89,1.318,4.777,4.777,0,0,1,1.392,3.643v1.445h-7.6a2.754,2.754,0,0,0,.812,1.983,2.991,2.991,0,0,0,2.13.712,9.512,9.512,0,0,0,2.013-.205,10.547,10.547,0,0,0,1.983-.654V7768a7.99,7.99,0,0,1-1.8.581,12.255,12.255,0,0,1-2.341.19m-.453-9.2a2.12,2.12,0,0,0-1.6.6,2.669,2.669,0,0,0-.665,1.7h4.513a2.374,2.374,0,0,0-.622-1.7,2.19,2.19,0,0,0-1.623-.6" transform="translate(-123)" fill="#040505"/>
    <path id="Trazado_19713" data-name="Trazado 19713" d="M1202.2,7768.577h-3.215V7762.2a2.879,2.879,0,0,0-.454-1.772,1.7,1.7,0,0,0-1.444-.591,2.236,2.236,0,0,0-1.95.835,4.858,4.858,0,0,0-.6,2.768v5.137h-3.216v-10.918h2.457l.432,1.4h.179a3.334,3.334,0,0,1,1.482-1.2,5.406,5.406,0,0,1,2.144-.4,4.321,4.321,0,0,1,3.122,1.03,3.95,3.95,0,0,1,1.064,2.974Z" transform="translate(-123)" fill="#040505"/>
    <path id="Trazado_19714" data-name="Trazado 19714" d="M1210.3,7768.772q-5.505,0-5.5-5.6a5.7,5.7,0,0,1,1.5-4.253,5.879,5.879,0,0,1,4.291-1.469,8.722,8.722,0,0,1,3.669.742l-.948,2.305q-.759-.283-1.413-.464a4.9,4.9,0,0,0-1.308-.181q-2.508,0-2.509,3.3,0,3.2,2.509,3.2a6.087,6.087,0,0,0,1.719-.23,6.416,6.416,0,0,0,1.583-.717v2.548a5.412,5.412,0,0,1-1.577.635,9.571,9.571,0,0,1-2.008.176" transform="translate(-123)" fill="#040505"/>
    <path id="Trazado_19715" data-name="Trazado 19715" d="M1216.477,7754.836q0-1.453,1.75-1.455t1.75,1.455a1.362,1.362,0,0,1-.437,1.079,1.931,1.931,0,0,1-1.313.386q-1.749,0-1.75-1.465m3.353,13.74h-3.215v-10.918h3.215Z" transform="translate(-123)" fill="#040505"/>
    <path id="Trazado_19716" data-name="Trazado 19716" d="M1230.689,7768.577l-.622-1.485h-.084a4.665,4.665,0,0,1-1.671,1.314,5.782,5.782,0,0,1-2.24.366,3.8,3.8,0,0,1-2.673-.9,3.308,3.308,0,0,1-.975-2.559,2.813,2.813,0,0,1,1.312-2.564,8.1,8.1,0,0,1,3.959-.913l2.046-.058v-.479q0-1.659-1.835-1.66a8.9,8.9,0,0,0-3.321.791l-1.065-2.012a10.222,10.222,0,0,1,4.513-.986,5.941,5.941,0,0,1,3.637.957,3.417,3.417,0,0,1,1.265,2.91v7.276Zm-.948-5.059-1.244.039a4.241,4.241,0,0,0-2.088.469,1.44,1.44,0,0,0-.686,1.308q0,1.26,1.561,1.26a2.589,2.589,0,0,0,1.787-.6,2.017,2.017,0,0,0,.67-1.582Z" transform="translate(-123)" fill="#040505"/>
    <path id="Trazado_19717" data-name="Trazado 19717" d="M1237.469,7763.84v-.721a3.01,3.01,0,0,1,.433-1.632,5.448,5.448,0,0,1,1.581-1.475,6.508,6.508,0,0,0,1.46-1.191,1.641,1.641,0,0,0,.353-1.026,1.085,1.085,0,0,0-.506-.966,2.556,2.556,0,0,0-1.413-.332,8.6,8.6,0,0,0-3.6.957l-1.15-2.139a10.673,10.673,0,0,1,4.987-1.221,5.6,5.6,0,0,1,3.453.968,3.067,3.067,0,0,1,1.281,2.578,3.241,3.241,0,0,1-.527,1.855,7.293,7.293,0,0,1-2,1.757,6.014,6.014,0,0,0-1.282,1.056,1.55,1.55,0,0,0-.268.946v.586Zm-.338,3.34a1.567,1.567,0,0,1,.475-1.24,2.016,2.016,0,0,1,1.381-.419,1.965,1.965,0,0,1,1.355.429,1.792,1.792,0,0,1-.006,2.446,1.922,1.922,0,0,1-1.349.444,1.99,1.99,0,0,1-1.371-.434,1.559,1.559,0,0,1-.485-1.226" transform="translate(-123)" fill="#040505"/>
    <path id="Trazado_19718" data-name="Trazado 19718" d="M1093.273,7796.659v.722a2.876,2.876,0,0,1-.469,1.651,5.738,5.738,0,0,1-1.608,1.445,5.917,5.917,0,0,0-1.449,1.192,1.779,1.779,0,0,0-.3,1.045,1.121,1.121,0,0,0,.459.918,2.235,2.235,0,0,0,1.4.361,6.279,6.279,0,0,0,1.783-.283q.948-.283,1.961-.694l1.075,2.158a10.661,10.661,0,0,1-2.335.884,9.679,9.679,0,0,1-2.42.337,6.187,6.187,0,0,1-3.643-.942,3.012,3.012,0,0,1-1.323-2.593,3.226,3.226,0,0,1,.512-1.826,7.558,7.558,0,0,1,2.018-1.8,6.313,6.313,0,0,0,1.282-1.045,1.525,1.525,0,0,0,.279-.957v-.576Zm.338-3.34a1.567,1.567,0,0,1-.475,1.24,2.015,2.015,0,0,1-1.38.42,1.961,1.961,0,0,1-1.356-.43,1.8,1.8,0,0,1,.011-2.456,1.962,1.962,0,0,1,1.345-.434,2,2,0,0,1,1.37.43,1.557,1.557,0,0,1,.485,1.23" transform="translate(-123)" fill="#040505"/>
    <path id="Trazado_19719" data-name="Trazado 19719" d="M1110.785,7795.3a6.755,6.755,0,0,1-2.166,5.4,9.3,9.3,0,0,1-6.258,1.875H1098V7788.3h4.839a8.557,8.557,0,0,1,5.863,1.846,6.522,6.522,0,0,1,2.087,5.156m-3.4.077q0-4.6-4.386-4.6h-1.74v9.3h1.4q4.725,0,4.724-4.7" transform="translate(-123)" fill="#040505"/>
    <path id="Trazado_19720" data-name="Trazado 19720" d="M1124.439,7797.1a5.6,5.6,0,0,1-1.519,4.17,5.748,5.748,0,0,1-4.228,1.5,6.292,6.292,0,0,1-2.994-.688,4.745,4.745,0,0,1-1.992-1.978,6.22,6.22,0,0,1-.7-3.007,5.572,5.572,0,0,1,1.508-4.161,5.786,5.786,0,0,1,4.238-1.484,6.323,6.323,0,0,1,2.994.684,4.732,4.732,0,0,1,1.992,1.963,6.175,6.175,0,0,1,.7,3m-8.151,0a4.315,4.315,0,0,0,.575,2.451,2.111,2.111,0,0,0,1.871.83,2.08,2.08,0,0,0,1.851-.825,4.37,4.37,0,0,0,.564-2.456,4.238,4.238,0,0,0-.57-2.432,2.545,2.545,0,0,0-3.721,0,4.244,4.244,0,0,0-.57,2.437m.675-6.641v-.264a27.814,27.814,0,0,0,2.478-2.939h3.606v.205q-.549.508-1.872,1.509t-2.071,1.489Z" transform="translate(-123)" fill="#040505"/>
    <path id="Trazado_19721" data-name="Trazado 19721" d="M1137.974,7802.577h-3.215V7796.2a2.88,2.88,0,0,0-.454-1.772,1.7,1.7,0,0,0-1.444-.591,2.236,2.236,0,0,0-1.95.835,4.858,4.858,0,0,0-.6,2.768v5.137h-3.216v-10.918h2.457l.432,1.4h.179a3.334,3.334,0,0,1,1.482-1.2,5.406,5.406,0,0,1,2.144-.4,4.321,4.321,0,0,1,3.122,1.03,3.95,3.95,0,0,1,1.064,2.974Z" transform="translate(-123)" fill="#040505"/>
    <path id="Trazado_19722" data-name="Trazado 19722" d="M1145.017,7802.772a3.937,3.937,0,0,1-3.263-1.494,7.835,7.835,0,0,1,.022-8.325,4.037,4.037,0,0,1,3.326-1.5,3.947,3.947,0,0,1,3.395,1.6h.105a11.267,11.267,0,0,1-.242-2.177v-3.5h3.225v15.2h-2.466l-.622-1.416h-.137a3.77,3.77,0,0,1-3.343,1.611m1.129-2.373a2.27,2.27,0,0,0,1.808-.664,3.661,3.661,0,0,0,.627-2.256v-.322a4.2,4.2,0,0,0-.585-2.52,2.248,2.248,0,0,0-1.9-.761,1.931,1.931,0,0,0-1.672.844,4.252,4.252,0,0,0-.595,2.456,4.025,4.025,0,0,0,.6,2.417,2.017,2.017,0,0,0,1.719.806" transform="translate(-123)" fill="#040505"/>
    <path id="Trazado_19723" data-name="Trazado 19723" d="M1160.284,7802.772a6.377,6.377,0,0,1-4.449-1.455,5.284,5.284,0,0,1-1.6-4.121,5.783,5.783,0,0,1,1.482-4.243,5.5,5.5,0,0,1,4.1-1.5,5.431,5.431,0,0,1,3.89,1.318,4.776,4.776,0,0,1,1.392,3.643v1.445h-7.6a2.754,2.754,0,0,0,.812,1.983,2.991,2.991,0,0,0,2.13.712,9.51,9.51,0,0,0,2.013-.205,10.545,10.545,0,0,0,1.983-.654V7802a7.99,7.99,0,0,1-1.8.581,12.256,12.256,0,0,1-2.341.19m-.453-9.2a2.12,2.12,0,0,0-1.6.6,2.669,2.669,0,0,0-.665,1.7h4.513a2.374,2.374,0,0,0-.622-1.7,2.19,2.19,0,0,0-1.623-.6" transform="translate(-123)" fill="#040505"/>
    <path id="Trazado_19724" data-name="Trazado 19724" d="M1168.928,7797.84v-.721a3.027,3.027,0,0,1,.433-1.632,5.483,5.483,0,0,1,1.582-1.475,6.505,6.505,0,0,0,1.46-1.191,1.633,1.633,0,0,0,.352-1.026,1.082,1.082,0,0,0-.505-.966,2.556,2.556,0,0,0-1.413-.332,8.6,8.6,0,0,0-3.606.957l-1.148-2.139a10.669,10.669,0,0,1,4.986-1.221,5.6,5.6,0,0,1,3.453.968,3.069,3.069,0,0,1,1.28,2.578,3.248,3.248,0,0,1-.526,1.855,7.285,7.285,0,0,1-2,1.757,6.031,6.031,0,0,0-1.281,1.056,1.55,1.55,0,0,0-.268.946v.586Zm-.336,3.34a1.567,1.567,0,0,1,.475-1.24,2.013,2.013,0,0,1,1.38-.419,1.963,1.963,0,0,1,1.355.429,1.794,1.794,0,0,1-.005,2.446,1.926,1.926,0,0,1-1.35.444,1.986,1.986,0,0,1-1.37-.434,1.552,1.552,0,0,1-.485-1.226" transform="translate(-123)" fill="#040505"/>
    <path id="Trazado_19725" data-name="Trazado 19725" d="M1342.405,7817.28q1.329-6.132,5.554-8.5t11-.9q6.54,1.416,9.432,5.4t1.593,9.974q-1.25,5.766-5.592,8.3t-10.808,1.137q-6.62-1.434-9.541-5.468t-1.641-9.946m7.928-24.418,1.171-5.4a23.086,23.086,0,0,1,5.871-11.491q4.352-4.482,14.208-8.462,9.461-3.684,12.843-6.541a12.554,12.554,0,0,0,4.3-7.093,8.3,8.3,0,0,0-2.217-8.046q-3.246-3.3-10.023-4.77-11.821-2.561-28.5,1.317l-5.127-17.846a81.616,81.616,0,0,1,39.251-1.052q16.236,3.516,24.246,12.816a23.476,23.476,0,0,1,5.4,21.344,24.761,24.761,0,0,1-6.943,13.017q-5.207,4.986-17.819,9.9-8.688,3.546-11.283,5.81a11.841,11.841,0,0,0-3.542,6.646l-.949,4.379Z" transform="translate(-123)" fill="#0f68a1"/>
    <rect id="Rectángulo_3492" data-name="Rectángulo 3492" width="1.768" height="57.932" transform="translate(719.224 7748.417)" fill="#fff"/>
  </g>
</svg>
